<?xml version="1.0" encoding="utf-8"?>
<!-- Generator: Adobe Illustrator 17.0.0, SVG Export Plug-In . SVG Version: 6.00 Build 0)  -->
<!DOCTYPE svg PUBLIC "-//W3C//DTD SVG 1.1//EN" "http://www.w3.org/Graphics/SVG/1.1/DTD/svg11.dtd">
<svg version="1.1" xmlns="http://www.w3.org/2000/svg" xmlns:xlink="http://www.w3.org/1999/xlink" x="0px" y="0px" width="200px"
	 height="200px" viewBox="0 0 200 200" enable-background="new 0 0 200 200" xml:space="preserve">
<g id="Ebene_1">
	<g>
		<defs>
			<rect id="SVGID_1_" x="51.027" y="43.869" width="98.086" height="111.904"/>
		</defs>
		<clipPath id="SVGID_2_">
			<use xlink:href="#SVGID_1_"  overflow="visible"/>
		</clipPath>
		<path clip-path="url(#SVGID_2_)" fill="#21B2E3" d="M130.1,76.561c-8.582,0-15.537-6.651-15.537-14.884v-15.88
			c0-1.064-0.898-1.929-2.007-1.929H62.639c-6.402,0-11.613,4.984-11.613,11.129v89.647c0,6.144,5.211,11.129,11.613,11.129h74.856
			c6.406,0,11.62-4.984,11.62-11.129V78.487c0-1.064-0.9-1.927-2.009-1.927H130.1z"/>
		<path clip-path="url(#SVGID_2_)" fill="#21B2E3" d="M130.1,69.015h13.906c0.813,0,1.547-0.469,1.856-1.193
			c0.311-0.72,0.136-1.549-0.44-2.1c-5.082-4.847-14.52-13.846-19.582-18.644c-0.578-0.544-1.436-0.707-2.184-0.407
			c-0.749,0.298-1.233,1-1.233,1.778v13.226C122.422,65.704,125.9,69.015,130.1,69.015"/>
	</g>
</g>
<g id="Ebene_2" display="none">
	<g display="inline">
		<defs>
			<rect id="SVGID_3_" x="5.959" y="18.1" width="188.54" height="164.334"/>
		</defs>
		<clipPath id="SVGID_4_">
			<use xlink:href="#SVGID_3_"  overflow="visible"/>
		</clipPath>
		<path clip-path="url(#SVGID_4_)" fill="#21B2E3" d="M63.917,122.901c-5.037-4.594-8.229-10.985-8.465-18.075
			c-0.692-0.048-1.381-0.1-2.091-0.1H34.473c-15.725,0-28.514,12.162-28.514,27.111v21.977l0.059,0.339l1.593,0.474
			c12.031,3.576,22.777,5.221,32.107,5.74v-6.637C39.721,139.176,49.941,126.851,63.917,122.901 M43.92,103.278
			c4.355,0,8.409-1.208,11.844-3.268c1.091-6.772,4.909-12.685,10.358-16.715c0.024-0.395,0.062-0.789,0.062-1.187
			c0-11.698-9.971-21.177-22.264-21.177c-12.301,0-22.268,9.479-22.268,21.177C21.653,93.802,31.62,103.278,43.92,103.278
			 M165.989,83.419h-18.747c-0.204,7.132-3.403,13.557-8.468,18.176c13.973,3.954,24.196,16.275,24.196,30.83v6.772
			c18.508-0.647,29.182-5.633,29.885-5.972l1.485-0.717h0.159v-21.981C194.503,95.582,181.71,83.419,165.989,83.419 M134.294,60.48
			c7.021,4.186,11.944,11.266,12.841,19.491c2.86,1.267,6.038,2.001,9.406,2.001c12.301,0,22.268-9.479,22.268-21.17
			c0-11.698-9.967-21.174-22.268-21.174C144.358,39.624,134.478,48.937,134.294,60.48 M129.281,104.725h-18.751
			c-0.204,7.132-3.407,13.557-8.468,18.176c13.973,3.954,24.196,16.275,24.196,30.83v6.772c18.512-0.647,29.178-5.636,29.881-5.972
			l1.489-0.717h0.159v-21.981C157.788,116.887,144.999,104.725,129.281,104.725 M92.438,126.584H73.545
			c-15.721,0-28.51,12.162-28.51,27.111v21.977l0.055,0.343l1.593,0.471c15.001,4.456,28.036,5.948,38.768,5.948
			c20.949,0,33.101-5.681,33.849-6.045l1.489-0.717h0.156v-21.977C120.944,138.747,108.159,126.584,92.438,126.584 M82.993,125.141
			c12.294,0,22.265-9.479,22.265-21.174c0-11.691-9.971-21.174-22.265-21.174c-12.297,0-22.271,9.483-22.271,21.174
			C60.722,115.662,70.696,125.141,82.993,125.141 M97.582,81.785c7.018,4.186,11.941,11.269,12.841,19.491
			c2.863,1.271,6.041,2.001,9.406,2.001c12.301,0,22.268-9.476,22.268-21.17c0-11.698-9.967-21.177-22.268-21.177
			C107.647,60.93,97.766,70.239,97.582,81.785 M93.49,79.722c0.242-5.003,2.053-9.635,4.968-13.464
			c-2.046-0.409-4.161-0.623-6.329-0.623H71.624c-2.164,0-4.276,0.215-6.308,0.616c3.102,4.089,4.954,9.084,4.985,14.496
			c3.77-1.973,8.094-3.095,12.692-3.095C86.718,77.652,90.271,78.389,93.49,79.722 M57.706,41.082
			c0-12.692,10.819-22.981,24.169-22.981c13.346,0,24.169,10.289,24.169,22.981c0,12.692-10.822,22.985-24.169,22.985
			C68.525,64.067,57.706,53.774,57.706,41.082"/>
	</g>
</g>
<g id="Ebene_3" display="none">
	<g display="inline">
		<defs>
			<rect id="SVGID_5_" x="5.054" y="3.695" width="188.877" height="191.059"/>
		</defs>
		<clipPath id="SVGID_6_">
			<use xlink:href="#SVGID_5_"  overflow="visible"/>
		</clipPath>
		<path clip-path="url(#SVGID_6_)" fill="#21B2E3" d="M188.743,164.179l-43.333-43.834c-6.459,10.156-14.999,18.797-25.04,25.325
			l43.333,43.838c6.917,6.995,18.134,6.995,25.04,0C195.66,182.521,195.66,171.177,188.743,164.179"/>
		<path clip-path="url(#SVGID_6_)" fill="#21B2E3" d="M75.882,129.077c-29.293,0-53.123-24.103-53.123-53.736
			s23.829-53.736,53.123-53.736s53.123,24.103,53.123,53.736S105.176,129.077,75.882,129.077 M146.711,75.342
			c0-39.565-31.715-71.646-70.829-71.646S5.054,35.776,5.054,75.342c0,39.569,31.715,71.646,70.829,71.646
			S146.711,114.911,146.711,75.342"/>
		<path clip-path="url(#SVGID_6_)" fill="#21B2E3" d="M34.565,75.342h11.803c0-16.461,13.241-29.852,29.513-29.852V33.548
			C53.104,33.548,34.565,52.299,34.565,75.342"/>
	</g>
</g>
<g id="Ebene_4" display="none">
	<g display="inline">
		<defs>
			<rect id="SVGID_7_" x="2.85" y="21.407" width="193.749" height="156.718"/>
		</defs>
		<clipPath id="SVGID_8_">
			<use xlink:href="#SVGID_7_"  overflow="visible"/>
		</clipPath>
		<path clip-path="url(#SVGID_8_)" fill="#21B2E3" d="M74.012,52.34c39.297,0,71.162,24.907,71.162,55.624
			c0,30.721-31.864,55.614-71.162,55.614c-6.934,0-13.632-0.772-19.969-2.216c-8.371,15.561-23.558,19.015-37.142,15.511
			c8.189-7.197,15.251-14.023,20.563-21.197c-20.745-9.713-34.613-27.45-34.613-47.712C2.851,77.247,34.715,52.34,74.012,52.34"/>
		<path clip-path="url(#SVGID_8_)" fill="#21B2E3" d="M125.45,21.407c-24.38,0-45.904,9.588-58.727,24.212
			c31.831-8.762,109.515,26.323,80.193,84.945c8.378,15.564,22.053,18.873,35.645,15.369c-8.189-7.204-15.258-14.027-20.563-21.197
			c20.721-9.72,34.599-27.45,34.599-47.719C196.598,46.306,164.748,21.407,125.45,21.407"/>
	</g>
</g>
<g id="Ebene_5" display="none">
	<g display="inline">
		<defs>
			<rect id="SVGID_9_" x="14.027" y="3.695" width="172.431" height="193.044"/>
		</defs>
		<clipPath id="SVGID_10_">
			<use xlink:href="#SVGID_9_"  overflow="visible"/>
		</clipPath>
		<path clip-path="url(#SVGID_10_)" fill="#21B2E3" d="M167.989,101.416c-5.686,0-10.723,2.52-14.107,6.38L132.23,97.553
			c0.276-1.335,0.442-2.715,0.442-4.136c0-7.224-3.839-13.604-9.663-17.456l13.819-37.192c10.159-0.016,18.434-7.886,18.434-17.533
			c0-9.655-8.292-17.541-18.458-17.541c-10.159,0-18.47,7.878-18.47,17.533c0,6.603,3.933,12.31,9.627,15.297l-13.393,36.024
			c-1.392-0.26-2.829-0.414-4.294-0.414c-11.827,0-21.457,8.815-22.249,19.854l-38.012,8.454
			c-2.358-7.102-9.282-12.318-17.529-12.318c-10.171,0-18.454,7.878-18.454,17.537c0,9.667,8.292,17.537,18.454,17.537
			c8.872,0,16.323-6.011,18.073-13.957l38.743-8.628c3.06,7.975,10.946,13.738,20.313,14.002l2.301,49.267
			c-5.731,2.979-9.692,8.697-9.692,15.333c0,9.647,8.292,17.525,18.466,17.525c10.159,0,18.454-7.878,18.454-17.525
			c0-9.448-7.951-17.139-17.813-17.476l-2.273-48.763c3.876-1.583,7.18-4.192,9.574-7.443l21.263,10.069
			c-0.223,1.076-0.353,2.204-0.353,3.332c0,9.659,8.292,17.537,18.458,17.537s18.462-7.878,18.462-17.537
			C186.46,109.286,178.148,101.416,167.989,101.416"/>
	</g>
</g>
<g id="Ebene_6" display="none">
	<g display="inline">
		<defs>
			<rect id="SVGID_11_" x="3.622" y="16.992" width="192.619" height="165.903"/>
		</defs>
		<clipPath id="SVGID_12_">
			<use xlink:href="#SVGID_11_"  overflow="visible"/>
		</clipPath>
		<path clip-path="url(#SVGID_12_)" fill="#21B2E3" d="M29.858,99.429h61.77v9.731h-61.77V99.429z M87.279,89.812H29.858v-9.737
			h57.421V89.812z M87.279,70.451H29.858v-9.731h57.421V70.451z M29.858,41.366h75.217v9.731H29.858V41.366z M166.658,121.08
			c-3.424-2.834-7.113-5.176-11.024-7.041c9.051-6.303,15.01-16.699,15.01-28.471c0-19.203-15.741-34.833-35.105-34.833
			s-35.116,15.63-35.116,34.833c0,11.786,5.965,22.168,15.01,28.471c-3.896,1.865-7.6,4.207-11.017,7.041H59.636l-0.028,19.837
			L39.009,121.08h-2.783l-18.847,0.393l-0.403-90.851l165.537-0.4l0.397,90.858H166.658z M114.168,85.568
			c0-11.689,9.586-21.202,21.371-21.202c11.775,0,21.361,9.52,21.361,21.202c0,11.679-9.579,21.196-21.361,21.196
			C123.753,106.763,114.168,97.253,114.168,85.568 M94.486,169.264c1.41-13.937,7.065-26.157,15.22-34.55
			c7.1-7.289,16.048-11.696,25.823-11.696c9.772,0,18.737,4.407,25.826,11.696c8.162,8.393,13.817,20.613,15.22,34.55H94.486z
			 M182.895,16.992H16.962c-7.348,0-13.341,5.938-13.341,13.237v91.258c0,7.289,5.986,13.234,13.341,13.234h16.465l20.961,20.178
			l0.672,0.565c2.524,1.859,5.234,2.848,7.858,2.848c5.038,0,10.458-3.738,10.444-11.951v-11.648h19.016
			c-7.469,11.379-11.962,25.737-11.962,41.364v6.817h110.25v-6.817c0-15.627-4.51-29.985-11.972-41.364h4.2
			c7.355,0,13.344-5.938,13.344-13.241V30.229C196.24,22.943,190.257,16.992,182.895,16.992"/>
	</g>
</g>
</svg>
