<?xml version="1.0" encoding="utf-8"?>
<!-- Generator: Adobe Illustrator 17.0.0, SVG Export Plug-In . SVG Version: 6.00 Build 0)  -->
<!DOCTYPE svg PUBLIC "-//W3C//DTD SVG 1.1//EN" "http://www.w3.org/Graphics/SVG/1.1/DTD/svg11.dtd">
<svg version="1.1" xmlns="http://www.w3.org/2000/svg" xmlns:xlink="http://www.w3.org/1999/xlink" x="0px" y="0px" width="200px"
	 height="200px" viewBox="0 0 200 200" enable-background="new 0 0 200 200" xml:space="preserve">
<g id="Ebene_1" display="none">
	<g display="inline">
		<defs>
			<rect id="SVGID_1_" x="51.027" y="43.869" width="98.086" height="111.904"/>
		</defs>
		<clipPath id="SVGID_2_">
			<use xlink:href="#SVGID_1_"  overflow="visible"/>
		</clipPath>
		<path clip-path="url(#SVGID_2_)" fill="#21B2E3" d="M130.1,76.561c-8.582,0-15.537-6.651-15.537-14.884v-15.88
			c0-1.064-0.898-1.929-2.007-1.929H62.639c-6.402,0-11.613,4.984-11.613,11.129v89.647c0,6.144,5.211,11.129,11.613,11.129h74.856
			c6.406,0,11.62-4.984,11.62-11.129V78.487c0-1.064-0.9-1.927-2.009-1.927H130.1z"/>
		<path clip-path="url(#SVGID_2_)" fill="#21B2E3" d="M130.1,69.015h13.906c0.813,0,1.547-0.469,1.856-1.193
			c0.311-0.72,0.136-1.549-0.44-2.1c-5.082-4.847-14.52-13.846-19.582-18.644c-0.578-0.544-1.436-0.707-2.184-0.407
			c-0.749,0.298-1.233,1-1.233,1.778v13.226C122.422,65.704,125.9,69.015,130.1,69.015"/>
	</g>
</g>
<g id="Ebene_2" display="none">
	<g display="inline">
		<defs>
			<rect id="SVGID_3_" x="39.318" y="47.175" width="121.824" height="106.183"/>
		</defs>
		<clipPath id="SVGID_4_">
			<use xlink:href="#SVGID_3_"  overflow="visible"/>
		</clipPath>
		<path clip-path="url(#SVGID_4_)" fill="#21B2E3" d="M76.767,114.891c-3.255-2.968-5.317-7.098-5.469-11.679
			c-0.447-0.031-0.893-0.065-1.351-0.065H57.741c-10.16,0-18.424,7.858-18.424,17.518v14.2l0.038,0.219l1.029,0.306
			c7.773,2.311,14.717,3.373,20.746,3.709v-4.288C61.133,125.407,67.736,117.444,76.767,114.891 M63.846,102.212
			c2.814,0,5.434-0.781,7.653-2.112c0.705-4.376,3.172-8.196,6.693-10.8c0.016-0.255,0.04-0.51,0.04-0.767
			c0-7.559-6.442-13.684-14.386-13.684c-7.948,0-14.388,6.125-14.388,13.684C49.458,96.09,55.898,102.212,63.846,102.212
			 M142.72,89.381h-12.113c-0.132,4.608-2.199,8.76-5.472,11.744c9.028,2.555,15.634,10.516,15.634,19.92v4.376
			c11.959-0.418,18.855-3.64,19.31-3.859l0.96-0.463h0.103v-14.203C161.143,97.239,152.878,89.381,142.72,89.381 M122.24,74.559
			c4.537,2.705,7.718,7.279,8.297,12.594c1.848,0.819,3.901,1.293,6.078,1.293c7.948,0,14.388-6.125,14.388-13.679
			c0-7.559-6.44-13.681-14.388-13.681C128.743,61.083,122.359,67.101,122.24,74.559 M119.001,103.147h-12.115
			c-0.132,4.608-2.201,8.76-5.472,11.744c9.028,2.555,15.634,10.516,15.634,19.92v4.376c11.961-0.418,18.853-3.642,19.307-3.859
			l0.962-0.463h0.103v-14.203C137.42,111.006,129.157,103.147,119.001,103.147 M95.195,117.272H82.988
			c-10.158,0-18.422,7.858-18.422,17.518v14.2l0.036,0.221l1.029,0.304c9.693,2.879,18.115,3.843,25.05,3.843
			c13.536,0,21.388-3.671,21.871-3.906l0.962-0.463h0.101v-14.2C113.614,125.13,105.353,117.272,95.195,117.272 M89.092,116.339
			c7.944,0,14.386-6.125,14.386-13.681c0-7.554-6.442-13.681-14.386-13.681c-7.946,0-14.39,6.127-14.39,13.681
			C74.702,110.214,81.147,116.339,89.092,116.339 M98.519,88.325c4.534,2.705,7.715,7.281,8.297,12.594
			c1.85,0.821,3.904,1.293,6.078,1.293c7.948,0,14.388-6.123,14.388-13.679c0-7.559-6.44-13.684-14.388-13.684
			C105.022,74.85,98.638,80.865,98.519,88.325 M95.875,86.992c0.157-3.232,1.327-6.226,3.21-8.7
			c-1.322-0.264-2.689-0.403-4.089-0.403h-13.25c-1.398,0-2.763,0.139-4.076,0.398c2.004,2.642,3.201,5.87,3.221,9.366
			c2.436-1.275,5.23-2,8.201-2C91.499,85.654,93.795,86.131,95.875,86.992 M72.754,62.025c0-8.201,6.991-14.849,15.616-14.849
			c8.624,0,15.616,6.648,15.616,14.849c0,8.201-6.993,14.851-15.616,14.851C79.744,76.876,72.754,70.226,72.754,62.025"/>
	</g>
</g>
<g id="Ebene_3" display="none">
	<g display="inline">
		<defs>
			<rect id="SVGID_5_" x="45.599" y="44.709" width="107.786" height="109.032"/>
		</defs>
		<clipPath id="SVGID_6_">
			<use xlink:href="#SVGID_5_"  overflow="visible"/>
		</clipPath>
		<path clip-path="url(#SVGID_6_)" fill="#21B2E3" d="M150.425,136.292l-24.728-25.015c-3.686,5.796-8.56,10.727-14.29,14.452
			l24.728,25.017c3.948,3.992,10.349,3.992,14.29,0C154.372,146.759,154.372,140.286,150.425,136.292"/>
		<path clip-path="url(#SVGID_6_)" fill="#21B2E3" d="M86.019,116.261c-16.717,0-30.315-13.755-30.315-30.665
			S69.302,54.93,86.019,54.93s30.315,13.755,30.315,30.665S102.735,116.261,86.019,116.261 M126.439,85.596
			c0-22.579-18.099-40.886-40.42-40.886s-40.42,18.308-40.42,40.886c0,22.581,18.099,40.886,40.42,40.886
			S126.439,108.176,126.439,85.596"/>
		<path clip-path="url(#SVGID_6_)" fill="#21B2E3" d="M62.44,85.596h6.736c0-9.394,7.556-17.036,16.842-17.036v-6.815
			C73.02,61.745,62.44,72.446,62.44,85.596"/>
	</g>
</g>
<g id="Ebene_4" display="none">
	<g display="inline">
		<defs>
			<rect id="SVGID_7_" x="31.658" y="44.709" width="136.132" height="110.114"/>
		</defs>
		<clipPath id="SVGID_8_">
			<use xlink:href="#SVGID_7_"  overflow="visible"/>
		</clipPath>
		<path clip-path="url(#SVGID_8_)" fill="#21B2E3" d="M81.658,66.443c27.611,0,50,17.5,50,39.083c0,21.585-22.389,39.076-50,39.076
			c-4.872,0-9.578-0.543-14.031-1.557c-5.882,10.934-16.552,13.36-26.097,10.898c5.754-5.057,10.716-9.853,14.448-14.893
			c-14.576-6.825-24.32-19.287-24.32-33.524C31.658,83.943,54.047,66.443,81.658,66.443"/>
		<path clip-path="url(#SVGID_8_)" fill="#21B2E3" d="M117.8,44.709c-17.13,0-32.253,6.737-41.263,17.012
			c22.365-6.156,76.948,18.495,56.346,59.685c5.886,10.936,15.495,13.261,25.045,10.799c-5.754-5.062-10.72-9.855-14.448-14.893
			c14.559-6.829,24.31-19.287,24.31-33.528C167.79,62.204,145.411,44.709,117.8,44.709"/>
	</g>
</g>
<g id="Ebene_5" display="none">
	<g display="inline">
		<defs>
			<rect id="SVGID_9_" x="39.513" y="32.227" width="121.461" height="135.981"/>
		</defs>
		<clipPath id="SVGID_10_">
			<use xlink:href="#SVGID_9_"  overflow="visible"/>
		</clipPath>
		<path clip-path="url(#SVGID_10_)" fill="#21B2E3" d="M147.964,101.062c-4.005,0-7.553,1.775-9.937,4.494l-15.252-7.216
			c0.194-0.941,0.312-1.913,0.312-2.913c0-5.089-2.704-9.583-6.807-12.296l9.734-26.198c7.156-0.011,12.985-5.555,12.985-12.35
			c0-6.801-5.841-12.356-13.002-12.356c-7.156,0-13.011,5.549-13.011,12.35c0,4.651,2.77,8.671,6.781,10.775l-9.434,25.375
			c-0.981-0.183-1.993-0.292-3.025-0.292c-8.331,0-15.115,6.209-15.672,13.985l-26.776,5.955c-1.661-5.003-6.538-8.677-12.347-8.677
			c-7.164,0-12.999,5.549-12.999,12.353c0,6.81,5.841,12.353,12.999,12.353c6.249,0,11.498-4.234,12.73-9.832l27.29-6.078
			c2.156,5.618,7.71,9.677,14.308,9.863l1.621,34.703c-4.037,2.098-6.827,6.126-6.827,10.801c0,6.795,5.841,12.344,13.008,12.344
			c7.156,0,12.999-5.549,12.999-12.344c0-6.655-5.6-12.073-12.547-12.31l-1.601-34.349c2.73-1.115,5.057-2.953,6.744-5.243
			l14.977,7.093c-0.157,0.758-0.249,1.552-0.249,2.347c0,6.804,5.841,12.353,13.002,12.353c7.161,0,13.005-5.549,13.005-12.353
			C160.974,106.605,155.119,101.062,147.964,101.062"/>
	</g>
</g>
<g id="Ebene_6">
	<g>
		<defs>
			<rect id="SVGID_11_" x="31.242" y="40.781" width="137.379" height="118.325"/>
		</defs>
		<clipPath id="SVGID_12_">
			<use xlink:href="#SVGID_11_"  overflow="visible"/>
		</clipPath>
		<path clip-path="url(#SVGID_12_)" fill="#21B2E3" d="M49.953,99.577h44.055v6.94H49.953V99.577z M90.907,92.718H49.953v-6.945
			h40.954V92.718z M90.907,78.909H49.953v-6.94h40.954V78.909z M49.953,58.165H103.6v6.94H49.953V58.165z M147.522,115.018
			c-2.442-2.022-5.073-3.691-7.862-5.022c6.456-4.496,10.705-11.91,10.705-20.306c0-13.696-11.227-24.843-25.038-24.843
			s-25.045,11.148-25.045,24.843c0,8.406,4.255,15.811,10.705,20.306c-2.779,1.33-5.42,3-7.857,5.022H71.192l-0.02,14.148
			L56.48,115.018h-1.985l-13.442,0.28l-0.288-64.796l118.064-0.285l0.283,64.801H147.522z M110.085,89.69
			c0-8.337,6.837-15.122,15.242-15.122c8.398,0,15.235,6.79,15.235,15.122c0,8.329-6.832,15.117-15.235,15.117
			C116.922,104.807,110.085,98.025,110.085,89.69 M96.047,149.384c1.006-9.94,5.039-18.656,10.855-24.642
			c5.064-5.199,11.445-8.342,18.417-8.342c6.97,0,13.364,3.143,18.42,8.342c5.821,5.986,9.854,14.701,10.855,24.642H96.047z
			 M159.103,40.781H40.756c-5.241,0-9.515,4.235-9.515,9.441v65.087c0,5.199,4.269,9.439,9.515,9.439h11.743l14.95,14.392
			l0.48,0.403c1.8,1.326,3.733,2.031,5.605,2.031c3.593,0,7.459-2.666,7.449-8.524v-8.307h13.563
			c-5.327,8.116-8.531,18.356-8.531,29.501v4.862h78.632v-4.862c0-11.145-3.217-21.386-8.539-29.501h2.995
			c5.246,0,9.517-4.235,9.517-9.444V50.222C168.62,45.025,164.353,40.781,159.103,40.781"/>
	</g>
</g>
</svg>
