<?xml version="1.0" encoding="utf-8"?>
<!-- Generator: Adobe Illustrator 17.0.0, SVG Export Plug-In . SVG Version: 6.00 Build 0)  -->
<!DOCTYPE svg PUBLIC "-//W3C//DTD SVG 1.1//EN" "http://www.w3.org/Graphics/SVG/1.1/DTD/svg11.dtd">
<svg version="1.1" xmlns="http://www.w3.org/2000/svg" xmlns:xlink="http://www.w3.org/1999/xlink" x="0px" y="0px" width="487px"
	 height="218px" viewBox="0 0 487 218" enable-background="new 0 0 487 218" xml:space="preserve">
<g id="Ebene_1" display="none">
	<g display="inline">
		<defs>
			<rect id="SVGID_1_" x="119.386" y="16.381" width="248.725" height="188.952"/>
		</defs>
		<clipPath id="SVGID_2_">
			<use xlink:href="#SVGID_1_"  overflow="visible"/>
		</clipPath>
		<path clip-path="url(#SVGID_2_)" fill="#69B1E1" d="M243.708,81.73c15.636,0,28.303-13.786,28.303-30.761
			c0-17.03-12.69-30.796-28.303-30.796c-15.578,0-28.239,13.766-28.239,30.796C215.469,67.95,228.124,81.73,243.708,81.73"/>
		<path clip-path="url(#SVGID_2_)" fill="#69B1E1" d="M161.997,60.288c11.159,0,20.189-9.809,20.189-21.935
			c-0.009-12.148-9.027-21.972-20.189-21.972c-11.11,0-20.157,9.824-20.157,21.972C141.84,50.478,150.887,60.288,161.997,60.288"/>
		<path clip-path="url(#SVGID_2_)" fill="#69B1E1" d="M325.459,16.38c11.13,0,20.151,9.827,20.151,21.949
			s-9.021,21.949-20.151,21.949c-11.13,0-20.151-9.827-20.151-21.949S314.328,16.38,325.459,16.38"/>
	</g>
	<polygon display="inline" fill="#69B1E1" points="328.2,68.986 331.735,110.103 325.492,117.684 319.351,110.24 322.874,68.986 
		316.517,61.495 312.197,66.184 291.208,71.255 286.379,95.709 262.498,89.96 256.444,83.4 247.557,93.923 252.503,151.52 
		243.726,162.144 235.15,151.715 240.101,93.923 231.17,83.4 225.154,89.96 201.224,95.726 196.374,71.255 175.4,66.184 
		171.085,61.495 164.741,68.986 168.272,110.103 162.018,117.684 155.891,110.24 159.411,68.986 153.046,61.495 148.749,66.184 
		127.746,71.255 119.493,113.012 119.388,113.012 134.73,148.503 185.555,148.503 184.147,155.598 183.993,155.61 205.506,205.332 
		281.983,205.332 303.496,155.61 302.091,148.503 352.768,148.503 368.113,113.012 359.834,71.255 338.85,66.184 334.568,61.495 	
		"/>
</g>
<g id="Ebene_2" display="none">
	<g display="inline">
		<defs>
			<rect id="SVGID_3_" x="112.353" y="11.333" width="237.694" height="187.333"/>
		</defs>
		<clipPath id="SVGID_4_">
			<use xlink:href="#SVGID_3_"  overflow="visible"/>
		</clipPath>
		<path clip-path="url(#SVGID_4_)" fill="#69B1E1" d="M119.568,159.126v29.471h-7.216v10.07h227.37v-10.07h-7.216v-29.471H119.568z
			 M262.694,21.215h6.692v-1.737h-2.742v-7.564c-0.003-0.318-0.269-0.578-0.608-0.578c-0.33,0-0.599,0.257-0.599,0.578v7.558h-2.742
			V21.215z M267.767,21.748c1.495,1.359,3.378,2.697,5.711,3.838V24.65c0-1.598-0.908-2.903-2.028-2.903h-2.034H267.767z
			 M273.478,28.824v-1.937c-3.19-1.48-5.608-3.329-7.418-5.139h-3.411h-0.024C264.837,24.26,268.29,27.06,273.478,28.824
			 M273.478,32.426v-2.37c-6.177-1.998-10.064-5.415-12.397-8.308h-0.454c-0.624,0-1.174,0.412-1.541,1.038
			C261.275,25.928,265.615,30.359,273.478,32.426 M273.478,35.828v-2.203c-7.803-1.964-12.367-6.168-14.852-9.455
			c-0.021,0.157-0.03,0.318-0.03,0.481v2.028C261.035,29.887,265.585,34.033,273.478,35.828 M258.59,31.091
			c2.745,3.105,7.391,6.65,14.888,8.108v-2.173c-7.461-1.628-12.113-5.282-14.888-8.478V31.091z M258.59,35.335
			c2.972,2.951,7.679,6.029,14.888,7.207v-2.149c-7.176-1.347-11.892-4.54-14.888-7.579V35.335z M272.87,46.455
			c0.375-0.484,0.608-1.084,0.608-1.74v-0.999c-6.955-1.096-11.722-3.895-14.888-6.762v2.391h0.006
			C261.483,42.214,265.999,45.208,272.87,46.455 M304.232,90.226c0.003,13.32-11.171,24.123-24.961,24.123
			c-13.787,0-24.964-10.802-24.964-24.123c0-13.329,11.178-24.129,24.964-24.129S304.232,76.897,304.232,90.226 M350.047,108.874
			c0.003-2.37-1.126-4.776-2.527-5.363c-1.395-0.593-4.737-0.469-7.467,0.281c-2.733,0.751-6.943,0.966-9.401,0.49l-4.461-0.881
			V39.932h-6.619v23.551h-9.02v-9.013c0-2.564-2.158-4.649-4.812-4.649h-36.356v-1.532h-6.695v1.532h-0.563
			c-2.654,0-6.423,1.395-8.684,2.754c-8.653,5.185-23.505,9.159-40.488,9.159c-16.22,0-28.039-3.638-35.948-8.475
			c2.343,0.082,4.679,0.139,7.025,0.139c34.94,0,69.232-8.623,74.559-10.021v0.048c1.71,1.513,3.889,3.005,6.659,4.201h5.224
			c0.415,0,0.808-0.073,1.168-0.224c-5.966-1.259-10.167-3.814-13.045-6.423c-0.46,0.127-44.846,12.518-85.8,10.109
			c-1.825-0.726-3.798-1.259-5.406-1.259h-24.359c-2.66,0-4.812,2.082-4.812,4.649v13.375h-3.305c-1.329,0-2.406,1.041-2.406,2.318
			v10.763c0,1.28,1.077,2.324,2.406,2.324h3.305v33.72c0,2.57,2.155,4.649,4.812,4.649h24.359c2.663,0,4.812-2.079,4.812-4.649
			v-4.104c0-2.561,1.586-6.072,3.629-7.703c8.511-6.861,21.038-14.604,35.022-14.643c18.626-0.07,30.155,5.53,37.261,11.868
			c1.952,1.743,3.105,5.436,2.836,7.993l-4.455,42.452h64.057V94.582h9.02v22.397h6.619v-2.621c0,0,1.998-0.39,4.461-0.872
			c2.458-0.481,6.668-0.263,9.395,0.481c2.727,0.748,6.069,0.881,7.464,0.294C348.912,113.674,350.047,111.259,350.047,108.874
			 M261.595,47.62h0.975c-1.507-0.817-2.818-1.71-3.956-2.636C258.768,46.461,260.034,47.62,261.595,47.62"/>
	</g>
</g>
<g id="Ebene_3">
	<g>
		<defs>
			<rect id="SVGID_5_" x="143.643" y="15.333" width="176.529" height="182"/>
		</defs>
		<clipPath id="SVGID_6_">
			<use xlink:href="#SVGID_5_"  overflow="visible"/>
		</clipPath>
		<path clip-path="url(#SVGID_6_)" fill="#69B1E1" d="M260.929,170.993l2.126-38.2c0.12-2.202,2.01-3.874,4.214-3.729l0.554,0.044
			l13.27,14.999c22.81-23.248,23.903-60.856,1.761-85.883c-15.55-17.579-39.299-25.195-61.98-19.862
			c-5.714,1.339-11.487-2.221-12.901-7.962c-1.405-5.745,2.088-11.487,7.808-12.829c30.357-7.128,62.144,3.055,82.967,26.59
			c29.992,33.897,28.158,85.036-3.402,116.058l11.767,13.298l-0.028,0.554c-0.129,2.202-2.019,3.874-4.217,3.729l-38.165-2.542
			C262.485,175.11,260.797,173.198,260.929,170.993"/>
		<path clip-path="url(#SVGID_6_)" fill="#69B1E1" d="M160.958,34.871l38.165,2.542c2.202,0.145,3.89,2.054,3.767,4.258
			l-2.126,38.19c-0.12,2.211-2.01,3.88-4.221,3.732l-0.542-0.047l-13.276-14.983c-22.801,23.235-23.913,60.843-1.764,85.877
			c15.55,17.579,39.299,25.185,61.983,19.859c5.717-1.345,11.5,2.224,12.904,7.966c1.398,5.748-2.101,11.49-7.821,12.832
			c-30.348,7.128-62.144-3.058-82.967-26.593c-29.988-33.894-28.155-85.03,3.411-116.048l-11.764-13.298l0.028-0.554
			C156.866,36.392,158.753,34.723,160.958,34.871"/>
	</g>
</g>
<g id="Ebene_4" display="none">
	<g display="inline">
		<defs>
			<rect id="SVGID_7_" x="139.643" y="12.333" width="193.023" height="197.016"/>
		</defs>
		<clipPath id="SVGID_8_">
			<use xlink:href="#SVGID_7_"  overflow="visible"/>
		</clipPath>
		<path clip-path="url(#SVGID_8_)" fill="#69B1E1" d="M230.085,209.349v-0.11V183.42c-3.284,1.536-6.878,2.352-10.532,2.352
			c-3.436,0-6.771-0.695-9.911-2.061c-3.03-1.321-5.743-3.208-8.064-5.608c-4.78-4.941-7.361-11.489-7.265-18.438
			c0.09-6.72,2.725-13.053,7.418-17.834c4.696-4.78,10.908-7.457,17.501-7.542c0.107-0.003,0.215-0.003,0.322-0.003
			c3.654,0,7.248,0.813,10.532,2.349l0.025-25.709h-30.201c0.734-1.305,1.813-2.928,3.055-4.775c2.4-3.572,4.187-7.706,4.131-12.384
			c-0.13-10.555-8.575-19.178-18.924-19.325c-0.09,0-0.184-0.003-0.274-0.003c-10.603,0-19.198,8.764-19.198,19.579
			c0,4.577,1.762,8.62,4.122,12.119c1.146,1.7,2.332,3.484,3.064,4.789h-28.182c-4.453,0-8.061,3.679-8.061,8.219v81.983
			c0,4.54,3.609,8.219,8.061,8.219H230.085z"/>
		<path clip-path="url(#SVGID_8_)" fill="#69B1E1" d="M307.348,116.922c1.505,3.349,2.304,7.014,2.304,10.741
			c0,6.878-2.626,13.341-7.392,18.204c-4.769,4.862-11.108,7.539-17.851,7.539c-0.116,0-0.237,0-0.356-0.003
			c-6.59-0.093-12.799-2.778-17.486-7.567c-4.687-4.786-7.313-11.122-7.398-17.842c-0.045-3.846,0.751-7.627,2.304-11.071h-19.274
			h-3.021h-3.052l0.003,30.856c-1.067-0.624-3.044-1.979-4.862-3.258c-3.369-2.372-7.305-4.069-11.715-4.069
			c-0.082,0-0.164,0-0.246,0.003c-10.351,0.133-18.805,8.742-18.949,19.296c-0.051,3.617,0.864,7.011,2.493,9.936
			c3.301,5.924,9.544,9.919,16.702,9.919c4.41,0,8.256-1.835,11.715-4.066c2.132-1.375,3.795-2.637,4.862-3.261v0.144v36.817h0.025
			h3.021h3.024h82.381c4.453,0,8.061-3.679,8.061-8.219v-84.098H307.348z"/>
		<path clip-path="url(#SVGID_8_)" fill="#69B1E1" d="M324.606,12.335h-88.452v37.763c0,0,3.241-2.863,4.278-3.611
			c3.326-2.821,7.601-4.518,12.266-4.518c10.693,0,19.342,8.914,19.195,19.855c-0.144,10.555-8.598,19.167-18.949,19.299
			c-0.082,0-0.164,0-0.246,0c-4.665,0-8.939-1.697-12.266-4.518c-1.036-0.748-4.278-3.611-4.278-3.611v37.763h6.045h30.198
			c-0.28,0.584-1.897,3.089-3.222,4.992c-2.4,3.462-4.018,7.587-3.961,12.167c0.13,10.555,8.572,19.178,18.924,19.325
			c0.09,0,0.181,0,0.271,0c4.964,0,9.49-1.92,12.898-5.074c3.868-3.58,6.299-8.753,6.299-14.502c0-4.487-1.657-8.488-3.97-11.921
			c-1.471-2.188-2.584-3.868-3.179-4.924c-0.011-0.023-0.023-0.04-0.034-0.062h35.69h0.553v-3.496V20.554
			C332.664,16.014,329.059,12.335,324.606,12.335"/>
	</g>
</g>
<g id="Ebene_5" display="none">
	<g display="inline">
		<defs>
			<rect id="SVGID_9_" x="124.445" y="17.497" width="223.421" height="198.028"/>
		</defs>
		<clipPath id="SVGID_10_">
			<use xlink:href="#SVGID_9_"  overflow="visible"/>
		</clipPath>
		<path clip-path="url(#SVGID_10_)" fill="#69B1E1" d="M193.126,143.785c-5.972-5.538-9.754-13.237-10.032-21.782
			c-0.823-0.058-1.634-0.119-2.478-0.119h-22.382c-18.635,0-33.79,14.654-33.79,32.669v26.482l0.07,0.411l1.886,0.574
			c14.26,4.309,26.989,6.288,38.05,6.911v-7.995C164.453,163.399,176.565,148.546,193.126,143.785 M169.431,120.139
			c5.161,0,9.962-1.458,14.034-3.938c1.292-8.16,5.816-15.286,12.272-20.142c0.032-0.478,0.075-0.953,0.075-1.434
			c0-14.095-11.814-25.517-26.381-25.517c-14.578,0-26.39,11.423-26.39,25.517S154.853,120.139,169.431,120.139 M314.083,96.207
			h-22.217c-0.241,8.598-4.034,16.34-10.035,21.904c16.561,4.764,28.676,19.615,28.676,37.152v8.16
			c21.93-0.779,34.576-6.789,35.407-7.195l1.762-0.866h0.191v-26.485C347.87,110.863,332.712,96.207,314.083,96.207 M276.522,68.562
			c8.319,5.048,14.152,13.579,15.216,23.489c3.39,1.53,7.157,2.414,11.148,2.414c14.576,0,26.39-11.423,26.39-25.515
			c0-14.095-11.814-25.515-26.39-25.515C288.447,43.433,276.743,54.656,276.522,68.562 M270.582,121.884h-22.22
			c-0.241,8.595-4.037,16.337-10.038,21.901C254.885,148.548,267,163.399,267,180.936v8.16c21.936-0.779,34.579-6.792,35.41-7.195
			l1.765-0.866h0.185V154.55C304.364,136.537,289.206,121.884,270.582,121.884 M226.922,148.224h-22.388
			c-18.63,0-33.785,14.657-33.785,32.672v26.482l0.067,0.414l1.889,0.568c17.775,5.369,33.222,7.166,45.938,7.166
			c24.828,0,39.224-6.847,40.11-7.285l1.765-0.864h0.185v-26.482C260.704,162.881,245.554,148.224,226.922,148.224 M215.731,146.485
			c14.57,0,26.384-11.426,26.384-25.515c0-14.092-11.814-25.517-26.384-25.517c-14.573,0-26.393,11.426-26.393,25.517
			C189.338,135.059,201.158,146.485,215.731,146.485 M233.016,94.239c8.319,5.045,14.155,13.579,15.222,23.486
			c3.387,1.533,7.154,2.414,11.148,2.414c14.573,0,26.384-11.42,26.384-25.515s-11.811-25.517-26.384-25.517
			C244.943,69.107,233.236,80.327,233.016,94.239 M228.168,91.753c0.29-6.03,2.434-11.611,5.888-16.227
			c-2.423-0.49-4.929-0.748-7.499-0.748h-24.3c-2.562,0-5.065,0.255-7.476,0.742c3.677,4.929,5.874,10.948,5.908,17.468
			c4.468-2.376,9.594-3.729,15.042-3.729C220.147,89.258,224.355,90.148,228.168,91.753 M185.766,45.189
			c0-15.294,12.82-27.694,28.641-27.694c15.816,0,28.638,12.399,28.638,27.694c0,15.297-12.822,27.697-28.638,27.697
			C198.585,72.886,185.766,60.486,185.766,45.189"/>
	</g>
</g>
<g id="Ebene_6" display="none">
	<g display="inline">
		<defs>
			<rect id="SVGID_11_" x="140.939" y="-6.667" width="205.122" height="221.993"/>
		</defs>
		<clipPath id="SVGID_12_">
			<use xlink:href="#SVGID_11_"  overflow="visible"/>
		</clipPath>
		<path clip-path="url(#SVGID_12_)" fill="#69B1E1" d="M295.728,72.919l-2.492,0.668c-0.028,1.041-0.163,2.084-0.409,3.114
			l2.236,1.289c0.8,0.464,1.076,1.488,0.613,2.291l-2.699,4.681c-0.464,0.803-1.491,1.079-2.291,0.616l-2.236-1.289
			c-0.767,0.729-1.604,1.369-2.49,1.913l0.668,2.492c0.24,0.894-0.29,1.813-1.184,2.054l-5.22,1.399
			c-0.897,0.24-1.816-0.29-2.056-1.184L277.5,88.47c-1.041-0.028-2.084-0.163-3.113-0.409l-1.289,2.236
			c-0.461,0.8-1.488,1.076-2.291,0.616l-4.681-2.702c-0.803-0.464-1.076-1.491-0.616-2.291l1.289-2.233
			c-0.726-0.77-1.366-1.606-1.91-2.492l-2.492,0.671c-0.894,0.24-1.816-0.293-2.054-1.187l-1.402-5.22
			c-0.24-0.894,0.29-1.816,1.184-2.056l2.492-0.668c0.028-1.041,0.163-2.084,0.409-3.114l-2.233-1.289
			c-0.803-0.461-1.079-1.488-0.616-2.291l2.699-4.681c0.464-0.803,1.491-1.076,2.294-0.616l2.233,1.289
			c0.77-0.726,1.604-1.366,2.49-1.91l-0.668-2.492c-0.24-0.894,0.293-1.813,1.184-2.056l5.222-1.399
			c0.894-0.24,1.813,0.29,2.054,1.187l0.668,2.49c1.041,0.028,2.084,0.163,3.114,0.409l1.289-2.233
			c0.464-0.803,1.488-1.079,2.291-0.616l4.681,2.699c0.803,0.464,1.079,1.491,0.616,2.291l-1.289,2.236
			c0.726,0.767,1.366,1.604,1.913,2.49l2.49-0.668c0.894-0.24,1.816,0.29,2.056,1.184l1.399,5.222
			C297.153,71.76,296.623,72.679,295.728,72.919 M268.019,101.639l-1.88,0.505c-0.019,0.784-0.124,1.571-0.306,2.349l1.684,0.972
			c0.607,0.351,0.814,1.123,0.464,1.731l-2.037,3.533c-0.351,0.604-1.126,0.814-1.731,0.464l-1.684-0.974
			c-0.582,0.549-1.212,1.032-1.88,1.444l0.502,1.88c0.185,0.676-0.218,1.372-0.892,1.551l-3.942,1.057
			c-0.674,0.182-1.369-0.221-1.551-0.894l-0.502-1.88c-0.787-0.022-1.573-0.124-2.349-0.309l-0.974,1.686
			c-0.348,0.604-1.123,0.814-1.728,0.464l-3.533-2.04c-0.607-0.348-0.814-1.123-0.466-1.728l0.974-1.686
			c-0.549-0.58-1.032-1.212-1.444-1.88l-1.88,0.505c-0.676,0.182-1.369-0.221-1.551-0.894l-1.057-3.942
			c-0.182-0.673,0.221-1.369,0.894-1.551l1.882-0.505c0.019-0.784,0.121-1.571,0.306-2.346l-1.686-0.974
			c-0.604-0.348-0.811-1.123-0.464-1.728l2.04-3.533c0.348-0.607,1.123-0.814,1.728-0.466l1.686,0.974
			c0.58-0.549,1.209-1.032,1.877-1.444l-0.502-1.88c-0.182-0.676,0.221-1.369,0.894-1.551l3.939-1.057
			c0.676-0.179,1.372,0.221,1.551,0.894l0.505,1.882c0.784,0.019,1.571,0.121,2.349,0.306l0.972-1.686
			c0.351-0.604,1.126-0.811,1.731-0.464l3.533,2.04c0.604,0.348,0.811,1.123,0.464,1.728l-0.972,1.686
			c0.547,0.58,1.03,1.209,1.441,1.88l1.882-0.505c0.673-0.182,1.369,0.221,1.548,0.894l1.057,3.942
			C269.095,100.764,268.695,101.457,268.019,101.639 M238.418,88.862l-1.844-2.926c-1.366,0.381-2.757,0.618-4.149,0.709
			l-0.765,3.373c-0.276,1.212-1.482,1.971-2.691,1.695l-7.069-1.604c-1.212-0.276-1.971-1.479-1.695-2.691l0.765-3.373
			c-1.214-0.682-2.365-1.496-3.434-2.432l-2.926,1.844c-1.052,0.662-2.44,0.348-3.102-0.704l-3.864-6.13
			c-0.66-1.052-0.345-2.44,0.707-3.102l2.923-1.844c-0.381-1.366-0.618-2.757-0.707-4.149l-3.376-0.765
			c-1.209-0.276-1.968-1.482-1.695-2.691l1.606-7.069c0.273-1.212,1.479-1.971,2.691-1.695l3.373,0.765
			c0.682-1.214,1.496-2.365,2.429-3.434l-1.841-2.926c-0.662-1.052-0.348-2.44,0.704-3.102l6.13-3.862
			c1.052-0.662,2.44-0.348,3.102,0.704l1.844,2.923c1.366-0.378,2.755-0.616,4.149-0.707l0.765-3.376
			c0.276-1.209,1.479-1.968,2.691-1.695l7.066,1.606c1.212,0.273,1.971,1.479,1.698,2.691l-0.767,3.373
			c1.217,0.682,2.368,1.496,3.436,2.429l2.926-1.841c1.052-0.662,2.44-0.348,3.102,0.704l3.862,6.13
			c0.662,1.052,0.348,2.44-0.704,3.102l-2.926,1.844c0.381,1.366,0.618,2.757,0.709,4.149l3.373,0.765
			c1.212,0.276,1.971,1.479,1.695,2.691l-1.604,7.066c-0.276,1.212-1.479,1.971-2.691,1.698l-3.373-0.767
			c-0.682,1.217-1.496,2.368-2.432,3.436l1.844,2.926c0.662,1.052,0.348,2.44-0.704,3.102l-6.13,3.862
			C240.466,90.229,239.078,89.914,238.418,88.862 M306.849,42.295c-8.8-11.008-31.651-29.639-61.5-29.639
			c-19.956,0-38.947,8.344-56.441,24.798c-0.03,0.028-0.061,0.058-0.088,0.086c-17.061,17.552-14.833,33.766-12.01,54.302
			c0.174,1.264,0.351,2.545,0.524,3.845c0.469,3.489-2.586,8.871-5.54,14.08c-4.441,7.822-9.029,15.913-3.423,19.736
			c9.583,6.531,11.248,19.385,12.86,31.822c0.384,2.953,0.778,6.006,1.272,8.976c0.853,5.123,5.175,7.613,13.213,7.613
			c3.574,0,7.392-0.442,11.085-0.869c3.166-0.364,6.155-0.709,8.548-0.709c1.339,0,2.385,0.105,3.196,0.326
			c9.658,2.617,18.093,22.145,21.143,33.837c0.248,0.95,0.977,1.698,1.921,1.965c0.251,0.069,0.505,0.105,0.756,0.105
			c0.704,0,1.391-0.268,1.913-0.767l49.496-47.238c0.767-0.731,1.049-1.836,0.726-2.846c-4.369-13.671,4.712-27.017,12.727-38.798
			c3.497-5.14,6.801-9.995,9.062-14.775C326.712,86.086,319.204,57.755,306.849,42.295"/>
	</g>
</g>
</svg>
