<?xml version="1.0" encoding="utf-8"?>
<!-- Generator: Adobe Illustrator 17.0.0, SVG Export Plug-In . SVG Version: 6.00 Build 0)  -->
<!DOCTYPE svg PUBLIC "-//W3C//DTD SVG 1.1//EN" "http://www.w3.org/Graphics/SVG/1.1/DTD/svg11.dtd">
<svg version="1.1" id="Ebene_1" xmlns="http://www.w3.org/2000/svg" xmlns:xlink="http://www.w3.org/1999/xlink" x="0px" y="0px"
	 width="1200px" height="500px" viewBox="0 0 1200 500" enable-background="new 0 0 1200 500" xml:space="preserve">
<g id="Ebene_1_1_">
	<rect fill="#3FA9F5" width="1200" height="512"/>
</g>
<g id="Ebene_2">
	<polygon opacity="0.4" fill="#FFFFFF" enable-background="new    " points="1005.11,-62 742.715,64.236 864.734,317.914 
		1127.148,191.678 1097.683,130.433 896.515,227.204 833.387,96.035 1034.555,-0.755 	"/>
	<polygon opacity="0.4" fill="#FFFFFF" enable-background="new    " points="885.228,114.172 914.655,175.416 1115.842,78.626 
		1178.969,209.833 977.801,306.585 1007.228,367.83 1269.641,241.594 1147.622,-12.065 	"/>
</g>
<g id="Ebene_3">
	<text transform="matrix(1 0 0 1 234.8398 307.7852)" fill="#FFFFFF" font-family="'MyriadPro-Regular'" font-size="24.2949">CSR </text>
	<text transform="matrix(1 0 0 1 279.1289 307.7852)" fill="#FFFFFF" font-family="'MyriadPro-Regular'" font-size="24.2949">M</text>
	
		<text transform="matrix(1 0 0 1 298.4433 307.7852)" fill="#FFFFFF" font-family="'MyriadPro-Regular'" font-size="24.2949" letter-spacing="-1">A</text>
	<text transform="matrix(1 0 0 1 311.4414 307.7852)" fill="#FFFFFF" font-family="'MyriadPro-Regular'" font-size="24.2949">T</text>
	<text transform="matrix(1 0 0 1 322.8833 307.7852)" fill="#FFFFFF" font-family="'MyriadPro-Regular'" font-size="24.2949">CH </text>
	<text transform="matrix(1 0 0 1 357.9644 307.7852)" fill="#FFFFFF" font-family="'MyriadPro-Regular'" font-size="24.2949">v</text>
	<text transform="matrix(1 0 0 1 369.4082 307.7852)" fill="#FFFFFF" font-family="'MyriadPro-Regular'" font-size="24.2949">e</text>
	<text transform="matrix(1 0 0 1 381.5791 307.7852)" fill="#FFFFFF" font-family="'MyriadPro-Regular'" font-size="24.2949">r</text>
	<text transform="matrix(1 0 0 1 390.251 307.7852)" fill="#FFFFFF" font-family="'MyriadPro-Regular'" font-size="24.2949">fügt über die ers</text>
	<text transform="matrix(1 0 0 1 556.4273 307.7852)" fill="#FFFFFF" font-family="'MyriadPro-Regular'" font-size="24.2949">t</text>
	<text transform="matrix(1 0 0 1 564.3223 307.7852)" fill="#FFFFFF" font-family="'MyriadPro-Regular'" font-size="24.2949">e </text>
	<text transform="matrix(1 0 0 1 234.8398 336.9404)" fill="#FFFFFF" font-family="'MyriadPro-Regular'" font-size="24.2949">cloud-basie</text>
	<text transform="matrix(1 0 0 1 352.3525 336.9404)" fill="#FFFFFF" font-family="'MyriadPro-Regular'" font-size="24.2949">r</text>
	<text transform="matrix(1 0 0 1 360.856 336.9404)" fill="#FFFFFF" font-family="'MyriadPro-Regular'" font-size="24.2949">t</text>
	<text transform="matrix(1 0 0 1 368.7763 336.9404)" fill="#FFFFFF" font-family="'MyriadPro-Regular'" font-size="24.2949">e </text>
	<text transform="matrix(1 0 0 1 386.0977 336.9404)" fill="#FFFFFF" font-family="'MyriadPro-Regular'" font-size="24.2949">P</text>
	<text transform="matrix(1 0 0 1 398.9004 336.9404)" fill="#FFFFFF" font-family="'MyriadPro-Regular'" font-size="24.2949">l</text>
	<text transform="matrix(1 0 0 1 404.6353 336.9404)" fill="#FFFFFF" font-family="'MyriadPro-Regular'" font-size="24.2949">a</text>
	<text transform="matrix(1 0 0 1 416.248 336.9404)" fill="#FFFFFF" font-family="'MyriadPro-Regular'" font-size="24.2949">tt</text>
	<text transform="matrix(1 0 0 1 432.331 336.9404)" fill="#FFFFFF" font-family="'MyriadPro-Regular'" font-size="24.2949">f</text>
	<text transform="matrix(1 0 0 1 439.1328 336.9404)" fill="#FFFFFF" font-family="'MyriadPro-Regular'" font-size="24.2949">o</text>
	<text transform="matrix(1 0 0 1 452.4717 336.9404)" fill="#FFFFFF" font-family="'MyriadPro-Regular'" font-size="24.2949">r</text>
	<text transform="matrix(1 0 0 1 460.5132 336.9404)" fill="#FFFFFF" font-family="'MyriadPro-Regular'" font-size="24.2949">m, die es U</text>
	<text transform="matrix(1 0 0 1 570.3238 336.9404)" fill="#FFFFFF" font-family="'MyriadPro-Regular'" font-size="24.2949">n</text>
	<text transform="matrix(1 0 0 1 583.71 336.9404)" fill="#FFFFFF" font-family="'MyriadPro-Regular'" font-size="24.2949">t</text>
	<text transform="matrix(1 0 0 1 591.6289 336.9404)" fill="#FFFFFF" font-family="'MyriadPro-Regular'" font-size="24.2949">e</text>
	<text transform="matrix(1 0 0 1 603.8018 336.9404)" fill="#FFFFFF" font-family="'MyriadPro-Regular'" font-size="24.2949">r</text>
	<text transform="matrix(1 0 0 1 611.8184 336.9404)" fill="#FFFFFF" font-family="'MyriadPro-Regular'" font-size="24.2949">neh</text>
	<text transform="matrix(1 0 0 1 234.8398 366.0947)" fill="#FFFFFF" font-family="'MyriadPro-Regular'" font-size="24.2949">men möglich mac</text>
	<text transform="matrix(1 0 0 1 416.8799 366.0947)" fill="#FFFFFF" font-family="'MyriadPro-Regular'" font-size="24.2949">h</text>
	<text transform="matrix(1 0 0 1 430.2666 366.0947)" fill="#FFFFFF" font-family="'MyriadPro-Regular'" font-size="24.2949">t</text>
	<text transform="matrix(1 0 0 1 438.2598 366.0947)" fill="#FFFFFF" font-family="'MyriadPro-Regular'" font-size="24.2949">, das </text>
	<text transform="matrix(1 0 0 1 488.622 366.0947)" fill="#FFFFFF" font-family="'MyriadPro-Regular'" font-size="24.2949">K</text>
	<text transform="matrix(1 0 0 1 502.0332 366.0947)" fill="#FFFFFF" font-family="'MyriadPro-Regular'" font-size="24.2949">n</text>
	<text transform="matrix(1 0 0 1 515.5156 366.0947)" fill="#FFFFFF" font-family="'MyriadPro-Regular'" font-size="24.2949">o</text>
	<text transform="matrix(1 0 0 1 528.6836 366.0947)" fill="#FFFFFF" font-family="'MyriadPro-Regular'" font-size="24.2949">w</text>
	<text transform="matrix(1 0 0 1 546.4927 366.0947)" fill="#FFFFFF" font-family="'MyriadPro-Regular'" font-size="24.2949">-H</text>
	<text transform="matrix(1 0 0 1 569.79 366.0947)" fill="#FFFFFF" font-family="'MyriadPro-Regular'" font-size="24.2949">o</text>
	<text transform="matrix(1 0 0 1 582.958 366.0947)" fill="#FFFFFF" font-family="'MyriadPro-Regular'" font-size="24.2949">w ih</text>
	<text transform="matrix(1 0 0 1 625.1573 366.0947)" fill="#FFFFFF" font-family="'MyriadPro-Regular'" font-size="24.2949">r</text>
	<text transform="matrix(1 0 0 1 632.8594 366.0947)" fill="#FFFFFF" font-family="'MyriadPro-Regular'" font-size="24.2949">er </text>
	<text transform="matrix(1 0 0 1 234.8398 395.248)" fill="#FFFFFF" font-family="'MyriadPro-Regular'" font-size="24.2949">M</text>
	<text transform="matrix(1 0 0 1 254.665 395.248)" fill="#FFFFFF" font-family="'MyriadPro-Regular'" font-size="24.2949">ita</text>
	<text transform="matrix(1 0 0 1 280.0996 395.248)" fill="#FFFFFF" font-family="'MyriadPro-Regular'" font-size="24.2949">r</text>
	<text transform="matrix(1 0 0 1 288.1172 395.248)" fill="#FFFFFF" font-family="'MyriadPro-Regular'" font-size="24.2949">bei</text>
	<text transform="matrix(1 0 0 1 319.7984 395.248)" fill="#FFFFFF" font-family="'MyriadPro-Regular'" font-size="24.2949">t</text>
	<text transform="matrix(1 0 0 1 327.6933 395.248)" fill="#FFFFFF" font-family="'MyriadPro-Regular'" font-size="24.2949">enden mit einem passenden </text>
	<text transform="matrix(1 0 0 1 234.8398 424.4023)" fill="#FFFFFF" font-family="'MyriadPro-Regular'" font-size="24.2949">CSR-</text>
	<text transform="matrix(1 0 0 1 281.4365 424.4023)" fill="#FFFFFF" font-family="'MyriadPro-Regular'" font-size="24.2949">P</text>
	<text transform="matrix(1 0 0 1 293.9726 424.4023)" fill="#FFFFFF" font-family="'MyriadPro-Regular'" font-size="24.2949">r</text>
	<text transform="matrix(1 0 0 1 301.6992 424.4023)" fill="#FFFFFF" font-family="'MyriadPro-Regular'" font-size="24.2949">ojekt zu </text>
	<text transform="matrix(1 0 0 1 386.6324 424.4023)" fill="#FFFFFF" font-family="'MyriadPro-Regular'" font-size="24.2949">v</text>
	<text transform="matrix(1 0 0 1 398.0742 424.4023)" fill="#FFFFFF" font-family="'MyriadPro-Regular'" font-size="24.2949">e</text>
	<text transform="matrix(1 0 0 1 410.247 424.4023)" fill="#FFFFFF" font-family="'MyriadPro-Regular'" font-size="24.2949">r</text>
	<text transform="matrix(1 0 0 1 418.2886 424.4023)" fill="#FFFFFF" font-family="'MyriadPro-Regular'" font-size="24.2949">k</text>
	<text transform="matrix(1 0 0 1 430.0962 424.4023)" fill="#FFFFFF" font-family="'MyriadPro-Regular'" font-size="24.2949">nüp</text>
	<text transform="matrix(1 0 0 1 470.79 424.4023)" fill="#FFFFFF" font-family="'MyriadPro-Regular'" font-size="24.2949">f</text>
	<text transform="matrix(1 0 0 1 477.5918 424.4023)" fill="#FFFFFF" font-family="'MyriadPro-Regular'" font-size="24.2949">en.</text>
	<g>
		<g>
			<defs>
				<rect id="SVGID_1_" x="194.026" y="204.5" width="518.936" height="269.582"/>
			</defs>
			<clipPath id="SVGID_2_">
				<use xlink:href="#SVGID_1_"  overflow="visible"/>
			</clipPath>
			<polygon clip-path="url(#SVGID_2_)" fill="none" stroke="#FFFFFF" stroke-width="5" points="200.1,468.008 706.887,468.008 
				706.887,239.036 341.924,239.036 305.566,212.024 267.812,239.162 200.1,239.47 			"/>
		</g>
	</g>
</g>
</svg>
