<?xml version="1.0" encoding="utf-8"?>
<!-- Generator: Adobe Illustrator 17.0.0, SVG Export Plug-In . SVG Version: 6.00 Build 0)  -->
<!DOCTYPE svg PUBLIC "-//W3C//DTD SVG 1.1//EN" "http://www.w3.org/Graphics/SVG/1.1/DTD/svg11.dtd">
<svg version="1.1" id="Layer_1" xmlns="http://www.w3.org/2000/svg" xmlns:xlink="http://www.w3.org/1999/xlink" x="0px" y="0px"
	 width="40px" height="40px" viewBox="0 0 40 40" enable-background="new 0 0 40 40" xml:space="preserve">
<path fill="#FFFFFF" d="M37.793,0H2.207C0.988,0,0,0.987,0,2.208v35.585C0,39.012,0.988,40,2.207,40h19.158V24.51h-5.211v-6.037
	h5.211v-4.452c0-5.167,3.156-7.979,7.765-7.979c2.209,0,4.104,0.164,4.657,0.238v5.398l-3.195,0.001
	c-2.506,0-2.991,1.19-2.991,2.938v3.854h5.978l-0.777,6.037h-5.199V40h10.193c1.219,0,2.207-0.988,2.207-2.207V2.208
	C40,0.987,39.011,0,37.793,0z"/>
</svg>
