<?xml version="1.0" encoding="utf-8"?>
<!-- Generator: Adobe Illustrator 17.0.0, SVG Export Plug-In . SVG Version: 6.00 Build 0)  -->
<!DOCTYPE svg PUBLIC "-//W3C//DTD SVG 1.1//EN" "http://www.w3.org/Graphics/SVG/1.1/DTD/svg11.dtd">
<svg version="1.1" id="Ebene_1" xmlns="http://www.w3.org/2000/svg" xmlns:xlink="http://www.w3.org/1999/xlink" x="0px" y="0px"
	 width="80px" height="80px" viewBox="0 0 80 80" enable-background="new 0 0 80 80" xml:space="preserve">
<g>
	<defs>
		<rect id="SVGID_1_" x="-71.124" y="0.014" width="146.126" height="79.972"/>
	</defs>
	<clipPath id="SVGID_2_">
		<use xlink:href="#SVGID_1_"  overflow="visible"/>
	</clipPath>
	<path clip-path="url(#SVGID_2_)" fill="#21B2E3" d="M61.414,23.377c-6.133,0-11.104-4.753-11.104-10.637V1.392
		c0-0.761-0.642-1.378-1.434-1.378H13.203c-4.575,0-8.299,3.562-8.299,7.953v64.066c0,4.391,3.724,7.953,8.299,7.953h53.496
		c4.578,0,8.304-3.562,8.304-7.953V24.754c0-0.761-0.643-1.377-1.436-1.377H61.414z"/>
	<path clip-path="url(#SVGID_2_)" fill="#21B2E3" d="M61.414,17.985h9.938c0.581,0,1.105-0.335,1.326-0.853
		c0.222-0.515,0.097-1.107-0.314-1.501C68.732,12.168,61.987,5.736,58.37,2.307c-0.413-0.389-1.026-0.505-1.561-0.291
		c-0.535,0.213-0.881,0.715-0.881,1.27v9.452C55.927,15.618,58.412,17.985,61.414,17.985"/>
</g>
</svg>
