<?xml version="1.0" encoding="utf-8"?>
<!-- Generator: Adobe Illustrator 15.1.0, SVG Export Plug-In . SVG Version: 6.00 Build 0)  -->
<!DOCTYPE svg PUBLIC "-//W3C//DTD SVG 1.1//EN" "http://www.w3.org/Graphics/SVG/1.1/DTD/svg11.dtd">
<svg version="1.1" id="Layer_1" xmlns="http://www.w3.org/2000/svg" xmlns:xlink="http://www.w3.org/1999/xlink" x="0px" y="0px"
	 width="40px" height="40px" viewBox="0 0 40 40" enable-background="new 0 0 40 40" xml:space="preserve">
<g>
	<g>
		<path fill="#404040" d="M19.294,22.48l-1.765-1.371c-0.537-0.445-1.272-1.033-1.272-2.11c0-1.08,0.735-1.769,1.373-2.404
			c2.057-1.619,4.109-3.34,4.109-6.969c0-3.73-2.348-5.693-3.473-6.625H21.3L24.484,1h-9.647C12.19,1,8.375,1.626,5.582,3.933
			C3.478,5.748,2.45,8.253,2.45,10.507c0,3.826,2.938,7.705,8.126,7.705c0.49,0,1.026-0.048,1.565-0.098
			c-0.242,0.589-0.487,1.081-0.487,1.914c0,1.52,0.78,2.452,1.469,3.334c-2.204,0.15-6.319,0.396-9.354,2.261
			C0.88,27.341,0,29.843,0,31.607c0,3.633,3.425,7.017,10.526,7.017c8.42,0,12.878-4.658,12.878-9.271
			C23.407,25.962,21.448,24.294,19.294,22.48z M12.88,16.837c-4.212,0-6.121-5.445-6.121-8.731c0-1.279,0.242-2.601,1.076-3.632
			c0.785-0.982,2.153-1.62,3.43-1.62c4.062,0,6.168,5.495,6.168,9.028c0,0.883-0.099,2.45-1.225,3.582
			C15.421,16.251,14.103,16.837,12.88,16.837z M12.929,36.568c-5.238,0-8.617-2.506-8.617-5.99c0-3.483,3.133-4.661,4.211-5.052
			c2.055-0.691,4.699-0.788,5.142-0.788c0.489,0,0.734,0,1.124,0.049c3.725,2.65,5.34,3.972,5.34,6.479
			C20.128,34.306,17.63,36.568,12.929,36.568z"/>
		<polygon fill="#404040" points="31.659,16.763 31.659,11.856 29.235,11.856 29.235,16.763 24.339,16.763 24.339,19.212 
			29.235,19.212 29.235,24.148 31.659,24.148 31.659,19.212 36.581,19.212 36.581,16.763 		"/>
	</g>
</g>
</svg>
