<?xml version="1.0" encoding="utf-8"?>
<!-- Generator: Adobe Illustrator 17.0.0, SVG Export Plug-In . SVG Version: 6.00 Build 0)  -->
<!DOCTYPE svg PUBLIC "-//W3C//DTD SVG 1.1//EN" "http://www.w3.org/Graphics/SVG/1.1/DTD/svg11.dtd">
<svg version="1.1" xmlns="http://www.w3.org/2000/svg" xmlns:xlink="http://www.w3.org/1999/xlink" x="0px" y="0px" width="200px"
	 height="200px" viewBox="0 0 200 200" enable-background="new 0 0 200 200" xml:space="preserve">
<g id="Ebene_1" display="none">
	<g display="inline">
		<defs>
			<rect id="SVGID_1_" x="51.027" y="43.869" width="98.086" height="111.904"/>
		</defs>
		<clipPath id="SVGID_2_">
			<use xlink:href="#SVGID_1_"  overflow="visible"/>
		</clipPath>
		<path clip-path="url(#SVGID_2_)" fill="#21B2E3" d="M130.1,76.561c-8.582,0-15.537-6.651-15.537-14.884v-15.88
			c0-1.064-0.898-1.929-2.007-1.929H62.639c-6.402,0-11.613,4.984-11.613,11.129v89.647c0,6.144,5.211,11.129,11.613,11.129h74.856
			c6.406,0,11.62-4.984,11.62-11.129V78.487c0-1.064-0.9-1.927-2.009-1.927H130.1z"/>
		<path clip-path="url(#SVGID_2_)" fill="#21B2E3" d="M130.1,69.015h13.906c0.813,0,1.547-0.469,1.856-1.193
			c0.311-0.72,0.136-1.549-0.44-2.1c-5.082-4.847-14.52-13.846-19.582-18.644c-0.578-0.544-1.436-0.707-2.184-0.407
			c-0.749,0.298-1.233,1-1.233,1.778v13.226C122.422,65.704,125.9,69.015,130.1,69.015"/>
	</g>
</g>
<g id="Ebene_2">
	<g>
		<defs>
			<rect id="SVGID_3_" x="39.318" y="47.175" width="121.824" height="106.183"/>
		</defs>
		<clipPath id="SVGID_4_">
			<use xlink:href="#SVGID_3_"  overflow="visible"/>
		</clipPath>
		<path clip-path="url(#SVGID_4_)" fill="#21B2E3" d="M76.767,114.891c-3.255-2.968-5.317-7.098-5.469-11.679
			c-0.447-0.031-0.893-0.065-1.351-0.065H57.741c-10.16,0-18.424,7.858-18.424,17.518v14.2l0.038,0.219l1.029,0.306
			c7.773,2.311,14.717,3.373,20.746,3.709v-4.288C61.133,125.407,67.736,117.444,76.767,114.891 M63.846,102.212
			c2.814,0,5.434-0.781,7.653-2.112c0.705-4.376,3.172-8.196,6.693-10.8c0.016-0.255,0.04-0.51,0.04-0.767
			c0-7.559-6.442-13.684-14.386-13.684c-7.948,0-14.388,6.125-14.388,13.684C49.458,96.09,55.898,102.212,63.846,102.212
			 M142.72,89.381h-12.113c-0.132,4.608-2.199,8.76-5.472,11.744c9.028,2.555,15.634,10.516,15.634,19.92v4.376
			c11.959-0.418,18.855-3.64,19.31-3.859l0.96-0.463h0.103v-14.203C161.143,97.239,152.878,89.381,142.72,89.381 M122.24,74.559
			c4.537,2.705,7.718,7.279,8.297,12.594c1.848,0.819,3.901,1.293,6.078,1.293c7.948,0,14.388-6.125,14.388-13.679
			c0-7.559-6.44-13.681-14.388-13.681C128.743,61.083,122.359,67.101,122.24,74.559 M119.001,103.147h-12.115
			c-0.132,4.608-2.201,8.76-5.472,11.744c9.028,2.555,15.634,10.516,15.634,19.92v4.376c11.961-0.418,18.853-3.642,19.307-3.859
			l0.962-0.463h0.103v-14.203C137.42,111.006,129.157,103.147,119.001,103.147 M95.195,117.272H82.988
			c-10.158,0-18.422,7.858-18.422,17.518v14.2l0.036,0.221l1.029,0.304c9.693,2.879,18.115,3.843,25.05,3.843
			c13.536,0,21.388-3.671,21.871-3.906l0.962-0.463h0.101v-14.2C113.614,125.13,105.353,117.272,95.195,117.272 M89.092,116.339
			c7.944,0,14.386-6.125,14.386-13.681c0-7.554-6.442-13.681-14.386-13.681c-7.946,0-14.39,6.127-14.39,13.681
			C74.702,110.214,81.147,116.339,89.092,116.339 M98.519,88.325c4.534,2.705,7.715,7.281,8.297,12.594
			c1.85,0.821,3.904,1.293,6.078,1.293c7.948,0,14.388-6.123,14.388-13.679c0-7.559-6.44-13.684-14.388-13.684
			C105.022,74.85,98.638,80.865,98.519,88.325 M95.875,86.992c0.157-3.232,1.327-6.226,3.21-8.7
			c-1.322-0.264-2.689-0.403-4.089-0.403h-13.25c-1.398,0-2.763,0.139-4.076,0.398c2.004,2.642,3.201,5.87,3.221,9.366
			c2.436-1.275,5.23-2,8.201-2C91.499,85.654,93.795,86.131,95.875,86.992 M72.754,62.025c0-8.201,6.991-14.849,15.616-14.849
			c8.624,0,15.616,6.648,15.616,14.849c0,8.201-6.993,14.851-15.616,14.851C79.744,76.876,72.754,70.226,72.754,62.025"/>
	</g>
</g>
<g id="Ebene_3" display="none">
	<g display="inline">
		<defs>
			<rect id="SVGID_5_" x="5.054" y="3.695" width="188.877" height="191.059"/>
		</defs>
		<clipPath id="SVGID_6_">
			<use xlink:href="#SVGID_5_"  overflow="visible"/>
		</clipPath>
		<path clip-path="url(#SVGID_6_)" fill="#21B2E3" d="M188.743,164.179l-43.333-43.834c-6.459,10.156-14.999,18.797-25.04,25.325
			l43.333,43.838c6.917,6.995,18.134,6.995,25.04,0C195.66,182.521,195.66,171.177,188.743,164.179"/>
		<path clip-path="url(#SVGID_6_)" fill="#21B2E3" d="M75.882,129.077c-29.293,0-53.123-24.103-53.123-53.736
			s23.829-53.736,53.123-53.736s53.123,24.103,53.123,53.736S105.176,129.077,75.882,129.077 M146.711,75.342
			c0-39.565-31.715-71.646-70.829-71.646S5.054,35.776,5.054,75.342c0,39.569,31.715,71.646,70.829,71.646
			S146.711,114.911,146.711,75.342"/>
		<path clip-path="url(#SVGID_6_)" fill="#21B2E3" d="M34.565,75.342h11.803c0-16.461,13.241-29.852,29.513-29.852V33.548
			C53.104,33.548,34.565,52.299,34.565,75.342"/>
	</g>
</g>
<g id="Ebene_4" display="none">
	<g display="inline">
		<defs>
			<rect id="SVGID_7_" x="2.85" y="21.407" width="193.749" height="156.718"/>
		</defs>
		<clipPath id="SVGID_8_">
			<use xlink:href="#SVGID_7_"  overflow="visible"/>
		</clipPath>
		<path clip-path="url(#SVGID_8_)" fill="#21B2E3" d="M74.012,52.34c39.297,0,71.162,24.907,71.162,55.624
			c0,30.721-31.864,55.614-71.162,55.614c-6.934,0-13.632-0.772-19.969-2.216c-8.371,15.561-23.558,19.015-37.142,15.511
			c8.189-7.197,15.251-14.023,20.563-21.197c-20.745-9.713-34.613-27.45-34.613-47.712C2.851,77.247,34.715,52.34,74.012,52.34"/>
		<path clip-path="url(#SVGID_8_)" fill="#21B2E3" d="M125.45,21.407c-24.38,0-45.904,9.588-58.727,24.212
			c31.831-8.762,109.515,26.323,80.193,84.945c8.378,15.564,22.053,18.873,35.645,15.369c-8.189-7.204-15.258-14.027-20.563-21.197
			c20.721-9.72,34.599-27.45,34.599-47.719C196.598,46.306,164.748,21.407,125.45,21.407"/>
	</g>
</g>
<g id="Ebene_5" display="none">
	<g display="inline">
		<defs>
			<rect id="SVGID_9_" x="14.027" y="3.695" width="172.431" height="193.044"/>
		</defs>
		<clipPath id="SVGID_10_">
			<use xlink:href="#SVGID_9_"  overflow="visible"/>
		</clipPath>
		<path clip-path="url(#SVGID_10_)" fill="#21B2E3" d="M167.989,101.416c-5.686,0-10.723,2.52-14.107,6.38L132.23,97.553
			c0.276-1.335,0.442-2.715,0.442-4.136c0-7.224-3.839-13.604-9.663-17.456l13.819-37.192c10.159-0.016,18.434-7.886,18.434-17.533
			c0-9.655-8.292-17.541-18.458-17.541c-10.159,0-18.47,7.878-18.47,17.533c0,6.603,3.933,12.31,9.627,15.297l-13.393,36.024
			c-1.392-0.26-2.829-0.414-4.294-0.414c-11.827,0-21.457,8.815-22.249,19.854l-38.012,8.454
			c-2.358-7.102-9.282-12.318-17.529-12.318c-10.171,0-18.454,7.878-18.454,17.537c0,9.667,8.292,17.537,18.454,17.537
			c8.872,0,16.323-6.011,18.073-13.957l38.743-8.628c3.06,7.975,10.946,13.738,20.313,14.002l2.301,49.267
			c-5.731,2.979-9.692,8.697-9.692,15.333c0,9.647,8.292,17.525,18.466,17.525c10.159,0,18.454-7.878,18.454-17.525
			c0-9.448-7.951-17.139-17.813-17.476l-2.273-48.763c3.876-1.583,7.18-4.192,9.574-7.443l21.263,10.069
			c-0.223,1.076-0.353,2.204-0.353,3.332c0,9.659,8.292,17.537,18.458,17.537s18.462-7.878,18.462-17.537
			C186.46,109.286,178.148,101.416,167.989,101.416"/>
	</g>
</g>
<g id="Ebene_6" display="none">
	<g display="inline">
		<defs>
			<rect id="SVGID_11_" x="3.622" y="16.992" width="192.619" height="165.903"/>
		</defs>
		<clipPath id="SVGID_12_">
			<use xlink:href="#SVGID_11_"  overflow="visible"/>
		</clipPath>
		<path clip-path="url(#SVGID_12_)" fill="#21B2E3" d="M29.858,99.429h61.77v9.731h-61.77V99.429z M87.279,89.812H29.858v-9.737
			h57.421V89.812z M87.279,70.451H29.858v-9.731h57.421V70.451z M29.858,41.366h75.217v9.731H29.858V41.366z M166.658,121.08
			c-3.424-2.834-7.113-5.176-11.024-7.041c9.051-6.303,15.01-16.699,15.01-28.471c0-19.203-15.741-34.833-35.105-34.833
			s-35.116,15.63-35.116,34.833c0,11.786,5.965,22.168,15.01,28.471c-3.896,1.865-7.6,4.207-11.017,7.041H59.636l-0.028,19.837
			L39.009,121.08h-2.783l-18.847,0.393l-0.403-90.851l165.537-0.4l0.397,90.858H166.658z M114.168,85.568
			c0-11.689,9.586-21.202,21.371-21.202c11.775,0,21.361,9.52,21.361,21.202c0,11.679-9.579,21.196-21.361,21.196
			C123.753,106.763,114.168,97.253,114.168,85.568 M94.486,169.264c1.41-13.937,7.065-26.157,15.22-34.55
			c7.1-7.289,16.048-11.696,25.823-11.696c9.772,0,18.737,4.407,25.826,11.696c8.162,8.393,13.817,20.613,15.22,34.55H94.486z
			 M182.895,16.992H16.962c-7.348,0-13.341,5.938-13.341,13.237v91.258c0,7.289,5.986,13.234,13.341,13.234h16.465l20.961,20.178
			l0.672,0.565c2.524,1.859,5.234,2.848,7.858,2.848c5.038,0,10.458-3.738,10.444-11.951v-11.648h19.016
			c-7.469,11.379-11.962,25.737-11.962,41.364v6.817h110.25v-6.817c0-15.627-4.51-29.985-11.972-41.364h4.2
			c7.355,0,13.344-5.938,13.344-13.241V30.229C196.24,22.943,190.257,16.992,182.895,16.992"/>
	</g>
</g>
</svg>
