<?xml version="1.0" encoding="utf-8"?>
<!-- Generator: Adobe Illustrator 17.0.0, SVG Export Plug-In . SVG Version: 6.00 Build 0)  -->
<!DOCTYPE svg PUBLIC "-//W3C//DTD SVG 1.1//EN" "http://www.w3.org/Graphics/SVG/1.1/DTD/svg11.dtd">
<svg version="1.1" xmlns="http://www.w3.org/2000/svg" xmlns:xlink="http://www.w3.org/1999/xlink" x="0px" y="0px" width="552px"
	 height="356.911px" viewBox="0 0 552 356.911" enable-background="new 0 0 552 356.911" xml:space="preserve">
<g id="Ebene_1" display="none">
	<g display="inline">
		<defs>
			<rect id="SVGID_1_" x="-9.069" y="0" width="570.069" height="351.608"/>
		</defs>
		<clipPath id="SVGID_2_">
			<use xlink:href="#SVGID_1_"  overflow="visible"/>
		</clipPath>
		<g clip-path="url(#SVGID_2_)">
			
				<image overflow="visible" width="2038" height="1257" xlink:href="951D6C9166D5D9B0.jpg"  transform="matrix(0.2797 0 0 0.2797 -9.0694 0)">
			</image>
		</g>
	</g>
	<g display="inline">
		<defs>
			<rect id="SVGID_3_" x="10.163" y="45.258" width="205.168" height="205.168"/>
		</defs>
		<clipPath id="SVGID_4_">
			<use xlink:href="#SVGID_3_"  overflow="visible"/>
		</clipPath>
		<g clip-path="url(#SVGID_4_)">
			
				<image overflow="visible" width="680" height="680" xlink:href="951D6C9166D5D9B0.png"  transform="matrix(0.3017 0 0 0.3017 10.1629 45.2577)">
			</image>
		</g>
	</g>
</g>
<g id="Ebene_2">
	<g>
		<defs>
			<rect id="SVGID_5_" x="105.376" y="-246.407" width="568.691" height="507.639"/>
		</defs>
		<clipPath id="SVGID_6_">
			<use xlink:href="#SVGID_5_"  overflow="visible"/>
		</clipPath>
		<path clip-path="url(#SVGID_6_)" fill="#DEF1FC" d="M385.948,17.089l0.552-0.234l-89.749-211.438l-0.553,0.234l0.234,0.553
			c29.128-12.362,57.876-18.211,89.517-18.212v-0.601h-0.601V17.089H385.948l0.552-0.234L385.948,17.089h0.603V-213.21h-0.603
			c-31.789-0.001-60.722,5.886-89.985,18.308l-0.553,0.235l91.141,214.712v-2.956H385.948z"/>
		<path clip-path="url(#SVGID_6_)" fill="#DEF1FC" d="M385.948,17.089l0.424-0.424L223.952-145.756l-0.425,0.425l0.425,0.424
			c22.386-22.382,43.344-36.519,72.48-48.889l-0.234-0.553l-0.552,0.235l89.749,211.437L385.948,17.089l0.424-0.424L385.948,17.089
			l0.552-0.234l-89.985-211.993l-0.552,0.235c-29.25,12.412-50.394,26.675-72.862,49.146l-0.425,0.425L387.712,19.705l-1.212-2.85
			L385.948,17.089z"/>
		<path clip-path="url(#SVGID_6_)" fill="#DEF1FC" d="M385.948,17.089l0.224-0.557L173.201-69.515l-0.225,0.557l0.559,0.225
			c11.851-29.336,28.044-53.8,50.417-76.174l-0.425-0.424l-0.424,0.424l162.422,162.42L385.948,17.089l0.224-0.557L385.948,17.089
			l0.424-0.424L223.525-146.182l-0.423,0.425c-22.478,22.476-38.777,47.099-50.683,76.574l-0.225,0.557l216.27,87.379l-2.092-2.09
			L385.948,17.089z"/>
		<path clip-path="url(#SVGID_6_)" fill="#DEF1FC" d="M385.948,17.089v-0.601H156.249v0.601h0.6
			c0.005-31.655,4.828-56.472,16.685-85.821l-0.559-0.225l-0.224,0.557l212.971,86.045L385.948,17.089v-0.601V17.089l0.224-0.557
			L172.645-69.741l-0.225,0.559c-11.907,29.458-16.774,54.495-16.77,86.271v0.601h233.389l-2.867-1.159L385.948,17.089z"/>
		<path clip-path="url(#SVGID_6_)" fill="#DEF1FC" d="M385.948,17.089l-0.235-0.552l-211.439,89.749l0.234,0.553l0.555-0.235
			c-12.361-29.125-18.211-57.875-18.213-89.515h-0.6v0.601h229.699V17.089l-0.235-0.552L385.948,17.089v-0.601H155.649v0.601
			c-0.001,31.789,5.886,60.723,18.306,89.985l0.234,0.553L388.9,16.487h-2.952V17.089z"/>
		<path clip-path="url(#SVGID_6_)" fill="#DEF1FC" d="M385.948,17.089l-0.424-0.424L223.102,179.085l0.424,0.425l0.425-0.425
			c-22.381-22.387-36.518-43.343-48.889-72.481l-0.555,0.235l0.237,0.552l211.438-89.749L385.948,17.089l-0.424-0.424
			L385.948,17.089l-0.235-0.552L173.72,106.521l0.235,0.552c12.414,29.251,26.675,50.394,49.146,72.862l0.423,0.425L388.56,15.326
			l-2.847,1.21L385.948,17.089z"/>
		<path clip-path="url(#SVGID_6_)" fill="#DEF1FC" d="M385.948,17.089l-0.557-0.225l-86.047,212.974l0.557,0.225l0.225-0.557
			c-29.335-11.855-53.8-28.047-76.174-50.42l-0.425,0.425l0.425,0.424L386.372,17.513L385.948,17.089l-0.557-0.225L385.948,17.089
			l-0.424-0.424L222.677,179.511l0.425,0.424c22.479,22.478,47.101,38.777,76.573,50.684l0.559,0.225l87.38-216.27l-2.09,2.091
			L385.948,17.089z"/>
		<path clip-path="url(#SVGID_6_)" fill="#DEF1FC" d="M385.948,17.089h-0.601v229.699h0.601v-0.601
			c-31.654-0.004-56.472-4.827-85.822-16.681l-0.225,0.557l0.556,0.225l86.047-212.974L385.948,17.089h-0.601H385.948l-0.557-0.225
			l-86.272,213.531l0.556,0.224c29.462,11.904,54.498,16.773,86.274,16.769h0.603V13.997l-1.16,2.867L385.948,17.089z"/>
		<path clip-path="url(#SVGID_6_)" fill="#DEF1FC" d="M385.948,17.089l-0.553,0.234l89.751,211.439l0.553-0.234l-0.235-0.553
			c-29.128,12.361-57.875,18.211-89.515,18.212v0.601h0.603V17.089H385.948l-0.553,0.234L385.948,17.089h-0.601v230.299h0.601
			c31.789,0.001,60.723-5.887,89.985-18.308l0.553-0.233L385.347,14.14v2.948H385.948z"/>
		<path clip-path="url(#SVGID_6_)" fill="#DEF1FC" d="M385.948,17.089l-0.424,0.424l162.421,162.422l0.425-0.424l-0.425-0.425
			c-22.386,22.381-43.344,36.517-72.481,48.889l0.235,0.553l0.552-0.235L386.5,16.855L385.948,17.089l-0.424,0.424L385.948,17.089
			l-0.553,0.234l89.985,211.993l0.553-0.235c29.25-12.412,50.394-26.675,72.863-49.145l0.425-0.424L384.191,14.483l1.204,2.84
			L385.948,17.089z"/>
		<path clip-path="url(#SVGID_6_)" fill="#DEF1FC" d="M385.948,17.089l-0.225,0.556l212.972,86.046l0.225-0.556l-0.557-0.225
			c-11.852,29.336-28.044,53.8-50.417,76.176l0.425,0.425l0.425-0.425L386.372,16.664L385.948,17.089l-0.225,0.556L385.948,17.089
			l-0.424,0.424L548.369,180.36l0.427-0.425c22.476-22.478,38.775-47.101,50.68-76.575l0.225-0.557L383.438,15.427l2.086,2.086
			L385.948,17.089z"/>
		<path clip-path="url(#SVGID_6_)" fill="#DEF1FC" d="M385.948,17.089v0.601h229.698v-0.601h-0.6
			c-0.003,31.653-4.828,56.472-16.683,85.821l0.557,0.225l0.225-0.557L386.172,16.531L385.948,17.089v0.601V17.089l-0.225,0.556
			l213.529,86.272l0.224-0.557c11.907-29.459,16.774-54.496,16.771-86.271v-0.601H382.86l2.863,1.157L385.948,17.089z"/>
		<path clip-path="url(#SVGID_6_)" fill="#DEF1FC" d="M385.948,17.089l0.234,0.553l211.439-89.751l-0.234-0.553l-0.553,0.235
			c12.361,29.127,18.211,57.873,18.212,89.515h0.6v-0.601H385.948V17.089l0.234,0.553L385.948,17.089v0.601h230.299v-0.601
			c0.001-31.789-5.886-60.725-18.308-89.985l-0.234-0.555L382.996,17.69h2.952V17.089z"/>
		<path clip-path="url(#SVGID_6_)" fill="#DEF1FC" d="M385.948,17.089l0.424,0.424l162.423-162.42l-0.425-0.424l-0.425,0.424
			c22.381,22.386,36.518,43.342,48.889,72.48l0.553-0.235l-0.235-0.553L385.713,16.536L385.948,17.089l0.424,0.424L385.948,17.089
			l0.234,0.553l211.993-89.986l-0.235-0.552c-12.414-29.251-26.675-50.394-49.144-72.86l-0.427-0.425L383.338,18.85l2.845-1.208
			L385.948,17.089z"/>
		<path clip-path="url(#SVGID_6_)" fill="#DEF1FC" d="M385.948,17.089l0.556,0.225l86.048-212.973l-0.559-0.225l-0.224,0.557
			c29.335,11.854,53.799,28.047,76.174,50.42l0.425-0.424l-0.425-0.425L385.524,16.664L385.948,17.089l0.556,0.225L385.948,17.089
			l0.424,0.424l162.849-162.844l-0.425-0.425c-22.48-22.48-47.102-38.777-76.575-50.685l-0.557-0.224l-87.38,216.268l2.09-2.09
			L385.948,17.089z"/>
		<path clip-path="url(#SVGID_6_)" fill="#DEF1FC" d="M385.948,17.089h0.603v-229.698h-0.603v0.601
			c31.655,0.004,56.472,4.826,85.822,16.681l0.224-0.557l-0.556-0.225L385.391,16.864L385.948,17.089h0.603H385.948l0.556,0.225
			l86.273-213.53l-0.557-0.225c-29.46-11.904-54.496-16.771-86.272-16.769h-0.601V20.18l1.157-2.867L385.948,17.089z"/>
		<path clip-path="url(#SVGID_6_)" fill="#21B2E3" d="M410.239-207.48c0,1.509-0.931,2.732-2.082,2.732h-47.099
			c-1.15,0-2.082-1.223-2.082-2.732v-14.96c0-1.509,0.932-2.732,2.082-2.732h47.099c1.151,0,2.082,1.223,2.082,2.732V-207.48z"/>
		<path clip-path="url(#SVGID_6_)" fill="#21B2E3" d="M526.884-187.755c0,1.509-1.512,2.732-3.379,2.732h-76.447
			c-1.865,0-3.376-1.223-3.376-2.732v-14.96c0-1.509,1.512-2.732,3.376-2.732h76.447c1.867,0,3.379,1.223,3.379,2.732V-187.755z"/>
		<path clip-path="url(#SVGID_6_)" fill="#21B2E3" d="M592.065-140.296c0,1.509-1.186,2.732-2.652,2.732h-59.979
			c-1.464,0-2.649-1.223-2.649-2.732v-14.96c0-1.509,1.186-2.732,2.649-2.732h59.979c1.466,0,2.652,1.223,2.652,2.732V-140.296z"/>
		<path clip-path="url(#SVGID_6_)" fill="#21B2E3" d="M657.547-65.002c0,1.509-1.801,2.731-4.025,2.731h-91.073
			c-2.223,0-4.024-1.222-4.024-2.731v-14.96c0-1.509,1.801-2.734,4.024-2.734h91.073c2.224,0,4.025,1.225,4.025,2.734V-65.002z"/>
		<path clip-path="url(#SVGID_6_)" fill="#21B2E3" d="M674.067,21.905c0,1.51-1.403,2.732-3.136,2.732h-70.926
			c-1.731,0-3.134-1.222-3.134-2.732V6.945c0-1.509,1.403-2.732,3.134-2.732h70.926c1.733,0,3.136,1.223,3.136,2.732V21.905z"/>
		<path clip-path="url(#SVGID_6_)" fill="#21B2E3" d="M667.157,109.913c0,1.51-1.528,2.734-3.415,2.734h-77.275
			c-1.885,0-3.415-1.223-3.415-2.734v-14.96c0-1.509,1.53-2.732,3.415-2.732h77.275c1.887,0,3.415,1.223,3.415,2.732V109.913z"/>
		<path clip-path="url(#SVGID_6_)" fill="#21B2E3" d="M339.351-187.856c0,1.51-1.428,2.732-3.189,2.732H264.04
			c-1.76,0-3.186-1.222-3.186-2.732v-14.96c0-1.509,1.426-2.732,3.186-2.732h72.122c1.761,0,3.189,1.223,3.189,2.732V-187.856z"/>
		<path clip-path="url(#SVGID_6_)" fill="#21B2E3" d="M276.173-137.594c0,1.51-1.791,2.732-4.001,2.732H181.65
			c-2.21,0-4-1.222-4-2.732v-14.96c0-1.509,1.79-2.732,4-2.732h90.521c2.21,0,4.001,1.223,4.001,2.732V-137.594z"/>
		<path clip-path="url(#SVGID_6_)" fill="#21B2E3" d="M202.882-60.999c0,1.512-1.152,2.734-2.573,2.734h-58.233
			c-1.421,0-2.572-1.222-2.572-2.734v-14.96c0-1.509,1.151-2.732,2.572-2.732h58.233c1.421,0,2.573,1.223,2.573,2.732V-60.999z"/>
		<path clip-path="url(#SVGID_6_)" fill="#21B2E3" d="M199.982,24.023c0,1.509-1.441,2.731-3.22,2.731h-72.859
			c-1.779,0-3.22-1.222-3.22-2.731V9.063c0-1.509,1.44-2.734,3.22-2.734h72.859c1.779,0,3.22,1.225,3.22,2.734V24.023z"/>
		<path clip-path="url(#SVGID_6_)" fill="#21B2E3" d="M199.132,113.583c0,1.512-0.996,2.734-2.225,2.734h-50.367
			c-1.23,0-2.225-1.222-2.225-2.734v-14.96c0-1.509,0.996-2.732,2.225-2.732h50.367c1.23,0,2.225,1.223,2.225,2.732V113.583z"/>
	</g>
	<text transform="matrix(1 0 0 1 188.4717 -153.2664)" fill="#FFFFFF" font-family="'MyriadPro-Regular'" font-size="9.4217">LEITEN</text>
	<text transform="matrix(1 0 0 1 216.6612 -153.2664)" fill="#FFFFFF" font-family="'MyriadPro-Regular'" font-size="9.4217">D</text>
	<text transform="matrix(1 0 0 1 448.9817 -191.2624)" fill="#FFFFFF" font-family="'MyriadPro-Regular'" font-size="10.8134">ÜBERZEUGEND</text>
	<text transform="matrix(1 0 0 1 532.0823 -143.8015)" fill="#FFFFFF" font-family="'MyriadPro-Regular'" font-size="10.8134">SOUVERÄ</text>
	<text transform="matrix(1 0 0 1 578.4397 -143.8015)" fill="#FFFFFF" font-family="'MyriadPro-Regular'" font-size="10.8134">N</text>
	<text transform="matrix(1 0 0 1 563.7219 -68.5076)" fill="#FFFFFF" font-family="'MyriadPro-Regular'" font-size="10.8134">KO</text>
	<text transform="matrix(1 0 0 1 577.6829 -68.5076)" fill="#FFFFFF" font-family="'MyriadPro-Regular'" font-size="10.8134">NT</text>
	<text transform="matrix(1 0 0 1 590.3665 -68.5076)" fill="#FFFFFF" font-family="'MyriadPro-Regular'" font-size="10.8134">AKTFREUDI</text>
	<text transform="matrix(1 0 0 1 644.4124 -68.5076)" fill="#FFFFFF" font-family="'MyriadPro-Regular'" font-size="10.8134">G</text>
	<text transform="matrix(1 0 0 1 602.1643 18.3997)" fill="#FFFFFF" font-family="'MyriadPro-Regular'" font-size="10.8134">VE</text>
	<text transform="matrix(1 0 0 1 614.1018 18.3997)" fill="#FFFFFF" font-family="'MyriadPro-Regular'" font-size="10.8134">RT</text>
	<text transform="matrix(1 0 0 1 625.8879 18.3997)" fill="#FFFFFF" font-family="'MyriadPro-Regular'" font-size="10.8134">RÄ</text>
	<text transform="matrix(1 0 0 1 639.2532 18.3997)" fill="#FFFFFF" font-family="'MyriadPro-Regular'" font-size="10.8134">GLICH</text>
	<text transform="matrix(1 0 0 1 588.345 106.4109)" fill="#FFFFFF" font-family="'MyriadPro-Regular'" font-size="10.8134">BEOBA</text>
	<text transform="matrix(1 0 0 1 621.0344 106.4109)" fill="#FFFFFF" font-family="'MyriadPro-Regular'" font-size="10.8134">CHTEND</text>
	<g>
		<defs>
			<rect id="SVGID_7_" x="104.376" y="-246.407" width="568.691" height="507.639"/>
		</defs>
		<clipPath id="SVGID_8_">
			<use xlink:href="#SVGID_7_"  overflow="visible"/>
		</clipPath>
		<path clip-path="url(#SVGID_8_)" fill="#21B2E3" d="M550,233.767c0,1.51-2.066,2.734-4.618,2.734H440.924
			c-2.549,0-4.615-1.223-4.615-2.734v-14.96c0-1.509,2.066-2.732,4.615-2.732h104.458c2.551,0,4.618,1.223,4.618,2.732V233.767z"/>
	</g>
	<text transform="matrix(1 0 0 1 443.8792 230.2625)" fill="#FFFFFF" font-family="'Seravek'" font-size="10.8134">LÖ</text>
	<text transform="matrix(1 0 0 1 456.7259 230.2625)" fill="#FFFFFF" font-family="'Seravek'" font-size="10.8134">SUNGSORIENTIE</text>
	<text transform="matrix(1 0 0 1 531.2258 230.2625)" fill="#FFFFFF" font-family="'Seravek'" font-size="10.8134">RT</text>
	<g>
		<defs>
			<rect id="SVGID_9_" x="105.376" y="-246.407" width="568.691" height="507.639"/>
		</defs>
		<clipPath id="SVGID_10_">
			<use xlink:href="#SVGID_9_"  overflow="visible"/>
		</clipPath>
		<path clip-path="url(#SVGID_10_)" fill="#21B2E3" d="M426.057,258.498c0,1.51-1.43,2.734-3.197,2.734h-72.306
			c-1.765,0-3.195-1.223-3.195-2.734v-14.96c0-1.509,1.43-2.732,3.195-2.732h72.306c1.766,0,3.197,1.223,3.197,2.732V258.498z"/>
	</g>
	<text transform="matrix(1 0 0 1 354.6624 254.9929)" fill="#FFFFFF" font-family="'Seravek'" font-size="10.8134">SELBSTSICHE</text>
	<text transform="matrix(1 0 0 1 413.7698 254.9929)" fill="#FFFFFF" font-family="'Seravek'" font-size="10.8134">R</text>
	<g>
		<defs>
			<rect id="SVGID_11_" x="105.376" y="-246.407" width="568.691" height="507.639"/>
		</defs>
		<clipPath id="SVGID_12_">
			<use xlink:href="#SVGID_11_"  overflow="visible"/>
		</clipPath>
		<path clip-path="url(#SVGID_12_)" fill="#21B2E3" d="M338.078,236.876c0,1.51-1.419,2.734-3.172,2.734h-71.753
			c-1.751,0-3.172-1.223-3.172-2.734v-14.96c0-1.509,1.421-2.732,3.172-2.732h71.753c1.753,0,3.172,1.223,3.172,2.732V236.876z"/>
	</g>
	<text transform="matrix(1 0 0 1 265.2835 233.3699)" fill="#FFFFFF" font-family="'Seravek'" font-size="10.8134">ZUVER</text>
	<text transform="matrix(1 0 0 1 296.6634 233.3699)" fill="#FFFFFF" font-family="'Seravek'" font-size="10.8134">LÄ</text>
	<text transform="matrix(1 0 0 1 309.2405 233.3699)" fill="#FFFFFF" font-family="'Seravek'" font-size="10.8134">SSIG</text>
	<g>
		<defs>
			<rect id="SVGID_13_" x="105.376" y="-246.407" width="568.691" height="507.639"/>
		</defs>
		<clipPath id="SVGID_14_">
			<use xlink:href="#SVGID_13_"  overflow="visible"/>
		</clipPath>
		<path clip-path="url(#SVGID_14_)" fill="#21B2E3" d="M246.546,187.046c0,1.51-0.945,2.734-2.114,2.734h-47.836
			c-1.166,0-2.113-1.223-2.113-2.734v-14.96c0-1.509,0.947-2.732,2.113-2.732h47.836c1.169,0,2.114,1.223,2.114,2.732V187.046z"/>
	</g>
	<text transform="matrix(1 0 0 1 199.7854 183.5418)" fill="#FFFFFF" font-family="'Seravek'" font-size="10.8134">KRE</text>
	<text transform="matrix(1 0 0 1 217.9397 183.5418)" fill="#FFFFFF" font-family="'Seravek'" font-size="10.8134">AT</text>
	<text transform="matrix(1 0 0 1 230.2679 183.5418)" fill="#FFFFFF" font-family="'Seravek'" font-size="10.8134">IV</text>
	<text transform="matrix(1 0 0 1 266.1575 -191.3826)" fill="#FFFFFF" font-family="'MyriadPro-Regular'" font-size="10.8134">AU</text>
	<text transform="matrix(1 0 0 1 280.4954 -191.3826)" fill="#FFFFFF" font-family="'MyriadPro-Regular'" font-size="10.8134">SD</text>
	<text transform="matrix(1 0 0 1 292.9104 -191.3826)" fill="#FFFFFF" font-family="'MyriadPro-Regular'" font-size="10.8134">AU</text>
	<text transform="matrix(1 0 0 1 307.2376 -191.3826)" fill="#FFFFFF" font-family="'MyriadPro-Regular'" font-size="10.8134">ERND</text>
	<text transform="matrix(1 0 0 1 182.9485 -141.0993)" fill="#FFFFFF" font-family="'MyriadPro-Regular'" font-size="10.8134">WETTBEWERBEND</text>
	<text transform="matrix(1 0 0 1 144.7981 -64.5076)" fill="#FFFFFF" font-family="'MyriadPro-Regular'" font-size="10.8134">EHRGEIZIG</text>
	<text transform="matrix(1 0 0 1 125.9827 20.5081)" fill="#FFFFFF" font-family="'Seravek'" font-size="10.8134">UNABHÄNGI</text>
	<text transform="matrix(1 0 0 1 182.9593 20.5081)" fill="#FFFFFF" font-family="'MyriadPro-Regular'" font-size="10.8134">G</text>
	<text transform="matrix(1 0 0 1 149.6214 110.075)" fill="#FFFFFF" font-family="'Seravek'" font-size="10.8134">FLEXIBEL</text>
	<polygon fill="#DEF1FC" points="453.586,-151.924 386.55,-138.753 386.55,13.995 	"/>
	<rect x="420.068" y="-158.439" fill="#DEF1FC" width="0.001" height="178.949"/>
	<polygon fill="#DEF1FC" points="453.749,-149.12 387.612,14.575 387.613,14.572 446.128,-43.941 	"/>
	<path fill="#DEF1FC" d="M387.612,14.575v0.001V14.575z M387.612,14.574v0.001l0.001-0.003L387.612,14.574z"/>
	
		<rect x="375.493" y="-14.684" transform="matrix(0.7071 -0.7071 0.7071 0.7071 132.4803 290.4708)" fill="#DEF1FC" width="82.752" height="0.003"/>
	<path fill="#DEF1FC" d="M385.348-138.703l-64.385,1.156l64.385,151.683V-138.703z M319.891-136.995l-10.969,76.208l75.265,75.264
		l-61.775-145.532L319.891-136.995z M309.041-58.968l7.509,47.37l66.882,27.022L309.041-58.968z M316.281-10.409l-73.247,26.896
		h139.816L316.281-10.409z M382.995,17.69H239.76l-0.041,0.014L235.024,80.5L382.995,17.69z M383.338,18.85L235.476,81.612
		l50.081,35.017L383.338,18.85z M384.286,19.601l-97.558,97.557l60.54-5.934L384.286,19.601z M386.55,20.044v198.331l47.646-86.082
		L386.55,20.044z M385.348,20.18l-37.132,91.906l37.132,105.207V20.18z"/>
	<path fill="#DEF1FC" d="M385.347-138.703L385.347-138.703V14.136l-64.385-151.683l64.385,151.683V-138.703z M319.891-136.994
		L319.891-136.994l2.522,5.94L319.891-136.994z"/>
	<path fill="#DEF1FC" d="M320.962-137.546l-0.994,0.018l-0.076,0.534l2.522,5.94l61.775,145.532l1.16,1.16v-1.497v-0.004
		L320.962-137.546z M309.041-58.968L309.041-58.968l74.391,74.391l0.001,0.001L309.041-58.968z"/>
	<path fill="#DEF1FC" d="M308.923-60.787l-0.081,0.56l0.2,1.259l74.393,74.393l1.395,0.562l-0.639-1.505l1.157,1.157v-0.001
		l-1.161-1.161L308.923-60.787z M316.284-10.41h-0.003l66.569,26.898h0.005L316.284-10.41z"/>
	<polygon fill="#DEF1FC" points="316.55,-11.598 316.713,-10.568 316.284,-10.41 382.857,16.488 382.86,16.488 384.498,16.488 
		383.439,15.427 384.829,15.989 383.434,15.425 383.433,15.423 	"/>
	<polygon fill="#DEF1FC" points="382.86,16.488 382.856,16.488 382.851,16.488 243.033,16.488 239.761,17.689 382.995,17.689 
		235.024,80.5 384.38,17.102 	"/>
	<polygon fill="#DEF1FC" points="384.38,17.102 235.024,80.5 234.967,81.257 235.476,81.612 383.337,18.85 384.499,17.69 
		382.996,17.69 	"/>
	<path fill="#DEF1FC" d="M384.847,18.209l-1.509,0.641l-97.781,97.779l0.808,0.564l0.362-0.035L384.286,19.6l-0.003,0.001
		L384.847,18.209z M385.348,20.177l-37.134,91.909h0.001l37.132-91.905V20.177z"/>
	<polygon fill="#DEF1FC" points="385.348,18.539 384.286,19.6 347.267,111.223 347.889,111.163 348.214,112.085 385.348,20.177 
		385.348,20.18 385.348,217.293 	"/>
	<path fill="#DEF1FC" d="M385.348,217.293l0.702,1.986l0.5-0.904V20.044l-0.59-1.385l-0.613,1.522v-1.642V217.293z M385.348,15.639
		v0.001v-1.5V15.639z"/>
	<path fill="#DEF1FC" d="M528.951-42.598l-0.878,0.01L388.904,16.488H560.54L528.951-42.598z M524.906-42.549l-78.948,0.956
		l0.037-0.515l-57.436,57.435L524.906-42.549z M561.044,17.689H389.04l151.82,61.339L561.044,17.689z M388.461,18.751l70.372,70.372
		l80.59-9.379L388.461,18.751z M387.71,19.702l47.226,111.256l22.815-41.217l-70.039-70.039v0.003"/>
	<rect x="387.709" y="19.7" fill="#DEF1FC" width="0.004" height="0.003"/>
	<path fill="#DEF1FC" d="M384.191,14.483l0.637,1.505l0.519,0.209V15.64L384.191,14.483z M386.166,18.155l-0.204,0.503l0.59,1.386
		l47.646,112.249l0.738-1.336L387.71,19.702v-0.003l0.003,0.003l70.039,70.039L386.166,18.155z"/>
	<path fill="#DEF1FC" d="M383.438,15.427l1.06,1.06h0.85v-0.29l-0.52-0.209L383.438,15.427z M386.28,17.87l-0.115,0.284
		l71.585,71.585l0.29-0.524l0.793-0.092l-70.372-70.374L386.28,17.87z"/>
	<path fill="#DEF1FC" d="M385.348,16.488h-0.85h-1.638l1.519,0.613l0.969-0.41V16.488z M561.045,17.689H386.354l-0.074,0.181
		l2.18,0.881l150.964,60.994l1.248-0.146l0.188-0.57l-151.82-61.339H561.045z"/>
	<path fill="#DEF1FC" d="M528.072-42.587L528.072-42.587l-141.66,60.132l-0.058,0.144h174.691l0.053-0.159l-0.557-1.042H388.904
		L528.072-42.587z M385.348,16.691l-0.969,0.411l-1.382,0.587h1.501l0.85-0.85V16.691z"/>
	<path fill="#DEF1FC" d="M528.072-42.586l-3.165,0.039L388.56,15.327l57.436-57.435l-59.538,59.536l-0.047,0.116L528.072-42.586z
		 M385.348,16.84l-0.85,0.85l-1.16,1.16l1.509-0.64l0.5-1.239V16.84z"/>
	<path fill="#DEF1FC" d="M453.749-149.12L386.505,17.314l-0.047,0.114l59.538-59.536l0.132-1.831l-58.517,58.516v-0.001
		l66.139-163.695V-149.12z M385.348,16.97l-0.5,1.239l-0.564,1.393l0.003-0.001l1.062-1.062V16.97z"/>
	<polygon fill="#DEF1FC" points="453.958,-151.997 453.587,-151.924 386.551,13.998 386.551,13.994 386.551,-138.752 
		386.393,-138.722 385.347,-138.702 385.347,14.137 385.347,14.14 385.347,15.639 385.347,16.198 385.347,16.487 385.347,16.69 
		385.347,16.84 385.347,16.97 385.347,18.538 385.347,20.18 385.961,18.659 386.166,18.155 386.281,17.87 386.353,17.689 
		386.411,17.545 386.459,17.427 386.504,17.314 453.749,-149.121 	"/>
	<polygon fill="#7FBEE6" points="454.125,-153.255 386.551,-139.976 386.551,-138.752 453.586,-151.924 	"/>
	<polygon fill="#72BAE5" points="453.586,-151.924 453.587,-151.924 454.125,-153.255 	"/>
	<polygon fill="#7FBEE6" points="455.217,-152.752 453.75,-149.119 446.127,-43.941 447.428,-45.241 	"/>
	<polygon fill="#72BAE5" points="447.427,-45.24 446.128,-43.942 446.128,-43.94 	"/>
	<path fill="#7FBEE6" d="M385.348-139.905l-64.892,1.166l0.507,1.194l64.385-1.157V-139.905z M319.16-138.716l-0.237,0.004
		l-11.062,76.865l1.062,1.06l10.968-76.208L319.16-138.716z M307.648-60.362l-0.022,0.144l7.625,48.095l1.3,0.526l-7.509-47.371
		L307.648-60.362z M314.623-11.079l-75.074,27.567h3.486l73.247-26.898L314.623-11.079z M239.761,17.69h-1.248l-4.734,63.338
		l1.245-0.528l4.694-62.795L239.761,17.69z M235.475,81.612l-1.306,0.555l50.526,35.325l0.861-0.862L235.475,81.612z
		 M347.267,111.224l-60.538,5.935l-1.033,1.032l0.345,0.242l60.72-5.952L347.267,111.224z M348.216,112.086l-0.681,1.684
		l37.814,107.137v-3.614L348.216,112.086z M434.197,132.293l-47.646,86.082v2.479l48.243-87.157L434.197,132.293z"/>
	<path fill="#72BAE5" d="M320.456-138.739L320.456-138.739l0.507,1.194L320.456-138.739z M319.16-138.716L319.16-138.716
		l0.731,1.721L319.16-138.716z"/>
	<path fill="#72BAE5" d="M320.455-138.74l-1.296,0.025l0.732,1.721l0.078-0.534l0.993-0.018L320.455-138.74z M307.647-60.362
		L307.647-60.362l1.394,1.394L307.647-60.362z"/>
	<path fill="#72BAE5" d="M307.861-61.847l-0.213,1.486l1.394,1.394l-0.199-1.259l0.08-0.56L307.861-61.847z M314.625-11.081
		l-0.003,0.001l1.659,0.67h0.003L314.625-11.081z"/>
	<polygon fill="#72BAE5" points="315.252,-12.124 315.373,-11.356 314.624,-11.08 316.285,-10.409 316.714,-10.568 316.55,-11.599 	
		"/>
	<path fill="#72BAE5" d="M243.035,16.488h-3.486l-0.971,0.356l-0.065,0.846h1.248L243.035,16.488z M235.024,80.5l-1.245,0.528
		L235.024,80.5z"/>
	<polygon fill="#72BAE5" points="235.024,80.5 233.779,81.028 233.717,81.85 233.997,82.047 234.343,81.554 233.997,82.047 
		234.169,82.167 235.475,81.612 234.967,81.257 	"/>
	<path fill="#72BAE5" d="M348.213,112.085l-0.679,1.684v0.001l0.68-1.684L348.213,112.085z M285.557,116.629l-0.861,0.862l1,0.7
		l1.033-1.033l-0.363,0.036L285.557,116.629z"/>
	<polygon fill="#72BAE5" points="347.889,111.163 347.267,111.223 346.759,112.48 347.069,112.449 347.535,113.768 348.214,112.085 
			"/>
	<polygon fill="#72BAE5" points="385.348,220.907 385.805,222.201 386.551,220.854 386.551,218.375 386.05,219.279 385.348,217.293 
			"/>
	<path fill="#7FBEE6" d="M527.819-43.785l-80.567,0.976l0.041-0.599l-1.297,1.3l-0.038,0.515l78.947-0.954L527.819-43.785z
		 M529.903-43.364l-1.831,0.777l0.878-0.012l31.59,59.086h1.362L529.903-43.364z M562.309,17.689h-1.265L540.86,79.028l1.116,0.451
		L562.309,17.689z M539.423,79.745l-80.589,9.38l1.084,1.084l81.656-9.504l0.026-0.08L539.423,79.745z M457.75,89.74l-22.814,41.218
		l0.596,1.404l23.101-41.738L457.75,89.74z"/>
	<polygon fill="#72BAE5" points="434.936,130.958 434.196,132.294 434.793,133.698 435.532,132.362 	"/>
	<polygon fill="#72BAE5" points="458.833,89.124 458.04,89.216 457.75,89.74 458.634,90.624 458.792,90.34 459.917,90.208 	"/>
	<polygon fill="#72BAE5" points="540.86,79.029 540.672,79.599 539.423,79.744 541.599,80.623 541.976,79.479 	"/>
	<path fill="#72BAE5" d="M529.904-43.364l-1.831,0.777L529.904-43.364z M561.902,16.488h-1.362l0.556,1.042l-0.052,0.159h1.265
		l0.091-0.272L561.902,16.488z"/>
	<path fill="#72BAE5" d="M529.666-43.807l-1.848,0.022l-2.912,1.236l3.167-0.039l1.83-0.776L529.666-43.807z M447.294-43.407
		l-1.297,1.3L447.294-43.407z"/>
	<path fill="#72BAE5" d="M455.217-152.752l-1.468,3.632l1.468-3.631V-152.752z M447.427-45.24l-1.3,1.3l-0.132,1.832l1.297-1.3
		L447.427-45.24z"/>
	<path fill="#72BAE5" d="M455.27-153.48l-1.146,0.225l-0.537,1.331l0.37-0.072l-0.208,2.877l1.468-3.632L455.27-153.48z
		 M386.55-139.977l-0.283,0.056l-0.919,0.016v1.203l1.045-0.019l0.158-0.03V-139.977z"/>
	<g>
		<defs>
			<rect id="SVGID_15_" x="105.376" y="-246.407" width="568.691" height="507.639"/>
		</defs>
		<clipPath id="SVGID_16_">
			<use xlink:href="#SVGID_15_"  overflow="visible"/>
		</clipPath>
		<path clip-path="url(#SVGID_16_)" fill="#21B2E3" d="M318.246-60.222c0,5.529-4.482,10.012-10.012,10.012
			c-5.531,0-10.012-4.483-10.012-10.012c0-5.531,4.482-10.014,10.012-10.014C313.764-70.236,318.246-65.753,318.246-60.222"/>
		<path clip-path="url(#SVGID_16_)" fill="#21B2E3" d="M326.056-10.961c0,5.529-4.482,10.012-10.012,10.012
			s-10.012-4.483-10.012-10.012c0-5.531,4.482-10.014,10.012-10.014S326.056-16.492,326.056-10.961"/>
		<path clip-path="url(#SVGID_16_)" fill="#21B2E3" d="M249.16,17.274c0,5.529-4.482,10.012-10.012,10.012
			s-10.012-4.483-10.012-10.012c0-5.531,4.482-10.014,10.012-10.014S249.16,11.743,249.16,17.274"/>
		<path clip-path="url(#SVGID_16_)" fill="#21B2E3" d="M244.354,81.554c0,5.529-4.482,10.012-10.012,10.012
			s-10.014-4.483-10.014-10.012c0-5.531,4.483-10.014,10.014-10.014S244.354,76.023,244.354,81.554"/>
		<path clip-path="url(#SVGID_16_)" fill="#21B2E3" d="M329.459-138.12c0,5.531-4.482,10.012-10.012,10.012
			c-5.531,0-10.012-4.482-10.012-10.012c0-5.529,4.482-10.012,10.012-10.012C324.978-148.132,329.459-143.649,329.459-138.12"/>
		<path clip-path="url(#SVGID_16_)" fill="#21B2E3" d="M396.343-139.321c0,5.529-4.482,10.012-10.012,10.012
			c-5.531,0-10.012-4.483-10.012-10.012c0-5.531,4.482-10.012,10.012-10.012C391.861-149.334,396.343-144.852,396.343-139.321"/>
		<path clip-path="url(#SVGID_16_)" fill="#21B2E3" d="M464.627-152.738c0,5.529-4.482,10.012-10.012,10.012
			s-10.012-4.483-10.012-10.012c0-5.531,4.482-10.012,10.012-10.012S464.627-158.269,464.627-152.738"/>
		<path clip-path="url(#SVGID_16_)" fill="#21B2E3" d="M456.618-42.201c0,5.531-4.482,10.012-10.012,10.012
			s-10.012-4.482-10.012-10.012c0-5.529,4.482-10.012,10.012-10.012S456.618-47.73,456.618-42.201"/>
		<path clip-path="url(#SVGID_16_)" fill="#21B2E3" d="M539.32-43.202c0,5.531-4.482,10.014-10.012,10.014
			c-5.531,0-10.012-4.483-10.012-10.014c0-5.529,4.482-10.014,10.012-10.014C534.838-53.216,539.32-48.731,539.32-43.202"/>
		<path clip-path="url(#SVGID_16_)" fill="#21B2E3" d="M571.76,17.473c0,5.529-4.482,10.014-10.012,10.014
			s-10.012-4.484-10.012-10.014c0-5.529,4.482-10.014,10.012-10.014S571.76,11.944,571.76,17.473"/>
		<path clip-path="url(#SVGID_16_)" fill="#21B2E3" d="M551.335,80.352c0,5.531-4.482,10.014-10.012,10.014
			c-5.531,0-10.012-4.483-10.012-10.014c0-5.531,4.482-10.014,10.012-10.014C546.854,70.339,551.335,74.822,551.335,80.352"/>
		<path clip-path="url(#SVGID_16_)" fill="#21B2E3" d="M468.834,91.166c0,5.531-4.482,10.014-10.012,10.014
			c-5.531,0-10.014-4.483-10.014-10.014c0-5.531,4.483-10.014,10.014-10.014C464.352,81.152,468.834,85.635,468.834,91.166"/>
		<path clip-path="url(#SVGID_16_)" fill="#21B2E3" d="M444.804,132.818c0,5.531-4.482,10.014-10.012,10.014
			c-5.531,0-10.012-4.483-10.012-10.014c0-5.531,4.482-10.014,10.012-10.014C440.322,122.804,444.804,127.287,444.804,132.818"/>
		<path clip-path="url(#SVGID_16_)" fill="#21B2E3" d="M396.343,220.927c0,5.531-4.482,10.014-10.012,10.014
			c-5.531,0-10.012-4.483-10.012-10.014c0-5.529,4.482-10.014,10.012-10.014C391.861,210.913,396.343,215.398,396.343,220.927"/>
		<path clip-path="url(#SVGID_16_)" fill="#21B2E3" d="M356.694,112.392c0,5.531-4.482,10.014-10.012,10.014
			c-5.531,0-10.014-4.483-10.014-10.014c0-5.531,4.483-10.014,10.014-10.014C352.212,102.379,356.694,106.862,356.694,112.392"/>
		<path clip-path="url(#SVGID_16_)" fill="#21B2E3" d="M295.819,118c0,5.529-4.482,10.014-10.012,10.014
			c-5.531,0-10.012-4.484-10.012-10.014c0-5.531,4.482-10.014,10.012-10.014C291.337,107.986,295.819,112.469,295.819,118"/>
	</g>
	<g>
		<defs>
			<rect id="SVGID_17_" x="116.309" y="-246.407" width="568.691" height="507.639"/>
		</defs>
		<clipPath id="SVGID_18_">
			<use xlink:href="#SVGID_17_"  overflow="visible"/>
		</clipPath>
	</g>
	<text transform="matrix(1 0 0 1 177.8955 -155.7713)" fill="#21B2E3" font-family="'MyriadPro-Regular'" font-size="11.2667">-</text>
</g>
</svg>
