<?xml version="1.0" encoding="utf-8"?>
<!-- Generator: Adobe Illustrator 17.0.0, SVG Export Plug-In . SVG Version: 6.00 Build 0)  -->
<!DOCTYPE svg PUBLIC "-//W3C//DTD SVG 1.1//EN" "http://www.w3.org/Graphics/SVG/1.1/DTD/svg11.dtd">
<svg version="1.1" id="Ebene_1" xmlns="http://www.w3.org/2000/svg" xmlns:xlink="http://www.w3.org/1999/xlink" x="0px" y="0px"
	 width="482.61px" height="290px" viewBox="0 0 482.61 290" enable-background="new 0 0 482.61 290" xml:space="preserve">
<text transform="matrix(1 0 0 1 54.5645 51.8408)"><tspan x="0" y="0" fill="#21B2E3" font-family="'Helvetica'" font-size="19">G</tspan><tspan x="14.874" y="0" fill="#21B2E3" font-family="'Helvetica'" font-size="19">emeinsam mit dem inn</tspan><tspan x="205.997" y="0" fill="#21B2E3" font-family="'Helvetica'" font-size="19">o</tspan><tspan x="216.43" y="0" fill="#21B2E3" font-family="'Helvetica'" font-size="19">v</tspan><tspan x="225.874" y="0" fill="#21B2E3" font-family="'Helvetica'" font-size="19">a</tspan><tspan x="236.364" y="0" fill="#21B2E3" font-family="'Helvetica'" font-size="19">ti</tspan><tspan x="245.864" y="0" fill="#21B2E3" font-family="'Helvetica'" font-size="19">v</tspan><tspan x="255.174" y="0" fill="#21B2E3" font-family="'Helvetica'" font-size="19">en </tspan></text>
<text transform="matrix(1 0 0 1 54.5645 76.9541)"><tspan x="0" y="0" fill="#21B2E3" font-family="'Helvetica'" font-size="19">Partneru</tspan><tspan x="72.874" y="0" fill="#21B2E3" font-family="'Helvetica'" font-size="19">n</tspan><tspan x="83.364" y="0" fill="#21B2E3" font-family="'Helvetica'" font-size="19">t</tspan><tspan x="88.548" y="0" fill="#21B2E3" font-family="'Helvetica'" font-size="19">e</tspan><tspan x="99.115" y="0" fill="#21B2E3" font-family="'Helvetica'" font-size="19">r</tspan><tspan x="105.5" y="0" fill="#21B2E3" font-family="'Helvetica'" font-size="19">nehmen </tspan><tspan x="179.44" y="0" fill="#21B2E3" font-family="'Helvetica'" font-size="19">P</tspan><tspan x="191.809" y="0" fill="#21B2E3" font-family="'Helvetica'" font-size="19">r</tspan><tspan x="197.965" y="0" fill="#21B2E3" font-family="'Helvetica'" font-size="19">esc</tspan><tspan x="227.532" y="0" fill="#21B2E3" font-family="'Helvetica'" font-size="19">r</tspan><tspan x="233.688" y="0" fill="#21B2E3" font-family="'Helvetica'" font-size="19">een, </tspan><tspan x="275.946" y="0" fill="#21B2E3" font-family="'Helvetica'" font-size="19">w</tspan><tspan x="289.477" y="0" fill="#21B2E3" font-family="'Helvetica'" font-size="19">elches </tspan></text>
<text transform="matrix(1 0 0 1 54.5645 102.0688)"><tspan x="0" y="0" fill="#21B2E3" font-family="'Helvetica'" font-size="19">ein i</tspan><tspan x="34.855" y="0" fill="#21B2E3" font-family="'Helvetica'" font-size="19">n</tspan><tspan x="45.346" y="0" fill="#21B2E3" font-family="'Helvetica'" font-size="19">t</tspan><tspan x="50.53" y="0" fill="#21B2E3" font-family="'Helvetica'" font-size="19">ellige</tspan><tspan x="94.894" y="0" fill="#21B2E3" font-family="'Helvetica'" font-size="19">n</tspan><tspan x="105.385" y="0" fill="#21B2E3" font-family="'Helvetica'" font-size="19">t</tspan><tspan x="110.55" y="0" fill="#21B2E3" font-family="'Helvetica'" font-size="19">es und cloud-basie</tspan><tspan x="270.045" y="0" fill="#21B2E3" font-family="'Helvetica'" font-size="19">r</tspan><tspan x="276.81" y="0" fill="#21B2E3" font-family="'Helvetica'" font-size="19">t</tspan><tspan x="281.994" y="0" fill="#21B2E3" font-family="'Helvetica'" font-size="19">es </tspan></text>
<text transform="matrix(1 0 0 1 54.5645 127.1816)"><tspan x="0" y="0" fill="#21B2E3" font-family="'Helvetica'" font-size="19">M</tspan><tspan x="15.941" y="0" fill="#21B2E3" font-family="'Helvetica'" font-size="19">a</tspan><tspan x="26.451" y="0" fill="#21B2E3" font-family="'Helvetica'" font-size="19">t</tspan><tspan x="31.616" y="0" fill="#21B2E3" font-family="'Helvetica'" font-size="19">ching-</tspan><tspan x="83.365" y="0" fill="#21B2E3" font-family="'Helvetica'" font-size="19">S</tspan><tspan x="95.886" y="0" fill="#21B2E3" font-family="'Helvetica'" font-size="19">y</tspan><tspan x="105.386" y="0" fill="#21B2E3" font-family="'Helvetica'" font-size="19">t</tspan><tspan x="110.569" y="0" fill="#21B2E3" font-family="'Helvetica'" font-size="19">em in den letz</tspan><tspan x="228.856" y="0" fill="#21B2E3" font-family="'Helvetica'" font-size="19">t</tspan><tspan x="234.02" y="0" fill="#21B2E3" font-family="'Helvetica'" font-size="19">en Jah</tspan><tspan x="291.067" y="0" fill="#21B2E3" font-family="'Helvetica'" font-size="19">r</tspan><tspan x="297.204" y="0" fill="#21B2E3" font-family="'Helvetica'" font-size="19">en </tspan></text>
<text transform="matrix(1 0 0 1 54.5645 152.2949)"><tspan x="0" y="0" fill="#21B2E3" font-family="'Helvetica'" font-size="19">etablie</tspan><tspan x="55.989" y="0" fill="#21B2E3" font-family="'Helvetica'" font-size="19">r</tspan><tspan x="62.753" y="0" fill="#21B2E3" font-family="'Helvetica'" font-size="19">t h</tspan><tspan x="83.877" y="0" fill="#21B2E3" font-family="'Helvetica'" font-size="19">a</tspan><tspan x="94.368" y="0" fill="#21B2E3" font-family="'Helvetica'" font-size="19">t</tspan><tspan x="99.609" y="0" fill="#21B2E3" font-family="'Helvetica'" font-size="19">, kon</tspan><tspan x="140.8" y="0" fill="#21B2E3" font-family="'Helvetica'" font-size="19">n</tspan><tspan x="151.292" y="0" fill="#21B2E3" font-family="'Helvetica'" font-size="19">t</tspan><tspan x="156.456" y="0" fill="#21B2E3" font-family="'Helvetica'" font-size="19">e CSR </tspan><tspan x="217.696" y="0" fill="#21B2E3" font-family="'Helvetica'" font-size="19">M</tspan><tspan x="233.352" y="0" fill="#21B2E3" font-family="'Helvetica'" font-size="19" letter-spacing="-1">A</tspan><tspan x="244.581" y="0" fill="#21B2E3" font-family="'Helvetica'" font-size="19">T</tspan><tspan x="255.674" y="0" fill="#21B2E3" font-family="'Helvetica'" font-size="19">CH als</tspan></text>
<text transform="matrix(1 0 0 1 54.5645 177.4092)"><tspan x="0" y="0" fill="#21B2E3" font-family="'Helvetica'" font-size="19">erst</tspan><tspan x="31.293" y="0" fill="#21B2E3" font-family="'Helvetica'" font-size="19">e </tspan><tspan x="47.139" y="0" fill="#21B2E3" font-family="'Helvetica'" font-size="19">P</tspan><tspan x="59.735" y="0" fill="#21B2E3" font-family="'Helvetica'" font-size="19">l</tspan><tspan x="63.957" y="0" fill="#21B2E3" font-family="'Helvetica'" font-size="19">a</tspan><tspan x="74.447" y="0" fill="#21B2E3" font-family="'Helvetica'" font-size="19">tt</tspan><tspan x="85.005" y="0" fill="#21B2E3" font-family="'Helvetica'" font-size="19">f</tspan><tspan x="90.056" y="0" fill="#21B2E3" font-family="'Helvetica'" font-size="19">o</tspan><tspan x="100.623" y="0" fill="#21B2E3" font-family="'Helvetica'" font-size="19">r</tspan><tspan x="107.007" y="0" fill="#21B2E3" font-family="'Helvetica'" font-size="19">m </tspan><tspan x="128.113" y="0" fill="#21B2E3" font-family="'Helvetica'" font-size="19">r</tspan><tspan x="134.269" y="0" fill="#21B2E3" font-family="'Helvetica'" font-size="19">ealisie</tspan><tspan x="188.133" y="0" fill="#21B2E3" font-family="'Helvetica'" font-size="19">r</tspan><tspan x="194.271" y="0" fill="#21B2E3" font-family="'Helvetica'" font-size="19">en, die es </tspan></text>
<text transform="matrix(1 0 0 1 54.5645 202.5215)"><tspan x="0" y="0" fill="#21B2E3" font-family="'MyriadPro-Regular'" font-size="19">Unternehmen möglich mac</tspan><tspan x="217.833" y="0" fill="#21B2E3" font-family="'MyriadPro-Regular'" font-size="19">h</tspan><tspan x="228.301" y="0" fill="#21B2E3" font-family="'MyriadPro-Regular'" font-size="19">t</tspan><tspan x="234.552" y="0" fill="#21B2E3" font-family="'MyriadPro-Regular'" font-size="19">, das  </tspan></text>
<text transform="matrix(1 0 0 1 54.5645 227.6348)"><tspan x="0" y="0" fill="#21B2E3" font-family="'MyriadPro-Regular'" font-size="19">K</tspan><tspan x="10.488" y="0" fill="#21B2E3" font-family="'MyriadPro-Regular'" font-size="19">n</tspan><tspan x="21.033" y="0" fill="#21B2E3" font-family="'MyriadPro-Regular'" font-size="19">o</tspan><tspan x="31.35" y="0" fill="#21B2E3" font-family="'MyriadPro-Regular'" font-size="19">w</tspan><tspan x="45.276" y="0" fill="#21B2E3" font-family="'MyriadPro-Regular'" font-size="19">-H</tspan><tspan x="63.497" y="0" fill="#21B2E3" font-family="'MyriadPro-Regular'" font-size="19">o</tspan><tspan x="73.795" y="0" fill="#21B2E3" font-family="'MyriadPro-Regular'" font-size="19">w ih</tspan><tspan x="106.797" y="0" fill="#21B2E3" font-family="'MyriadPro-Regular'" font-size="19">r</tspan><tspan x="112.82" y="0" fill="#21B2E3" font-family="'MyriadPro-Regular'" font-size="19">er </tspan><tspan x="132.58" y="0" fill="#21B2E3" font-family="'MyriadPro-Regular'" font-size="19">M</tspan><tspan x="148.084" y="0" fill="#21B2E3" font-family="'MyriadPro-Regular'" font-size="19">ita</tspan><tspan x="167.977" y="0" fill="#21B2E3" font-family="'MyriadPro-Regular'" font-size="19">r</tspan><tspan x="174.247" y="0" fill="#21B2E3" font-family="'MyriadPro-Regular'" font-size="19">bei</tspan><tspan x="199.022" y="0" fill="#21B2E3" font-family="'MyriadPro-Regular'" font-size="19">t</tspan><tspan x="205.197" y="0" fill="#21B2E3" font-family="'MyriadPro-Regular'" font-size="19">enden mit einem  </tspan></text>
<text transform="matrix(1 0 0 1 54.5645 252.7471)"><tspan x="0" y="0" fill="#21B2E3" font-family="'Helvetica'" font-size="19">passenden CSR-</tspan><tspan x="144.689" y="0" fill="#21B2E3" font-family="'Helvetica'" font-size="19">P</tspan><tspan x="157.077" y="0" fill="#21B2E3" font-family="'Helvetica'" font-size="19">r</tspan><tspan x="163.214" y="0" fill="#21B2E3" font-family="'Helvetica'" font-size="19">ojekt zu </tspan><tspan x="233.973" y="0" fill="#21B2E3" font-family="'Helvetica'" font-size="19">v</tspan><tspan x="243.283" y="0" fill="#21B2E3" font-family="'Helvetica'" font-size="19">e</tspan><tspan x="253.85" y="0" fill="#21B2E3" font-family="'Helvetica'" font-size="19">r</tspan><tspan x="260.252" y="0" fill="#21B2E3" font-family="'Helvetica'" font-size="19">k</tspan><tspan x="270.076" y="0" fill="#21B2E3" font-family="'Helvetica'" font-size="19">nüp</tspan><tspan x="301.777" y="0" fill="#21B2E3" font-family="'Helvetica'" font-size="19">f</tspan><tspan x="306.828" y="0" fill="#21B2E3" font-family="'Helvetica'" font-size="19">en. </tspan></text>
<g>
	<defs>
		<rect id="SVGID_1_" x="0" width="447.734" height="322"/>
	</defs>
	<clipPath id="SVGID_2_">
		<use xlink:href="#SVGID_1_"  overflow="visible"/>
	</clipPath>
	<polygon clip-path="url(#SVGID_2_)" fill="none" stroke="#21B2E3" stroke-width="5" points="442.502,5.232 442.502,283.827 
		24.686,283.827 24.686,91.044 6.458,65.119 24.918,40.344 25.477,5.232 	"/>
</g>
</svg>
