<?xml version="1.0" encoding="utf-8"?>
<!-- Generator: Adobe Illustrator 17.0.0, SVG Export Plug-In . SVG Version: 6.00 Build 0)  -->
<!DOCTYPE svg PUBLIC "-//W3C//DTD SVG 1.1//EN" "http://www.w3.org/Graphics/SVG/1.1/DTD/svg11.dtd">
<svg version="1.1" id="Ebene_1" xmlns="http://www.w3.org/2000/svg" xmlns:xlink="http://www.w3.org/1999/xlink" x="0px" y="0px"
	 width="624.5px" height="465.94px" viewBox="0 0 624.5 465.94" enable-background="new 0 0 624.5 465.94" xml:space="preserve">
<text transform="matrix(1 0 0 1 44.9106 17.0964)" fill="#21B2E3" font-family="'Helvetica'" font-size="20.2976">K</text>
<text transform="matrix(1 0 0 1 58.7736 17.0964)" fill="#21B2E3" font-family="'Helvetica'" font-size="20.2976">andid</text>
<text transform="matrix(1 0 0 1 108.4376 17.0964)" fill="#21B2E3" font-family="'Helvetica'" font-size="20.2976">a</text>
<text transform="matrix(1 0 0 1 119.6646 17.0964)" fill="#21B2E3" font-family="'Helvetica'" font-size="20.2976">t</text>
<text transform="matrix(1 0 0 1 49.7076 280.2052)" fill="#21B2E3" font-family="'Helvetica-Bold'" font-size="16.0922">P</text>
<text transform="matrix(1 0 0 1 60.0386 280.2052)" fill="#21B2E3" font-family="'Helvetica-Bold'" font-size="16.0922">ersönlichkeit</text>
<text transform="matrix(1 0 0 1 57.2233 302.59)" fill="#21B2E3" font-family="'Helvetica'" font-size="16.0922">A</text>
<text transform="matrix(1 0 0 1 67.8763 302.59)" fill="#21B2E3" font-family="'Helvetica'" font-size="16.0922">ssessme</text>
<text transform="matrix(1 0 0 1 131.3653 302.59)" fill="#21B2E3" font-family="'Helvetica'" font-size="16.0922">n</text>
<text transform="matrix(1 0 0 1 140.2503 302.59)" fill="#21B2E3" font-family="'Helvetica'" font-size="16.0922">t</text>
<text transform="matrix(1 0 0 1 47.1979 347.341)" fill="#21B2E3" font-family="'Helvetica-Bold'" font-size="16.0922">W</text>
<text transform="matrix(1 0 0 1 61.8559 347.341)" fill="#21B2E3" font-family="'Helvetica-Bold'" font-size="16.0922">e</text>
<text transform="matrix(1 0 0 1 70.8049 347.341)" fill="#21B2E3" font-family="'Helvetica-Bold'" font-size="16.0922">r</text>
<text transform="matrix(1 0 0 1 77.4379 347.341)" fill="#21B2E3" font-family="'Helvetica-Bold'" font-size="16.0922">t</text>
<text transform="matrix(1 0 0 1 82.7159 347.341)" fill="#21B2E3" font-family="'Helvetica-Bold'" font-size="16.0922">e / </text>
<text transform="matrix(1 0 0 1 105.0779 347.341)" fill="#21B2E3" font-family="'Helvetica-Bold'" font-size="16.0922">M</text>
<text transform="matrix(1 0 0 1 118.5639 347.341)" fill="#21B2E3" font-family="'Helvetica-Bold'" font-size="16.0922">oti</text>
<text transform="matrix(1 0 0 1 138.2229 347.341)" fill="#21B2E3" font-family="'Helvetica-Bold'" font-size="16.0922">v</text>
<text transform="matrix(1 0 0 1 147.0279 347.341)" fill="#21B2E3" font-family="'Helvetica-Bold'" font-size="16.0922">e</text>
<text transform="matrix(1 0 0 1 57.2233 369.7248)" fill="#21B2E3" font-family="'Helvetica'" font-size="16.0922">A</text>
<text transform="matrix(1 0 0 1 67.8763 369.7248)" fill="#21B2E3" font-family="'Helvetica'" font-size="16.0922">ssessme</text>
<text transform="matrix(1 0 0 1 131.3653 369.7248)" fill="#21B2E3" font-family="'Helvetica'" font-size="16.0922">n</text>
<text transform="matrix(1 0 0 1 140.2503 369.7248)" fill="#21B2E3" font-family="'Helvetica'" font-size="16.0922">t</text>
<text transform="matrix(1 0 0 1 63.1598 414.4777)" fill="#21B2E3" font-family="'Helvetica-Bold'" font-size="16.0922">E</text>
<text transform="matrix(1 0 0 1 73.8928 414.4777)" fill="#21B2E3" font-family="'Helvetica-Bold'" font-size="16.0922">r</text>
<text transform="matrix(1 0 0 1 80.6388 414.4777)" fill="#21B2E3" font-family="'Helvetica-Bold'" font-size="16.0922">fahrung</text>
<text transform="matrix(1 0 0 1 0.0299 436.8615)" fill="#21B2E3" font-family="'Helvetica'" font-size="16.0922">D</text>
<text transform="matrix(1 0 0 1 11.6509 436.8615)" fill="#21B2E3" font-family="'Helvetica'" font-size="16.0922">a</text>
<text transform="matrix(1 0 0 1 20.5359 436.8615)" fill="#21B2E3" font-family="'Helvetica'" font-size="16.0922">t</text>
<text transform="matrix(1 0 0 1 24.9269 436.8615)" fill="#21B2E3" font-family="'Helvetica'" font-size="16.0922">enupload </text>
<text transform="matrix(1 0 0 1 95.6209 436.8615)" fill="#21B2E3" font-family="'Helvetica'" font-size="16.0922">v</text>
<text transform="matrix(1 0 0 1 103.5059 436.8615)" fill="#21B2E3" font-family="'Helvetica'" font-size="16.0922">on </text>
<text transform="matrix(1 0 0 1 125.8759 436.8615)" fill="#21B2E3" font-family="'Helvetica'" font-size="16.0922">L</text>
<text transform="matrix(1 0 0 1 134.6169 436.8615)" fill="#21B2E3" font-family="'Helvetica'" font-size="16.0922">ebenslauf</text>
<path fill="#21B2E3" d="M6.838,458.425l3.522-4.584c0.338-0.418,0.659-0.788,1.013-1.206v-0.032H7.159v-1.142h5.935l-0.016,0.885
	l-3.474,4.519c-0.322,0.434-0.643,0.82-0.997,1.222v0.032h4.552v1.126H6.838C6.838,459.245,6.838,458.425,6.838,458.425z
	 M21.123,457.122c0,0.804,0.016,1.512,0.064,2.123h-1.254l-0.08-1.271h-0.032c-0.37,0.627-1.19,1.448-2.573,1.448
	c-1.222,0-2.686-0.676-2.686-3.41v-4.552h1.415v4.31c0,1.48,0.45,2.477,1.737,2.477c0.949,0,1.608-0.659,1.866-1.287
	c0.08-0.209,0.129-0.466,0.129-0.724v-4.777h1.415v5.663H21.123z M23.283,457.797c0.418,0.273,1.158,0.563,1.866,0.563
	c1.029,0,1.512-0.515,1.512-1.158c0-0.675-0.402-1.045-1.447-1.431c-1.399-0.499-2.059-1.271-2.059-2.203
	c0-1.254,1.013-2.284,2.686-2.284c0.788,0,1.48,0.225,1.914,0.482l-0.354,1.029c-0.306-0.193-0.868-0.45-1.592-0.45
	c-0.836,0-1.303,0.483-1.303,1.061c0,0.643,0.466,0.933,1.48,1.319c1.351,0.515,2.043,1.19,2.043,2.348
	c0,1.367-1.062,2.332-2.911,2.332c-0.852,0-1.64-0.209-2.187-0.531L23.283,457.797z M34.159,459.245l-0.113-0.981h-0.048
	c-0.434,0.611-1.271,1.158-2.38,1.158c-1.576,0-2.38-1.11-2.38-2.236c0-1.882,1.673-2.911,4.68-2.895v-0.161
	c0-0.643-0.177-1.801-1.769-1.801c-0.724,0-1.48,0.225-2.026,0.579l-0.322-0.933c0.643-0.418,1.576-0.692,2.557-0.692
	c2.38,0,2.959,1.624,2.959,3.185v2.911c0,0.675,0.032,1.335,0.129,1.866H34.159z M30.251,449.257c0-0.45,0.37-0.82,0.82-0.82
	s0.788,0.354,0.788,0.82c0,0.434-0.322,0.82-0.788,0.82C30.589,450.077,30.251,449.691,30.251,449.257z M33.95,455.272
	c-1.544-0.032-3.297,0.241-3.297,1.753c0,0.917,0.611,1.351,1.335,1.351c1.013,0,1.657-0.643,1.882-1.303
	c0.048-0.145,0.08-0.306,0.08-0.45C33.95,456.623,33.95,455.272,33.95,455.272z M33.242,449.257c0-0.45,0.354-0.82,0.804-0.82
	s0.788,0.354,0.788,0.82c0,0.434-0.322,0.82-0.788,0.82C33.564,450.077,33.242,449.691,33.242,449.257z M39.246,449.225v2.236h2.027
	v1.078h-2.027v4.198c0,0.965,0.273,1.512,1.062,1.512c0.37,0,0.643-0.048,0.82-0.096l0.064,1.062
	c-0.273,0.113-0.708,0.193-1.254,0.193c-0.659,0-1.19-0.209-1.528-0.595c-0.402-0.418-0.547-1.11-0.547-2.026v-4.246h-1.206v-1.078
	h1.206v-1.866L39.246,449.225z M41.983,458.425l3.522-4.584c0.338-0.418,0.659-0.788,1.013-1.206v-0.032h-4.214v-1.142h5.935
	l-0.016,0.885l-3.474,4.519c-0.322,0.434-0.643,0.82-0.997,1.222v0.032h4.552v1.126h-6.321
	C41.983,459.245,41.983,458.425,41.983,458.425z M49.754,447.826h1.415v11.419h-1.415V447.826z M55.128,449.273
	c0.016,0.483-0.338,0.868-0.901,0.868c-0.499,0-0.852-0.386-0.852-0.868c0-0.499,0.37-0.885,0.885-0.885
	C54.791,448.389,55.128,448.775,55.128,449.273z M53.552,459.245v-7.784h1.415v7.784H53.552z M62.866,458.955
	c-0.37,0.193-1.19,0.45-2.236,0.45c-2.348,0-3.876-1.592-3.876-3.973c0-2.396,1.641-4.133,4.182-4.133
	c0.836,0,1.576,0.209,1.962,0.402l-0.322,1.094c-0.338-0.193-0.868-0.37-1.64-0.37c-1.785,0-2.75,1.319-2.75,2.943
	c0,1.801,1.158,2.911,2.702,2.911c0.804,0,1.335-0.209,1.737-0.386L62.866,458.955z M64.527,447.826h1.415v4.857h0.032
	c0.225-0.402,0.579-0.756,1.013-0.997c0.418-0.241,0.917-0.402,1.447-0.402c1.045,0,2.718,0.643,2.718,3.329v4.632h-1.415v-4.471
	c0-1.254-0.466-2.316-1.801-2.316c-0.917,0-1.64,0.643-1.898,1.415c-0.08,0.193-0.096,0.402-0.096,0.675v4.696h-1.415V447.826z
	 M74.246,455.61c0.032,1.914,1.255,2.702,2.67,2.702c1.013,0,1.624-0.177,2.155-0.402l0.241,1.013
	c-0.499,0.225-1.351,0.482-2.589,0.482c-2.396,0-3.828-1.576-3.828-3.924c0-2.348,1.383-4.198,3.651-4.198
	c2.541,0,3.217,2.236,3.217,3.667c0,0.289-0.032,0.515-0.048,0.659L74.246,455.61L74.246,455.61z M78.395,454.597
	c0.016-0.901-0.37-2.3-1.962-2.3c-1.431,0-2.059,1.319-2.171,2.3H78.395z M93.922,460.837c-1.464-0.386-2.895-0.82-4.149-1.254
	c-0.225-0.08-0.45-0.161-0.659-0.161c-2.573-0.096-4.777-1.994-4.777-5.484c0-3.474,2.123-5.71,5.05-5.71
	c2.943,0,4.857,2.284,4.857,5.484c0,2.782-1.287,4.568-3.088,5.195v0.064c1.078,0.273,2.252,0.531,3.168,0.692L93.922,460.837z
	 M92.764,453.777c0-2.171-1.126-4.407-3.426-4.407c-2.364,0-3.522,2.187-3.506,4.535c-0.016,2.3,1.254,4.375,3.442,4.375
	C91.51,458.28,92.764,456.253,92.764,453.777z M102.58,457.122c0,0.804,0.016,1.512,0.064,2.123h-1.255l-0.08-1.271h-0.032
	c-0.37,0.627-1.19,1.448-2.573,1.448c-1.222,0-2.686-0.676-2.686-3.41v-4.552h1.415v4.31c0,1.48,0.45,2.477,1.737,2.477
	c0.949,0,1.608-0.659,1.866-1.287c0.08-0.209,0.129-0.466,0.129-0.724v-4.777h1.415L102.58,457.122L102.58,457.122z
	 M109.243,459.245l-0.113-0.981h-0.048c-0.434,0.611-1.271,1.158-2.38,1.158c-1.576,0-2.38-1.11-2.38-2.236
	c0-1.882,1.673-2.911,4.68-2.895v-0.161c0-0.643-0.177-1.801-1.769-1.801c-0.724,0-1.48,0.225-2.027,0.579l-0.322-0.933
	c0.643-0.418,1.576-0.692,2.557-0.692c2.38,0,2.959,1.624,2.959,3.185v2.911c0,0.675,0.032,1.335,0.129,1.866H109.243z
	 M109.034,455.272c-1.544-0.032-3.297,0.241-3.297,1.753c0,0.917,0.611,1.351,1.335,1.351c1.013,0,1.657-0.643,1.882-1.303
	c0.048-0.145,0.08-0.306,0.08-0.45L109.034,455.272L109.034,455.272z M112.689,447.826h1.415v11.419h-1.415V447.826z
	 M118.063,449.273c0.016,0.483-0.338,0.868-0.901,0.868c-0.499,0-0.852-0.386-0.852-0.868c0-0.499,0.37-0.885,0.885-0.885
	C117.725,448.389,118.063,448.775,118.063,449.273z M116.487,459.245v-7.784h1.415v7.784H116.487z M120.397,459.245v-6.707h-1.094
	v-1.078h1.094v-0.418c0-2.059,1.206-3.394,3.394-3.394c0.724,0,1.576,0.225,1.978,0.515l-0.402,1.078
	c-0.338-0.241-0.949-0.45-1.641-0.45c-1.496,0-1.93,1.045-1.93,2.284v0.386h4.519v7.784h-1.399v-6.707h-3.12v6.707H120.397z
	 M130.067,455.031h0.032c0.193-0.273,0.466-0.611,0.692-0.885l2.284-2.686h1.705l-3.008,3.201l3.426,4.584h-1.721l-2.686-3.731
	l-0.724,0.804v2.927h-1.399v-11.419h1.399V455.031z M140.815,459.245l-0.113-0.981h-0.048c-0.434,0.611-1.271,1.158-2.38,1.158
	c-1.576,0-2.38-1.11-2.38-2.236c0-1.882,1.673-2.911,4.68-2.895v-0.161c0-0.643-0.177-1.801-1.769-1.801
	c-0.724,0-1.48,0.225-2.026,0.579l-0.322-0.933c0.643-0.418,1.576-0.692,2.557-0.692c2.38,0,2.959,1.624,2.959,3.185v2.911
	c0,0.675,0.032,1.335,0.129,1.866H140.815z M140.606,455.272c-1.544-0.032-3.297,0.241-3.297,1.753c0,0.917,0.611,1.351,1.335,1.351
	c1.013,0,1.657-0.643,1.882-1.303c0.048-0.145,0.08-0.306,0.08-0.45L140.606,455.272L140.606,455.272z M145.902,449.225v2.236h2.027
	v1.078h-2.027v4.198c0,0.965,0.273,1.512,1.061,1.512c0.37,0,0.643-0.048,0.82-0.096l0.064,1.062
	c-0.273,0.113-0.708,0.193-1.255,0.193c-0.659,0-1.19-0.209-1.528-0.595c-0.402-0.418-0.547-1.11-0.547-2.026v-4.246h-1.206v-1.078
	h1.206v-1.866L145.902,449.225z M151.1,449.273c0.016,0.483-0.338,0.868-0.901,0.868c-0.499,0-0.852-0.386-0.852-0.868
	c0-0.499,0.37-0.885,0.885-0.885C150.762,448.389,151.1,448.775,151.1,449.273z M149.523,459.245v-7.784h1.415v7.784H149.523z
	 M160.333,455.288c0,2.879-1.994,4.133-3.876,4.133c-2.107,0-3.731-1.544-3.731-4.005c0-2.605,1.705-4.133,3.86-4.133
	C158.821,451.284,160.333,452.908,160.333,455.288z M154.157,455.369c0,1.705,0.981,2.992,2.364,2.992
	c1.351,0,2.364-1.271,2.364-3.024c0-1.319-0.659-2.991-2.332-2.991C154.881,452.345,154.157,453.889,154.157,455.369z
	 M162.123,453.568c0-0.804-0.016-1.464-0.064-2.107h1.255l0.08,1.287h0.032c0.386-0.74,1.287-1.464,2.573-1.464
	c1.078,0,2.75,0.643,2.75,3.313v4.648h-1.415v-4.487c0-1.255-0.466-2.3-1.801-2.3c-0.933,0-1.657,0.659-1.898,1.448
	c-0.064,0.177-0.097,0.418-0.097,0.659v4.68h-1.415L162.123,453.568L162.123,453.568z M171.842,455.61
	c0.032,1.914,1.255,2.702,2.67,2.702c1.013,0,1.624-0.177,2.155-0.402l0.241,1.013c-0.499,0.225-1.351,0.482-2.589,0.482
	c-2.396,0-3.828-1.576-3.828-3.924c0-2.348,1.383-4.198,3.651-4.198c2.541,0,3.217,2.236,3.217,3.667
	c0,0.289-0.032,0.515-0.048,0.659L171.842,455.61L171.842,455.61z M175.992,454.597c0.016-0.901-0.37-2.3-1.962-2.3
	c-1.431,0-2.059,1.319-2.171,2.3H175.992z M179.117,453.568c0-0.804-0.016-1.464-0.064-2.107h1.255l0.08,1.287h0.032
	c0.386-0.74,1.287-1.464,2.573-1.464c1.078,0,2.75,0.643,2.75,3.313v4.648h-1.415v-4.487c0-1.255-0.466-2.3-1.801-2.3
	c-0.933,0-1.657,0.659-1.898,1.448c-0.064,0.177-0.097,0.418-0.097,0.659v4.68h-1.415L179.117,453.568L179.117,453.568z"/>
<text transform="matrix(1 0 0 1 421.5161 17.0964)" fill="#21B2E3" font-family="'Helvetica'" font-size="20.2976">CSR-</text>
<text transform="matrix(1 0 0 1 471.1301 17.0964)" fill="#21B2E3" font-family="'Helvetica'" font-size="20.2976">P</text>
<text transform="matrix(1 0 0 1 484.3431 17.0964)" fill="#21B2E3" font-family="'Helvetica'" font-size="20.2976">r</text>
<text transform="matrix(1 0 0 1 490.9201 17.0964)" fill="#21B2E3" font-family="'Helvetica'" font-size="20.2976">ojek</text>
<text transform="matrix(1 0 0 1 528.1561 17.0964)" fill="#21B2E3" font-family="'Helvetica'" font-size="20.2976">t</text>
<text transform="matrix(1 0 0 1 533.6731 17.0964)" fill="#21B2E3" font-family="'Helvetica'" font-size="20.2976">e</text>
<text transform="matrix(1 0 0 1 418.2466 280.2052)" fill="#21B2E3" font-family="'Helvetica'" font-size="16.0922">P</text>
<text transform="matrix(1 0 0 1 428.7226 280.2052)" fill="#21B2E3" font-family="'Helvetica'" font-size="16.0922">r</text>
<text transform="matrix(1 0 0 1 433.9206 280.2052)" fill="#21B2E3" font-family="'Helvetica'" font-size="16.0922">ojektaussch</text>
<text transform="matrix(1 0 0 1 518.8986 280.2052)" fill="#21B2E3" font-family="'Helvetica'" font-size="16.0922">r</text>
<text transform="matrix(1 0 0 1 524.0976 280.2052)" fill="#21B2E3" font-family="'Helvetica'" font-size="16.0922">eibung</text>
<text transform="matrix(1 0 0 1 371.8871 302.59)" fill="#21B2E3" font-family="'Helvetica'" font-size="16.0922">T</text>
<text transform="matrix(1 0 0 1 380.6872 302.59)" fill="#21B2E3" font-family="'Helvetica'" font-size="16.0922">ä</text>
<text transform="matrix(1 0 0 1 389.5882 302.59)" fill="#21B2E3" font-family="'Helvetica'" font-size="16.0922">tigkeitsbe</text>
<text transform="matrix(1 0 0 1 457.5722 302.59)" fill="#21B2E3" font-family="'Helvetica'" font-size="16.0922">r</text>
<text transform="matrix(1 0 0 1 462.7692 302.59)" fill="#21B2E3" font-family="'Helvetica'" font-size="16.0922">eich / Engageme</text>
<text transform="matrix(1 0 0 1 583.5392 302.59)" fill="#21B2E3" font-family="'Helvetica'" font-size="16.0922">n</text>
<text transform="matrix(1 0 0 1 592.4242 302.59)" fill="#21B2E3" font-family="'Helvetica'" font-size="16.0922">t</text>
<text transform="matrix(1 0 0 1 596.8952 302.59)" fill="#21B2E3" font-family="'Helvetica'" font-size="16.0922">f</text>
<text transform="matrix(1 0 0 1 601.1732 302.59)" fill="#21B2E3" font-family="'Helvetica'" font-size="16.0922">eld</text>
<text transform="matrix(1 0 0 1 410.9399 347.341)" fill="#21B2E3" font-family="'Helvetica'" font-size="16.0922">Cha</text>
<text transform="matrix(1 0 0 1 440.4609 347.341)" fill="#21B2E3" font-family="'Helvetica'" font-size="16.0922">r</text>
<text transform="matrix(1 0 0 1 445.7549 347.341)" fill="#21B2E3" font-family="'Helvetica'" font-size="16.0922">ak</text>
<text transform="matrix(1 0 0 1 462.7509 347.341)" fill="#21B2E3" font-family="'Helvetica'" font-size="16.0922">t</text>
<text transform="matrix(1 0 0 1 467.1259 347.341)" fill="#21B2E3" font-family="'Helvetica'" font-size="16.0922">e</text>
<text transform="matrix(1 0 0 1 476.0749 347.341)" fill="#21B2E3" font-family="'Helvetica'" font-size="16.0922">r</text>
<text transform="matrix(1 0 0 1 481.2889 347.341)" fill="#21B2E3" font-family="'Helvetica'" font-size="16.0922">eigenscha</text>
<text transform="matrix(1 0 0 1 554.6548 347.341)" fill="#21B2E3" font-family="'Helvetica'" font-size="16.0922">f</text>
<text transform="matrix(1 0 0 1 559.2859 347.341)" fill="#21B2E3" font-family="'Helvetica'" font-size="16.0922">t</text>
<text transform="matrix(1 0 0 1 563.6758 347.341)" fill="#21B2E3" font-family="'Helvetica'" font-size="16.0922">en</text>
<text transform="matrix(1 0 0 1 392.9184 369.7248)" fill="#21B2E3" font-family="'Helvetica'" font-size="16.0922">P</text>
<text transform="matrix(1 0 0 1 403.2494 369.7248)" fill="#21B2E3" font-family="'Helvetica'" font-size="16.0922">ersönliche</text>
<text transform="matrix(1 0 0 1 476.5994 369.7248)" fill="#21B2E3" font-family="'Helvetica'" font-size="16.0922"> </text>
<text transform="matrix(1 0 0 1 480.5074 369.7248)" fill="#21B2E3" font-family="'Helvetica'" font-size="16.0922">V</text>
<text transform="matrix(1 0 0 1 490.7254 369.7248)" fill="#21B2E3" font-family="'Helvetica'" font-size="16.0922">o</text>
<text transform="matrix(1 0 0 1 499.6754 369.7248)" fill="#21B2E3" font-family="'Helvetica'" font-size="16.0922">r</text>
<text transform="matrix(1 0 0 1 504.9694 369.7248)" fill="#21B2E3" font-family="'Helvetica'" font-size="16.0922">aussetzungen</text>
<text transform="matrix(1 0 0 1 457.4155 414.4777)" fill="#21B2E3" font-family="'Seravek-Medium'" font-size="16.0922">E</text>
<text transform="matrix(1 0 0 1 465.8635 414.4777)" fill="#21B2E3" font-family="'Seravek-Medium'" font-size="16.0922">r</text>
<text transform="matrix(1 0 0 1 472.4294 414.4777)" fill="#21B2E3" font-family="'Seravek-Medium'" font-size="16.0922">fahrung</text>
<text transform="matrix(1 0 0 1 384.6001 436.8615)" fill="#21B2E3" font-family="'Helvetica'" font-size="16.0922">B</text>
<text transform="matrix(1 0 0 1 395.3981 436.8615)" fill="#21B2E3" font-family="'Helvetica'" font-size="16.0922">eru</text>
<text transform="matrix(1 0 0 1 418.6561 436.8615)" fill="#21B2E3" font-family="'Helvetica'" font-size="16.0922">f</text>
<text transform="matrix(1 0 0 1 422.9981 436.8615)" fill="#21B2E3" font-family="'Helvetica'" font-size="16.0922">s- und </text>
<text transform="matrix(1 0 0 1 472.1941 436.8615)" fill="#21B2E3" font-family="'Helvetica'" font-size="16.0922">L</text>
<text transform="matrix(1 0 0 1 480.9181 436.8615)" fill="#21B2E3" font-family="'Helvetica'" font-size="16.0922">ebense</text>
<text transform="matrix(1 0 0 1 533.7131 436.8615)" fill="#21B2E3" font-family="'Helvetica'" font-size="16.0922">r</text>
<text transform="matrix(1 0 0 1 539.5541 436.8615)" fill="#21B2E3" font-family="'Helvetica'" font-size="16.0922">fahrungen</text>
<g>
	<g>
		<defs>
			<rect id="SVGID_1_" x="-119.336" y="-13.479" width="822.336" height="589.321"/>
		</defs>
		<clipPath id="SVGID_2_">
			<use xlink:href="#SVGID_1_"  overflow="visible"/>
		</clipPath>
		<path clip-path="url(#SVGID_2_)" fill="#21B2E3" d="M531.556,146.289v-10.722h9.749c5.256,0,9.929-2.623,12.932-6.677v60.904
			h-127.98v-60.178c3.009,3.637,7.431,5.951,12.365,5.951h6.265v10.722h14.782v-10.722h57.105v10.722H531.556z M474.048,87.887
			h32.669v8.284h-32.669V87.887z M459.669,127.99v4.173h57.105v-4.173h14.782v4.173h9.749c6.448,0,11.818-4.907,12.932-11.347
			V96.174h-42.66V85.336c0-1.41-1.088-2.554-2.43-2.554h-37.529c-1.341,0-2.43,1.144-2.43,2.554v10.838h-42.931v26.839
			c1.828,5.326,6.673,9.15,12.365,9.15h6.265v-4.173H459.669z"/>
	</g>
	<g>
		<defs>
			<rect id="SVGID_3_" x="-119.336" y="-13.479" width="822.336" height="589.321"/>
		</defs>
		<clipPath id="SVGID_4_">
			<use xlink:href="#SVGID_3_"  overflow="visible"/>
		</clipPath>
		<path clip-path="url(#SVGID_4_)" fill="#80CEF4" d="M260.211,61.662c-27.465,7.068-50.166,27.191-60.952,54.223l20.611,4.818
			c8.744-19.251,25.559-33.435,45.666-38.534L260.211,61.662z"/>
	</g>
	<g>
		<defs>
			<rect id="SVGID_5_" x="-119.336" y="-13.479" width="822.336" height="589.321"/>
		</defs>
		<clipPath id="SVGID_6_">
			<use xlink:href="#SVGID_5_"  overflow="visible"/>
		</clipPath>
		<path clip-path="url(#SVGID_6_)" fill="#21B2E3" d="M371.514,150.626c0-50.827-40.068-92.03-89.493-92.03v21.465
			c37.899,0,68.62,31.592,68.62,70.564s-30.722,70.564-68.62,70.564c-37.897,0-68.619-31.592-68.619-70.564
			c0-4.676,0.253-7.647,1.041-12.253v-0.002l-20.555-3.727c-1.03,6.007-1.36,9.882-1.36,15.981c0,50.827,40.066,92.03,89.492,92.03
			S371.514,201.453,371.514,150.626"/>
	</g>
</g>
<text transform="matrix(1 0 0 1 249.396 164.6745)" fill="#21B2E3" font-family="'MyriadPro-Regular'" font-size="36.204">78</text>
<text transform="matrix(1 0 0 1 286.5415 164.6745)" fill="#21B2E3" font-family="'MyriadPro-Regular'" font-size="36.204">%</text>
<g>
	<g>
		<defs>
			<rect id="SVGID_7_" x="-119.336" y="-13.479" width="822.336" height="589.321"/>
		</defs>
		<clipPath id="SVGID_8_">
			<use xlink:href="#SVGID_7_"  overflow="visible"/>
		</clipPath>
		<path clip-path="url(#SVGID_8_)" fill="#21B2E3" d="M93.139,150.848c-15.786,0-28.818-19.124-31.304-37.249
			c1.181-6.516,4.824-20.548,15.289-30.907c8.043,8.627,22.738,18.559,47.491,17.708c0.153,2.209,0.229,4.588,0.229,7.158
			C124.844,127.17,110.694,150.848,93.139,150.848 M132.153,103.201c-0.5-13.332-3.434-22.141-7.824-28.155h0.018
			c-3.07-4.789-9.696-9.871-13.764-12.338c-26.811-16.234-41.326,4.519-42.998,7.11c-2.469,0.883-17.806,7.563-13.363,31.27
			c-0.053,0.785-0.08,1.59-0.121,2.406c-3.263,1.495-5.69,4.961-5.047,12.825c0.692,8.326,4.913,12.095,9.494,13.057
			c6.479,15.777,19.354,28.799,34.568,28.799c15.204,0,28.039-12.959,34.543-28.675c4.815-0.745,9.416-4.456,10.117-13.181
			C138.474,107.995,135.693,104.546,132.153,103.201"/>
	</g>
	<g>
		<defs>
			<rect id="SVGID_9_" x="-119.336" y="-13.479" width="822.336" height="589.321"/>
		</defs>
		<clipPath id="SVGID_10_">
			<use xlink:href="#SVGID_9_"  overflow="visible"/>
		</clipPath>
		<path clip-path="url(#SVGID_10_)" fill="#21B2E3" d="M72.619,114.789c0-2.819,1.184-4.142,7.867-4.142
			c6.693,0,7.874,1.323,7.874,4.142c0,2.808-1.181,4.131-7.874,4.131C73.803,118.92,72.619,117.598,72.619,114.789 M106.353,110.647
			c6.698,0,7.856,1.323,7.856,4.142c0,2.79-1.159,4.131-7.856,4.131c-6.691,0-7.877-1.323-7.877-4.131
			C98.476,111.97,99.662,110.647,106.353,110.647 M92.057,114.802c0-0.492-0.035-0.945-0.09-1.353h2.911
			c-0.053,0.409-0.085,0.861-0.085,1.353c0,7.814,7.806,7.793,11.561,7.793c3.751,0,11.557-0.014,11.557-7.806
			c0-7.806-7.806-7.839-11.557-7.839c-2.655,0-7.317,0.045-9.826,2.752h-6.21c-2.517-2.684-7.161-2.752-9.808-2.752
			c-3.769,0-11.57,0-11.57,7.821c0,7.81,7.801,7.81,11.57,7.81C84.242,122.581,92.057,122.617,92.057,114.802"/>
	</g>
	<g>
		<defs>
			<rect id="SVGID_11_" x="-119.336" y="-13.479" width="822.336" height="589.321"/>
		</defs>
		<clipPath id="SVGID_12_">
			<use xlink:href="#SVGID_11_"  overflow="visible"/>
		</clipPath>
		<path clip-path="url(#SVGID_12_)" fill="#21B2E3" d="M114.454,203.119l8.329-8.978c1.966-2.123,5.355-2.135,7.322-0.014
			l8.342,8.992H114.454z M127.334,156.906l-4.453-1.106l-29.658,66.935l-29.64-66.926l-4.305,1.096
			c-17.595,4.353-29.877,20.073-29.877,38.061v23.649c0,4.655,3.688,8.357,8.378,8.357h110.928c4.689,0,8.674-3.701,8.674-8.357
			v-23.649C157.381,176.956,144.931,161.258,127.334,156.906"/>
	</g>
	<g>
		<defs>
			<rect id="SVGID_13_" x="-119.336" y="-13.479" width="822.336" height="589.321"/>
		</defs>
		<clipPath id="SVGID_14_">
			<use xlink:href="#SVGID_13_"  overflow="visible"/>
		</clipPath>
		<path clip-path="url(#SVGID_14_)" fill="#21B2E3" d="M93.523,210.491l9.889-24.961l-4.586-4.552
			c2.906-0.381,4.926-3.199,4.229-6.107l-2.034-8.405c-0.555-2.232-2.549-3.84-4.882-3.84h-5.436c-2.311,0-4.322,1.608-4.882,3.84
			l-2.029,8.405c-0.694,2.908,1.337,5.726,4.216,6.08l-4.583,4.58L93.523,210.491z"/>
	</g>
</g>
</svg>
