<?xml version="1.0" encoding="utf-8"?>
<!-- Generator: Adobe Illustrator 17.0.0, SVG Export Plug-In . SVG Version: 6.00 Build 0)  -->
<!DOCTYPE svg PUBLIC "-//W3C//DTD SVG 1.1//EN" "http://www.w3.org/Graphics/SVG/1.1/DTD/svg11.dtd">
<svg version="1.1" id="Ebene_1" xmlns="http://www.w3.org/2000/svg" xmlns:xlink="http://www.w3.org/1999/xlink" x="0px" y="0px"
	 width="624.5px" height="271.47px" viewBox="0 0 624.5 271.47" enable-background="new 0 0 624.5 271.47" xml:space="preserve">
<g>
	<g>
		<g>
			<g>
				<defs>
					<rect id="SVGID_1_" x="-107.336" y="-13.479" width="822.336" height="589.321"/>
				</defs>
				<clipPath id="SVGID_2_">
					<use xlink:href="#SVGID_1_"  overflow="visible"/>
				</clipPath>
				<path clip-path="url(#SVGID_2_)" fill="#21B2E3" d="M543.556,146.289v-10.722h9.749c5.256,0,9.929-2.623,12.932-6.677v60.904
					h-127.98v-60.178c3.009,3.637,7.431,5.951,12.365,5.951h6.265v10.722h14.782v-10.722h57.105v10.722H543.556z M486.048,87.887
					h32.669v8.284h-32.669L486.048,87.887L486.048,87.887z M471.669,127.99v4.173h57.105v-4.173h14.782v4.173h9.749
					c6.448,0,11.818-4.907,12.932-11.347V96.174h-42.66V85.336c0-1.41-1.088-2.554-2.43-2.554h-37.529
					c-1.341,0-2.43,1.144-2.43,2.554v10.838h-42.931v26.839c1.828,5.326,6.673,9.15,12.365,9.15h6.265v-4.173H471.669z"/>
			</g>
		</g>
	</g>
	<g>
		<g>
			<g>
				<defs>
					<rect id="SVGID_3_" x="-107.336" y="-13.479" width="822.336" height="589.321"/>
				</defs>
				<clipPath id="SVGID_4_">
					<use xlink:href="#SVGID_3_"  overflow="visible"/>
				</clipPath>
				<path clip-path="url(#SVGID_4_)" fill="#80CEF4" d="M272.211,61.662c-27.465,7.068-50.166,27.191-60.952,54.223l20.611,4.818
					c8.744-19.251,25.559-33.435,45.666-38.534L272.211,61.662z"/>
			</g>
		</g>
	</g>
	<g>
		<g>
			<g>
				<defs>
					<rect id="SVGID_5_" x="-107.336" y="-13.479" width="822.336" height="589.321"/>
				</defs>
				<clipPath id="SVGID_6_">
					<use xlink:href="#SVGID_5_"  overflow="visible"/>
				</clipPath>
				<path clip-path="url(#SVGID_6_)" fill="#21B2E3" d="M383.514,150.626c0-50.827-40.068-92.03-89.493-92.03v21.465
					c37.899,0,68.62,31.592,68.62,70.564s-30.722,70.564-68.62,70.564c-37.897,0-68.619-31.592-68.619-70.564
					c0-4.676,0.253-7.647,1.041-12.253v-0.002l-20.555-3.727c-1.03,6.007-1.36,9.882-1.36,15.981
					c0,50.827,40.066,92.03,89.492,92.03S383.514,201.453,383.514,150.626"/>
			</g>
		</g>
	</g>
</g>
<g enable-background="new    ">
	<path fill="#21B2E3" d="M276.444,143.326l-9.504,21.349h-3.276l9.684-21.312h-10.8v-2.664h13.428L276.444,143.326z"/>
	<path fill="#21B2E3" d="M286.956,140.266c0.937,0,1.83,0.12,2.683,0.36c0.852,0.24,1.589,0.594,2.214,1.062
		c0.623,0.468,1.121,1.044,1.494,1.729c0.371,0.684,0.558,1.458,0.558,2.321c0,0.696-0.132,1.339-0.396,1.927
		c-0.264,0.588-0.611,1.134-1.044,1.638c-0.432,0.504-0.93,0.984-1.494,1.439c-0.563,0.457-1.146,0.877-1.745,1.261
		c0.743,0.432,1.445,0.888,2.105,1.367c0.66,0.48,1.224,0.997,1.692,1.549c0.468,0.552,0.84,1.158,1.116,1.817
		c0.275,0.661,0.413,1.387,0.413,2.179c0,0.912-0.204,1.752-0.611,2.52c-0.408,0.769-0.967,1.422-1.674,1.962
		c-0.709,0.54-1.519,0.961-2.431,1.261s-1.872,0.449-2.88,0.449c-1.08,0-2.082-0.138-3.006-0.414
		c-0.924-0.275-1.728-0.671-2.412-1.188c-0.684-0.516-1.219-1.152-1.602-1.908c-0.385-0.756-0.576-1.613-0.576-2.574
		c0-0.792,0.162-1.529,0.486-2.214c0.323-0.684,0.737-1.308,1.241-1.872c0.504-0.563,1.074-1.08,1.71-1.548s1.266-0.882,1.891-1.242
		c-0.648-0.384-1.255-0.792-1.818-1.224c-0.564-0.433-1.062-0.912-1.494-1.44c-0.432-0.527-0.769-1.092-1.008-1.691
		c-0.24-0.6-0.36-1.248-0.36-1.944c0-0.864,0.181-1.638,0.54-2.322c0.36-0.684,0.858-1.271,1.494-1.764s1.374-0.864,2.214-1.116
		S285.996,140.266,286.956,140.266z M291.419,158.951c0-0.6-0.103-1.135-0.306-1.603c-0.204-0.468-0.492-0.905-0.864-1.313
		s-0.834-0.804-1.386-1.188c-0.553-0.384-1.188-0.792-1.908-1.224c-0.624,0.432-1.206,0.84-1.746,1.224
		c-0.54,0.385-1.014,0.786-1.422,1.206s-0.727,0.87-0.954,1.35c-0.229,0.48-0.342,1.032-0.342,1.656
		c0,1.129,0.401,2.005,1.206,2.628c0.804,0.625,1.89,0.937,3.258,0.937c1.319,0,2.395-0.342,3.222-1.026
		C291.005,160.913,291.419,160.031,291.419,158.951z M283.104,145.81c0,1.057,0.323,1.92,0.972,2.592
		c0.648,0.673,1.607,1.381,2.88,2.124c1.104-0.743,2.021-1.476,2.754-2.196c0.732-0.72,1.099-1.56,1.099-2.52
		c0-0.888-0.337-1.62-1.009-2.196s-1.619-0.863-2.844-0.863c-1.224,0-2.172,0.294-2.844,0.882S283.104,144.946,283.104,145.81z"/>
</g>
<g enable-background="new    ">
	<path fill="#21B2E3" d="M312.618,147.286c0,0.913-0.133,1.789-0.396,2.629s-0.647,1.584-1.151,2.231
		c-0.504,0.648-1.135,1.164-1.891,1.548c-0.756,0.385-1.626,0.576-2.61,0.576c-0.984,0-1.854-0.191-2.61-0.576
		c-0.756-0.384-1.386-0.899-1.89-1.548c-0.504-0.647-0.888-1.392-1.152-2.231c-0.264-0.84-0.396-1.716-0.396-2.629
		c0-0.887,0.132-1.758,0.396-2.609c0.264-0.852,0.648-1.603,1.152-2.25c0.504-0.648,1.134-1.17,1.89-1.566
		c0.756-0.396,1.625-0.594,2.61-0.594c0.984,0,1.854,0.198,2.61,0.594c0.756,0.396,1.387,0.918,1.891,1.566
		c0.504,0.647,0.888,1.398,1.151,2.25S312.618,146.399,312.618,147.286z M303.293,147.286c0,0.625,0.06,1.219,0.18,1.782
		c0.12,0.564,0.312,1.062,0.576,1.494s0.606,0.774,1.026,1.026c0.419,0.252,0.918,0.378,1.494,0.378
		c0.576,0,1.074-0.126,1.494-0.378c0.419-0.252,0.761-0.595,1.026-1.026c0.264-0.432,0.456-0.93,0.576-1.494
		c0.12-0.563,0.18-1.157,0.18-1.782c0-0.6-0.066-1.188-0.197-1.764c-0.133-0.576-0.331-1.08-0.595-1.512
		c-0.264-0.433-0.6-0.78-1.008-1.044c-0.408-0.264-0.9-0.396-1.476-0.396c-0.576,0-1.068,0.133-1.476,0.396
		s-0.744,0.611-1.008,1.044c-0.264,0.432-0.462,0.936-0.594,1.512C303.359,146.098,303.293,146.686,303.293,147.286z
		 M319.422,140.266l2.375,1.116l-11.339,23.724l-2.34-1.151L319.422,140.266z M329.357,158.123c0,0.912-0.133,1.788-0.396,2.628
		s-0.646,1.584-1.152,2.231c-0.504,0.648-1.133,1.165-1.889,1.549c-0.756,0.383-1.627,0.575-2.611,0.575s-1.854-0.192-2.609-0.575
		c-0.756-0.384-1.385-0.9-1.891-1.549c-0.504-0.647-0.887-1.392-1.15-2.231c-0.266-0.84-0.396-1.716-0.396-2.628
		c0-0.888,0.131-1.758,0.396-2.61c0.264-0.852,0.646-1.603,1.15-2.25c0.506-0.648,1.135-1.17,1.891-1.566
		c0.756-0.396,1.625-0.594,2.609-0.594s1.855,0.198,2.611,0.594c0.756,0.396,1.385,0.918,1.889,1.566
		c0.506,0.647,0.889,1.398,1.152,2.25C329.225,156.365,329.357,157.235,329.357,158.123z M320.033,158.123
		c0,0.624,0.061,1.218,0.18,1.782c0.121,0.563,0.312,1.062,0.576,1.493c0.264,0.433,0.605,0.774,1.027,1.026
		c0.418,0.252,0.918,0.378,1.492,0.378c0.576,0,1.074-0.126,1.494-0.378s0.762-0.594,1.027-1.026
		c0.264-0.432,0.455-0.93,0.576-1.493c0.119-0.564,0.18-1.158,0.18-1.782c0-0.6-0.066-1.188-0.199-1.765
		c-0.131-0.575-0.33-1.08-0.594-1.512s-0.6-0.779-1.008-1.044c-0.408-0.264-0.9-0.396-1.477-0.396c-0.574,0-1.066,0.133-1.475,0.396
		c-0.408,0.265-0.744,0.612-1.008,1.044c-0.266,0.432-0.463,0.937-0.594,1.512C320.1,156.934,320.033,157.523,320.033,158.123z"/>
</g>
<g>
	<g>
		<g>
			<g>
				<defs>
					<rect id="SVGID_7_" x="-119.336" y="-13.479" width="822.336" height="589.321"/>
				</defs>
				<clipPath id="SVGID_8_">
					<use xlink:href="#SVGID_7_"  overflow="visible"/>
				</clipPath>
				<path clip-path="url(#SVGID_8_)" fill="#21B2E3" d="M93.139,150.848c-15.786,0-28.818-19.124-31.304-37.249
					c1.181-6.516,4.824-20.548,15.289-30.907c8.043,8.627,22.738,18.559,47.491,17.708c0.153,2.209,0.229,4.588,0.229,7.158
					C124.844,127.17,110.694,150.848,93.139,150.848 M132.153,103.201c-0.5-13.332-3.434-22.141-7.824-28.155h0.018
					c-3.07-4.789-9.696-9.871-13.764-12.338c-26.811-16.234-41.326,4.519-42.998,7.11c-2.469,0.883-17.806,7.563-13.363,31.27
					c-0.053,0.785-0.08,1.59-0.121,2.406c-3.263,1.495-5.69,4.961-5.047,12.825c0.692,8.326,4.913,12.095,9.494,13.057
					c6.479,15.777,19.354,28.799,34.568,28.799c15.204,0,28.039-12.959,34.543-28.675c4.815-0.745,9.416-4.456,10.117-13.181
					C138.474,107.995,135.693,104.546,132.153,103.201"/>
			</g>
		</g>
	</g>
	<g>
		<g>
			<g>
				<defs>
					<rect id="SVGID_9_" x="-119.336" y="-13.479" width="822.336" height="589.321"/>
				</defs>
				<clipPath id="SVGID_10_">
					<use xlink:href="#SVGID_9_"  overflow="visible"/>
				</clipPath>
				<path clip-path="url(#SVGID_10_)" fill="#21B2E3" d="M72.619,114.789c0-2.819,1.184-4.142,7.867-4.142
					c6.693,0,7.874,1.323,7.874,4.142c0,2.808-1.181,4.131-7.874,4.131C73.803,118.92,72.619,117.598,72.619,114.789
					 M106.353,110.647c6.698,0,7.856,1.323,7.856,4.142c0,2.79-1.159,4.131-7.856,4.131c-6.691,0-7.877-1.323-7.877-4.131
					C98.476,111.97,99.662,110.647,106.353,110.647 M92.057,114.802c0-0.492-0.035-0.945-0.09-1.353h2.911
					c-0.053,0.409-0.085,0.861-0.085,1.353c0,7.814,7.806,7.793,11.561,7.793c3.751,0,11.557-0.014,11.557-7.806
					c0-7.806-7.806-7.839-11.557-7.839c-2.655,0-7.317,0.045-9.826,2.752h-6.21c-2.517-2.684-7.161-2.752-9.808-2.752
					c-3.769,0-11.57,0-11.57,7.821c0,7.81,7.801,7.81,11.57,7.81C84.242,122.581,92.057,122.617,92.057,114.802"/>
			</g>
		</g>
	</g>
	<g>
		<g>
			<g>
				<defs>
					<rect id="SVGID_11_" x="-119.336" y="-13.479" width="822.336" height="589.321"/>
				</defs>
				<clipPath id="SVGID_12_">
					<use xlink:href="#SVGID_11_"  overflow="visible"/>
				</clipPath>
				<path clip-path="url(#SVGID_12_)" fill="#21B2E3" d="M114.454,203.119l8.329-8.978c1.966-2.123,5.355-2.135,7.322-0.014
					l8.342,8.992H114.454z M127.334,156.906l-4.453-1.106l-29.658,66.935l-29.64-66.926l-4.305,1.096
					c-17.595,4.353-29.877,20.073-29.877,38.061v23.649c0,4.655,3.688,8.357,8.378,8.357h110.928c4.689,0,8.674-3.701,8.674-8.357
					v-23.649C157.381,176.956,144.931,161.258,127.334,156.906"/>
			</g>
		</g>
	</g>
	<g>
		<g>
			<g>
				<defs>
					<rect id="SVGID_13_" x="-119.336" y="-13.479" width="822.336" height="589.321"/>
				</defs>
				<clipPath id="SVGID_14_">
					<use xlink:href="#SVGID_13_"  overflow="visible"/>
				</clipPath>
				<path clip-path="url(#SVGID_14_)" fill="#21B2E3" d="M93.523,210.491l9.889-24.961l-4.586-4.552
					c2.906-0.381,4.926-3.199,4.229-6.107l-2.034-8.405c-0.555-2.232-2.549-3.84-4.882-3.84h-5.436c-2.311,0-4.322,1.608-4.882,3.84
					l-2.029,8.405c-0.694,2.908,1.337,5.726,4.216,6.08l-4.583,4.58L93.523,210.491z"/>
			</g>
		</g>
	</g>
</g>
</svg>
