<?xml version="1.0" encoding="utf-8"?>
<!-- Generator: Adobe Illustrator 17.0.0, SVG Export Plug-In . SVG Version: 6.00 Build 0)  -->
<!DOCTYPE svg PUBLIC "-//W3C//DTD SVG 1.1//EN" "http://www.w3.org/Graphics/SVG/1.1/DTD/svg11.dtd">
<svg version="1.1" xmlns="http://www.w3.org/2000/svg" xmlns:xlink="http://www.w3.org/1999/xlink" x="0px" y="0px" width="80px"
	 height="80px" viewBox="0 0 80 80" enable-background="new 0 0 80 80" xml:space="preserve">
<g id="Ebene_1" display="none">
	<g display="inline">
		<defs>
			<rect id="SVGID_1_" x="-71.124" y="0.014" width="146.126" height="79.972"/>
		</defs>
		<clipPath id="SVGID_2_">
			<use xlink:href="#SVGID_1_"  overflow="visible"/>
		</clipPath>
		<path clip-path="url(#SVGID_2_)" fill="#21B2E3" d="M61.414,23.377c-6.133,0-11.104-4.753-11.104-10.637V1.392
			c0-0.761-0.642-1.378-1.434-1.378H13.203c-4.575,0-8.299,3.562-8.299,7.953v64.066c0,4.391,3.724,7.953,8.299,7.953h53.496
			c4.578,0,8.304-3.562,8.304-7.953V24.754c0-0.761-0.643-1.377-1.436-1.377H61.414z"/>
		<path clip-path="url(#SVGID_2_)" fill="#21B2E3" d="M61.414,17.985h9.938c0.581,0,1.105-0.335,1.326-0.853
			c0.222-0.515,0.097-1.107-0.314-1.501C68.732,12.168,61.987,5.736,58.37,2.307c-0.413-0.389-1.026-0.505-1.561-0.291
			c-0.535,0.213-0.881,0.715-0.881,1.27v9.452C55.927,15.618,58.412,17.985,61.414,17.985"/>
	</g>
</g>
<g id="Ebene_2" display="none">
	<g display="inline">
		<defs>
			<rect id="SVGID_3_" x="0.103" y="5.988" width="79.601" height="69.381"/>
		</defs>
		<clipPath id="SVGID_4_">
			<use xlink:href="#SVGID_3_"  overflow="visible"/>
		</clipPath>
		<path clip-path="url(#SVGID_4_)" fill="#21B2E3" d="M24.573,50.235c-2.127-1.94-3.474-4.638-3.574-7.631
			c-0.292-0.02-0.583-0.042-0.883-0.042h-7.975c-6.639,0-12.038,5.135-12.038,11.446v9.279l0.025,0.143l0.672,0.2
			c5.079,1.51,9.616,2.204,13.556,2.423v-2.802C14.357,57.106,18.672,51.903,24.573,50.235 M16.13,41.95c1.839,0,3.55-0.51,5-1.38
			c0.46-2.859,2.073-5.356,4.373-7.057c0.01-0.167,0.026-0.333,0.026-0.501c0-4.939-4.21-8.941-9.4-8.941
			c-5.193,0-9.402,4.002-9.402,8.941C6.728,37.95,10.937,41.95,16.13,41.95 M67.667,33.566h-7.915
			c-0.086,3.011-1.437,5.724-3.575,7.674c5.899,1.669,10.216,6.871,10.216,13.016v2.859c7.814-0.273,12.32-2.378,12.617-2.521
			l0.627-0.303h0.067v-9.28C79.706,38.701,74.305,33.566,67.667,33.566 M54.286,23.881c2.964,1.767,5.043,4.756,5.421,8.229
			c1.207,0.535,2.549,0.845,3.971,0.845c5.193,0,9.402-4.002,9.402-8.938c0-4.939-4.208-8.94-9.402-8.94
			C58.535,15.076,54.363,19.008,54.286,23.881 M52.169,42.561h-7.916c-0.086,3.011-1.438,5.724-3.575,7.674
			c5.899,1.669,10.216,6.871,10.216,13.016v2.859c7.816-0.273,12.319-2.38,12.616-2.521l0.629-0.303h0.067v-9.28
			C64.205,47.696,58.805,42.561,52.169,42.561 M36.614,51.79h-7.976c-6.637,0-12.037,5.135-12.037,11.446v9.279l0.023,0.145
			l0.672,0.199c6.333,1.881,11.837,2.511,16.368,2.511c8.845,0,13.975-2.399,14.291-2.552l0.629-0.303h0.066v-9.279
			C48.649,56.925,43.251,51.79,36.614,51.79 M32.626,51.181c5.19,0,9.4-4.002,9.4-8.94c0-4.936-4.21-8.94-9.4-8.94
			c-5.192,0-9.403,4.004-9.403,8.94C23.224,47.179,27.435,51.181,32.626,51.181 M38.786,32.876c2.963,1.767,5.041,4.758,5.421,8.229
			c1.209,0.536,2.551,0.845,3.971,0.845c5.193,0,9.402-4.001,9.402-8.938c0-4.939-4.208-8.941-9.402-8.941
			C43.035,24.071,38.863,28.002,38.786,32.876 M37.058,32.005c0.102-2.112,0.867-4.068,2.098-5.684
			c-0.864-0.172-1.757-0.263-2.672-0.263h-8.658c-0.914,0-1.805,0.091-2.663,0.26c1.31,1.726,2.092,3.835,2.105,6.12
			c1.592-0.833,3.417-1.307,5.359-1.307C34.199,31.131,35.699,31.442,37.058,32.005 M21.95,15.691c0-5.359,4.568-9.703,10.204-9.703
			c5.635,0,10.204,4.344,10.204,9.703c0,5.359-4.569,9.704-10.204,9.704C26.518,25.395,21.95,21.05,21.95,15.691"/>
	</g>
</g>
<g id="Ebene_3">
	<g>
		<defs>
			<rect id="SVGID_5_" x="0.824" y="3.11" width="77.335" height="78.229"/>
		</defs>
		<clipPath id="SVGID_6_">
			<use xlink:href="#SVGID_5_"  overflow="visible"/>
		</clipPath>
		<path clip-path="url(#SVGID_6_)" fill="#21B2E3" d="M76.036,68.82L58.293,50.873c-2.644,4.159-6.141,7.697-10.253,10.369
			l17.742,17.949c2.832,2.864,7.425,2.864,10.253,0C78.868,76.331,78.868,71.686,76.036,68.82"/>
		<path clip-path="url(#SVGID_6_)" fill="#21B2E3" d="M29.825,54.448c-11.994,0-21.751-9.869-21.751-22.002
			s9.757-22.002,21.751-22.002s21.751,9.869,21.751,22.002S41.819,54.448,29.825,54.448 M58.826,32.446
			c0-16.2-12.986-29.336-29.001-29.336S0.824,16.246,0.824,32.446c0,16.202,12.986,29.336,29.001,29.336
			S58.826,48.648,58.826,32.446"/>
		<path clip-path="url(#SVGID_6_)" fill="#21B2E3" d="M12.908,32.446h4.833c0-6.74,5.422-12.223,12.084-12.223v-4.89
			C20.499,15.333,12.908,23.011,12.908,32.446"/>
	</g>
</g>
</svg>
