<?xml version="1.0" encoding="utf-8"?>
<!-- Generator: Adobe Illustrator 17.0.0, SVG Export Plug-In . SVG Version: 6.00 Build 0)  -->
<!DOCTYPE svg PUBLIC "-//W3C//DTD SVG 1.1//EN" "http://www.w3.org/Graphics/SVG/1.1/DTD/svg11.dtd">
<svg version="1.1" id="Ebene_1" xmlns="http://www.w3.org/2000/svg" xmlns:xlink="http://www.w3.org/1999/xlink" x="0px" y="0px"
	 width="850.39px" height="170.08px" viewBox="0 0 850.39 170.08" enable-background="new 0 0 850.39 170.08" xml:space="preserve">
<g>
	<polygon fill="#FFFFFF" points="347.56,80.373 300.7,102.915 285.996,72.356 332.862,49.807 325.999,35.542 264.871,64.95 
		293.298,124.043 354.426,94.635 	"/>
	<polygon fill="#FFFFFF" points="298.071,76.581 304.929,90.846 351.795,68.3 366.499,98.863 319.636,121.408 326.495,135.673 
		387.622,106.266 359.197,47.172 	"/>
	<polygon fill="#FFFFFF" points="478.555,45.6 456.353,92.658 434.152,45.6 417.041,45.6 411.259,122.605 429.875,122.605 
		432.189,79.477 447.221,110.351 465.49,110.351 480.521,79.477 482.833,122.605 501.448,122.605 495.667,45.6 	"/>
	<path fill="#FFFFFF" d="M541.891,45.6l-28.679,77.006h19.542l4.743-14.916h29.482l4.854,14.916h19.542L562.701,45.6H541.891z
		 M542.351,92.658l9.944-32.489l9.83,32.489H542.351z"/>
	<polygon fill="#FFFFFF" points="591.495,60.631 612.192,60.631 612.192,122.605 631.153,122.605 631.153,60.631 651.852,60.631 
		651.852,45.6 591.495,45.6 	"/>
	<path fill="#FFFFFF" d="M702.377,59.359c5.628,0,11.217,1.119,16.764,3.354l2.778-13.99c-6.167-3.006-13.683-4.511-22.546-4.511
		c-13.184,0-23.378,3.682-30.585,11.042c-7.207,7.363-10.812,16.98-10.812,28.85s3.605,21.486,10.812,28.849
		c7.207,7.36,17.401,11.043,30.585,11.043c8.863,0,16.379-1.504,22.546-4.511l-2.778-13.991c-5.625,2.235-11.211,3.354-16.764,3.354
		c-8.017,0-14.262-2.098-18.731-6.302c-4.47-4.2-6.707-10.348-6.707-18.441c0-8.094,2.237-14.24,6.707-18.443
		C688.115,61.461,694.36,59.359,702.377,59.359z"/>
	<polygon fill="#FFFFFF" points="783.547,45.6 783.547,75.777 755.334,75.777 755.334,45.6 736.371,45.6 736.371,122.605 
		755.334,122.605 755.334,91.272 783.547,91.272 783.547,122.605 802.508,122.605 802.508,45.6 	"/>
	<path fill="#FFFFFF" d="M89.794,59.221c5.627,0,11.215,1.118,16.765,3.353l2.775-13.991c-6.166-3.006-13.681-4.51-22.545-4.51
		c-13.183,0-23.377,3.682-30.584,11.042c-7.208,7.363-10.812,16.98-10.812,28.851c0,11.87,3.604,21.486,10.812,28.848
		c7.207,7.362,17.401,11.042,30.584,11.042c8.865,0,16.379-1.504,22.545-4.51l-2.775-13.99c-5.627,2.236-11.213,3.353-16.765,3.353
		c-8.018,0-14.262-2.099-18.732-6.302c-4.47-4.199-6.705-10.348-6.705-18.441c0-8.094,2.236-14.24,6.705-18.442
		C75.531,61.323,81.776,59.221,89.794,59.221z"/>
	<path fill="#FFFFFF" d="M151.075,74.946c-4.548-1.771-7.533-3.276-8.961-4.51c-1.428-1.231-2.139-2.891-2.139-4.972
		c0-4.237,3.162-6.358,9.482-6.358c6.398,0,12.64,1.464,18.731,4.394l3.237-14.223c-6.398-3.469-13.989-5.203-22.777-5.203
		c-8.714,0-15.495,2.005-20.351,6.012c-4.854,4.01-7.286,9.675-7.286,16.997c0,5.628,1.716,10.29,5.147,13.991
		c3.428,3.701,8.961,6.977,16.592,9.829c4.702,1.775,7.977,3.432,9.827,4.973c1.851,1.542,2.775,3.313,2.775,5.317
		c0,5.089-3.701,7.633-11.1,7.633c-6.938,0-13.644-1.62-20.118-4.855l-3.816,14.452c7.478,3.622,15.648,5.434,24.512,5.434
		c8.942,0,16.09-2.33,21.45-6.995c5.357-4.663,8.037-10.463,8.037-17.401c0-6.089-1.986-10.945-5.957-14.57
		C164.39,81.268,158.628,77.953,151.075,74.946z"/>
	<path fill="#FFFFFF" d="M241.09,83.329c2.892-3.891,4.339-8.382,4.339-13.47c0-7.938-3.084-13.99-9.251-18.153
		c-6.169-4.163-14.261-6.244-24.283-6.244h-24.513v77.006h18.964V95.76h3.47l21.158,26.708h23.354l-25.321-30.294
		C234.171,90.172,238.201,87.223,241.09,83.329z M222.823,78.587c-2.892,2.044-6.841,3.064-11.854,3.064h-4.623V60.03h5.433
		c10.253,0,15.378,3.393,15.378,10.175C227.157,73.751,225.715,76.546,222.823,78.587z"/>
</g>
</svg>
