<?xml version="1.0" encoding="utf-8"?>
<!-- Generator: Adobe Illustrator 17.0.0, SVG Export Plug-In . SVG Version: 6.00 Build 0)  -->
<!DOCTYPE svg PUBLIC "-//W3C//DTD SVG 1.1//EN" "http://www.w3.org/Graphics/SVG/1.1/DTD/svg11.dtd">
<svg version="1.1" xmlns="http://www.w3.org/2000/svg" xmlns:xlink="http://www.w3.org/1999/xlink" x="0px" y="0px" width="80px"
	 height="80px" viewBox="0 0 80 80" enable-background="new 0 0 80 80" xml:space="preserve">
<g id="Ebene_1" display="none">
	<g display="inline">
		<defs>
			<rect id="SVGID_1_" x="-71.124" y="0.014" width="146.126" height="79.972"/>
		</defs>
		<clipPath id="SVGID_2_">
			<use xlink:href="#SVGID_1_"  overflow="visible"/>
		</clipPath>
		<path clip-path="url(#SVGID_2_)" fill="#21B2E3" d="M61.414,23.377c-6.133,0-11.104-4.753-11.104-10.637V1.392
			c0-0.761-0.642-1.378-1.434-1.378H13.203c-4.575,0-8.299,3.562-8.299,7.953v64.066c0,4.391,3.724,7.953,8.299,7.953h53.496
			c4.578,0,8.304-3.562,8.304-7.953V24.754c0-0.761-0.643-1.377-1.436-1.377H61.414z"/>
		<path clip-path="url(#SVGID_2_)" fill="#21B2E3" d="M61.414,17.985h9.938c0.581,0,1.105-0.335,1.326-0.853
			c0.222-0.515,0.097-1.107-0.314-1.501C68.732,12.168,61.987,5.736,58.37,2.307c-0.413-0.389-1.026-0.505-1.561-0.291
			c-0.535,0.213-0.881,0.715-0.881,1.27v9.452C55.927,15.618,58.412,17.985,61.414,17.985"/>
	</g>
</g>
<g id="Ebene_2" display="none">
	<g display="inline">
		<defs>
			<rect id="SVGID_3_" x="0.103" y="5.988" width="79.601" height="69.381"/>
		</defs>
		<clipPath id="SVGID_4_">
			<use xlink:href="#SVGID_3_"  overflow="visible"/>
		</clipPath>
		<path clip-path="url(#SVGID_4_)" fill="#21B2E3" d="M24.573,50.235c-2.127-1.94-3.474-4.638-3.574-7.631
			c-0.292-0.02-0.583-0.042-0.883-0.042h-7.975c-6.639,0-12.038,5.135-12.038,11.446v9.279l0.025,0.143l0.672,0.2
			c5.079,1.51,9.616,2.204,13.556,2.423v-2.802C14.357,57.106,18.672,51.903,24.573,50.235 M16.13,41.95c1.839,0,3.55-0.51,5-1.38
			c0.46-2.859,2.073-5.356,4.373-7.057c0.01-0.167,0.026-0.333,0.026-0.501c0-4.939-4.21-8.941-9.4-8.941
			c-5.193,0-9.402,4.002-9.402,8.941C6.728,37.95,10.937,41.95,16.13,41.95 M67.667,33.566h-7.915
			c-0.086,3.011-1.437,5.724-3.575,7.674c5.899,1.669,10.216,6.871,10.216,13.016v2.859c7.814-0.273,12.32-2.378,12.617-2.521
			l0.627-0.303h0.067v-9.28C79.706,38.701,74.305,33.566,67.667,33.566 M54.286,23.881c2.964,1.767,5.043,4.756,5.421,8.229
			c1.207,0.535,2.549,0.845,3.971,0.845c5.193,0,9.402-4.002,9.402-8.938c0-4.939-4.208-8.94-9.402-8.94
			C58.535,15.076,54.363,19.008,54.286,23.881 M52.169,42.561h-7.916c-0.086,3.011-1.438,5.724-3.575,7.674
			c5.899,1.669,10.216,6.871,10.216,13.016v2.859c7.816-0.273,12.319-2.38,12.616-2.521l0.629-0.303h0.067v-9.28
			C64.205,47.696,58.805,42.561,52.169,42.561 M36.614,51.79h-7.976c-6.637,0-12.037,5.135-12.037,11.446v9.279l0.023,0.145
			l0.672,0.199c6.333,1.881,11.837,2.511,16.368,2.511c8.845,0,13.975-2.399,14.291-2.552l0.629-0.303h0.066v-9.279
			C48.649,56.925,43.251,51.79,36.614,51.79 M32.626,51.181c5.19,0,9.4-4.002,9.4-8.94c0-4.936-4.21-8.94-9.4-8.94
			c-5.192,0-9.403,4.004-9.403,8.94C23.224,47.179,27.435,51.181,32.626,51.181 M38.786,32.876c2.963,1.767,5.041,4.758,5.421,8.229
			c1.209,0.536,2.551,0.845,3.971,0.845c5.193,0,9.402-4.001,9.402-8.938c0-4.939-4.208-8.941-9.402-8.941
			C43.035,24.071,38.863,28.002,38.786,32.876 M37.058,32.005c0.102-2.112,0.867-4.068,2.098-5.684
			c-0.864-0.172-1.757-0.263-2.672-0.263h-8.658c-0.914,0-1.805,0.091-2.663,0.26c1.31,1.726,2.092,3.835,2.105,6.12
			c1.592-0.833,3.417-1.307,5.359-1.307C34.199,31.131,35.699,31.442,37.058,32.005 M21.95,15.691c0-5.359,4.568-9.703,10.204-9.703
			c5.635,0,10.204,4.344,10.204,9.703c0,5.359-4.569,9.704-10.204,9.704C26.518,25.395,21.95,21.05,21.95,15.691"/>
	</g>
</g>
<g id="Ebene_3" display="none">
	<g display="inline">
		<defs>
			<rect id="SVGID_5_" x="0.824" y="3.11" width="77.335" height="78.229"/>
		</defs>
		<clipPath id="SVGID_6_">
			<use xlink:href="#SVGID_5_"  overflow="visible"/>
		</clipPath>
		<path clip-path="url(#SVGID_6_)" fill="#21B2E3" d="M76.036,68.82L58.293,50.873c-2.644,4.159-6.141,7.697-10.253,10.369
			l17.742,17.949c2.832,2.864,7.425,2.864,10.253,0C78.868,76.331,78.868,71.686,76.036,68.82"/>
		<path clip-path="url(#SVGID_6_)" fill="#21B2E3" d="M29.825,54.448c-11.994,0-21.751-9.869-21.751-22.002
			s9.757-22.002,21.751-22.002s21.751,9.869,21.751,22.002S41.819,54.448,29.825,54.448 M58.826,32.446
			c0-16.2-12.986-29.336-29.001-29.336S0.824,16.246,0.824,32.446c0,16.202,12.986,29.336,29.001,29.336
			S58.826,48.648,58.826,32.446"/>
		<path clip-path="url(#SVGID_6_)" fill="#21B2E3" d="M12.908,32.446h4.833c0-6.74,5.422-12.223,12.084-12.223v-4.89
			C20.499,15.333,12.908,23.011,12.908,32.446"/>
	</g>
</g>
<g id="Ebene_4" display="none">
	<g display="inline">
		<defs>
			<rect id="SVGID_7_" x="0.556" y="6.084" width="78.336" height="63.363"/>
		</defs>
		<clipPath id="SVGID_8_">
			<use xlink:href="#SVGID_7_"  overflow="visible"/>
		</clipPath>
		<path clip-path="url(#SVGID_8_)" fill="#21B2E3" d="M29.328,18.591c15.889,0,28.772,10.07,28.772,22.49
			c0,12.421-12.883,22.486-28.772,22.486c-2.804,0-5.512-0.312-8.074-0.896c-3.384,6.292-9.525,7.688-15.017,6.271
			c3.311-2.91,6.166-5.67,8.314-8.57C6.164,56.444,0.557,49.273,0.557,41.081C0.557,28.661,13.44,18.591,29.328,18.591"/>
		<path clip-path="url(#SVGID_8_)" fill="#21B2E3" d="M50.125,6.084c-9.857,0-18.56,3.877-23.744,9.789
			c12.87-3.543,44.279,10.643,32.424,34.345c3.387,6.293,8.917,7.631,14.412,6.214c-3.311-2.913-6.169-5.671-8.314-8.57
			c8.378-3.93,13.989-11.098,13.989-19.293C78.892,16.151,66.014,6.084,50.125,6.084"/>
	</g>
</g>
<g id="Ebene_5" display="none">
	<g display="inline">
		<defs>
			<rect id="SVGID_9_" x="5.102" y="0.995" width="68.282" height="76.444"/>
		</defs>
		<clipPath id="SVGID_10_">
			<use xlink:href="#SVGID_9_"  overflow="visible"/>
		</clipPath>
		<path clip-path="url(#SVGID_10_)" fill="#21B2E3" d="M66.07,39.692c-2.252,0-4.246,0.998-5.586,2.526l-8.574-4.056
			c0.109-0.529,0.175-1.075,0.175-1.638c0-2.861-1.52-5.387-3.827-6.912l5.472-14.728c4.023-0.006,7.3-3.123,7.3-6.943
			c0-3.823-3.283-6.946-7.309-6.946c-4.023,0-7.314,3.119-7.314,6.943c0,2.615,1.557,4.875,3.812,6.057l-5.304,14.265
			c-0.551-0.103-1.12-0.164-1.7-0.164c-4.683,0-8.497,3.491-8.81,7.862l-15.053,3.348c-0.934-2.813-3.676-4.878-6.941-4.878
			c-4.028,0-7.308,3.119-7.308,6.945c0,3.828,3.283,6.945,7.308,6.945c3.513,0,6.464-2.38,7.157-5.527l15.342-3.417
			c1.212,3.158,4.335,5.44,8.044,5.545l0.911,19.509c-2.269,1.18-3.838,3.444-3.838,6.072c0,3.82,3.283,6.94,7.313,6.94
			c4.023,0,7.308-3.119,7.308-6.94c0-3.741-3.148-6.787-7.054-6.92l-0.9-19.31c1.535-0.627,2.843-1.66,3.791-2.948l8.42,3.987
			c-0.088,0.426-0.14,0.873-0.14,1.319c0,3.825,3.283,6.945,7.309,6.945s7.311-3.119,7.311-6.945
			C73.384,42.809,70.093,39.692,66.07,39.692"/>
	</g>
</g>
<g id="Ebene_6">
	<g>
		<defs>
			<rect id="SVGID_11_" x="2.392" y="6.611" width="75.078" height="64.665"/>
		</defs>
		<clipPath id="SVGID_12_">
			<use xlink:href="#SVGID_11_"  overflow="visible"/>
		</clipPath>
		<path clip-path="url(#SVGID_12_)" fill="#21B2E3" d="M12.618,38.743h24.076v3.793H12.618V38.743z M35,34.994H12.618v-3.795H35
			V34.994z M35,27.448H12.618v-3.793H35V27.448z M12.618,16.111h29.318v3.793H12.618V16.111z M65.94,47.182
			c-1.335-1.105-2.773-2.017-4.297-2.744c3.528-2.457,5.85-6.509,5.85-11.097c0-7.485-6.135-13.577-13.683-13.577
			S40.123,25.855,40.123,33.34c0,4.594,2.325,8.641,5.85,11.097c-1.519,0.727-2.962,1.64-4.294,2.744H24.225l-0.011,7.732
			l-8.029-7.732H15.1l-7.346,0.153L7.597,11.923l64.522-0.156l0.155,35.414H65.94z M45.48,33.34c0-4.556,3.736-8.264,8.33-8.264
			c4.59,0,8.326,3.711,8.326,8.264c0,4.552-3.734,8.262-8.326,8.262C49.216,41.601,45.48,37.895,45.48,33.34 M37.809,65.963
			c0.55-5.432,2.754-10.196,5.932-13.467c2.767-2.841,6.255-4.559,10.065-4.559c3.809,0,7.303,1.718,10.067,4.559
			c3.181,3.271,5.385,8.034,5.932,13.467H37.809z M72.269,6.611H7.592c-2.864,0-5.2,2.314-5.2,5.16v35.57
			c0,2.841,2.333,5.158,5.2,5.158h6.418l8.17,7.865l0.262,0.22c0.984,0.724,2.04,1.11,3.063,1.11c1.964,0,4.076-1.457,4.071-4.658
			v-4.54h7.412c-2.911,4.435-4.662,10.032-4.662,16.123v2.657h42.973v-2.657c0-6.091-1.758-11.687-4.666-16.123h1.637
			c2.867,0,5.201-2.314,5.201-5.161V11.77C77.47,8.93,75.138,6.611,72.269,6.611"/>
	</g>
</g>
</svg>
