<?xml version="1.0" encoding="utf-8"?>
<!-- Generator: Adobe Illustrator 17.0.0, SVG Export Plug-In . SVG Version: 6.00 Build 0)  -->
<!DOCTYPE svg PUBLIC "-//W3C//DTD SVG 1.1//EN" "http://www.w3.org/Graphics/SVG/1.1/DTD/svg11.dtd">
<svg version="1.1" xmlns="http://www.w3.org/2000/svg" xmlns:xlink="http://www.w3.org/1999/xlink" x="0px" y="0px" width="200px"
	 height="200px" viewBox="0 0 200 200" enable-background="new 0 0 200 200" xml:space="preserve">
<g id="Ebene_1" display="none">
	<g display="inline">
		<defs>
			<rect id="SVGID_1_" x="18.597" y="16.159" width="162.852" height="167.899"/>
		</defs>
		<clipPath id="SVGID_2_">
			<use xlink:href="#SVGID_1_"  overflow="visible"/>
		</clipPath>
		<path clip-path="url(#SVGID_2_)" fill="#25B2E4" d="M126.796,159.759l1.961-35.24c0.11-2.031,1.854-3.574,3.888-3.44l0.511,0.041
			l12.242,13.837c21.043-21.447,22.051-56.141,1.624-79.229c-14.345-16.217-36.254-23.243-57.178-18.323
			c-5.271,1.235-10.597-2.049-11.902-7.346c-1.296-5.3,1.926-10.597,7.203-11.835c28.005-6.576,57.329,2.819,76.538,24.53
			c27.668,31.271,25.977,78.448-3.138,107.066l10.856,12.268l-0.026,0.511c-0.119,2.031-1.863,3.574-3.891,3.44l-35.208-2.345
			C128.231,163.556,126.674,161.793,126.796,159.759"/>
		<path clip-path="url(#SVGID_2_)" fill="#25B2E4" d="M34.57,34.183l35.208,2.345c2.031,0.134,3.589,1.895,3.475,3.928
			l-1.961,35.231c-0.11,2.04-1.854,3.58-3.894,3.443l-0.5-0.044L54.651,65.265c-21.034,21.435-22.06,56.129-1.627,79.223
			c14.345,16.217,36.254,23.234,57.181,18.32c5.274-1.241,10.609,2.051,11.905,7.348c1.29,5.303-1.938,10.6-7.215,11.838
			c-27.996,6.576-57.329-2.821-76.538-24.533c-27.665-31.268-25.974-78.442,3.147-107.057L30.65,38.138l0.026-0.511
			C30.795,35.586,32.536,34.046,34.57,34.183"/>
	</g>
</g>
<g id="Ebene_2" display="none">
	<g display="inline">
		<defs>
			<rect id="SVGID_3_" x="0.533" y="21.45" width="199.467" height="157.205"/>
		</defs>
		<clipPath id="SVGID_4_">
			<use xlink:href="#SVGID_3_"  overflow="visible"/>
		</clipPath>
		<path clip-path="url(#SVGID_4_)" fill="#25B2E4" d="M6.588,145.474v24.731H0.533v8.45h190.803v-8.45h-6.055v-24.731H6.588z
			 M126.696,29.743h5.616v-1.458h-2.301v-6.347c-0.003-0.267-0.226-0.485-0.511-0.485c-0.277,0-0.503,0.216-0.503,0.485v6.342
			h-2.301V29.743z M130.953,30.19c1.255,1.14,2.835,2.263,4.793,3.221v-0.785c0-1.341-0.762-2.436-1.702-2.436h-1.707H130.953z
			 M135.746,36.128v-1.626c-2.677-1.242-4.706-2.794-6.225-4.313h-2.862h-0.02C128.494,32.298,131.392,34.647,135.746,36.128
			 M135.746,39.151v-1.989c-5.184-1.676-8.445-4.544-10.403-6.972h-0.381c-0.523,0-0.985,0.345-1.293,0.871
			C125.505,33.698,129.147,37.416,135.746,39.151 M135.746,42.006v-1.849c-6.548-1.648-10.378-5.176-12.463-7.935
			c-0.018,0.132-0.025,0.267-0.025,0.404v1.702C125.304,37.02,129.121,40.499,135.746,42.006 M123.252,38.031
			c2.304,2.606,6.202,5.58,12.494,6.804v-1.824c-6.261-1.366-10.165-4.432-12.494-7.114V38.031z M123.252,41.592
			c2.494,2.476,6.444,5.06,12.494,6.048v-1.803c-6.022-1.13-9.979-3.81-12.494-6.36V41.592z M135.235,50.923
			c0.315-0.406,0.511-0.909,0.511-1.46v-0.838c-5.837-0.919-9.837-3.269-12.494-5.674v2.007h0.005
			C125.68,47.365,129.469,49.877,135.235,50.923 M161.554,87.655c0.003,11.178-9.375,20.243-20.947,20.243
			c-11.569,0-20.949-9.065-20.949-20.243c0-11.186,9.38-20.248,20.949-20.248S161.554,76.47,161.554,87.655 M200,103.304
			c0.003-1.989-0.945-4.008-2.121-4.501c-1.171-0.498-3.975-0.394-6.266,0.236c-2.294,0.63-5.827,0.81-7.889,0.411l-3.744-0.739
			V45.45h-5.555v19.763h-7.569v-7.564c0-2.151-1.811-3.901-4.038-3.901h-30.509v-1.285h-5.618v1.285h-0.472
			c-2.228,0-5.39,1.171-7.287,2.311c-7.262,4.351-19.725,7.686-33.976,7.686c-13.611,0-23.53-3.053-30.167-7.112
			c1.966,0.069,3.927,0.117,5.895,0.117c29.321,0,58.098-7.236,62.568-8.41v0.041c1.435,1.27,3.264,2.522,5.588,3.525h4.384
			c0.348,0,0.678-0.061,0.98-0.188c-5.006-1.057-8.532-3.2-10.947-5.39c-0.386,0.107-37.634,10.505-72.001,8.483
			c-1.532-0.61-3.188-1.057-4.536-1.057H26.278c-2.233,0-4.038,1.747-4.038,3.901V68.88h-2.774c-1.115,0-2.019,0.874-2.019,1.946
			v9.032c0,1.074,0.904,1.951,2.019,1.951h2.774v28.297c0,2.156,1.808,3.901,4.038,3.901h20.441c2.235,0,4.038-1.745,4.038-3.901
			v-3.444c0-2.149,1.331-5.095,3.045-6.464c7.142-5.758,17.655-12.255,29.389-12.288c15.631-0.058,25.305,4.64,31.269,9.959
			c1.638,1.463,2.606,4.562,2.38,6.708l-3.739,35.625h53.755V91.31h7.569v18.795h5.555v-2.2c0,0,1.676-0.328,3.744-0.731
			c2.062-0.404,5.595-0.221,7.884,0.404c2.288,0.627,5.093,0.739,6.263,0.246C199.048,107.332,200,105.305,200,103.304
			 M125.774,51.901h0.818c-1.265-0.686-2.365-1.435-3.32-2.212C123.402,50.928,124.463,51.901,125.774,51.901"/>
	</g>
</g>
<g id="Ebene_3" display="none">
	<g display="inline">
		<defs>
			<rect id="SVGID_5_" x="19.975" y="18.248" width="160.412" height="163.73"/>
		</defs>
		<clipPath id="SVGID_6_">
			<use xlink:href="#SVGID_5_"  overflow="visible"/>
		</clipPath>
		<path clip-path="url(#SVGID_6_)" fill="#25B2E4" d="M95.136,181.977v-0.092v-21.457c-2.729,1.277-5.716,1.955-8.753,1.955
			c-2.856,0-5.627-0.577-8.236-1.713c-2.518-1.098-4.773-2.666-6.702-4.66c-3.973-4.106-6.117-9.548-6.038-15.323
			c0.075-5.585,2.264-10.848,6.164-14.821c3.902-3.973,9.065-6.197,14.544-6.268c0.089-0.002,0.178-0.002,0.268-0.002
			c3.036,0,6.024,0.676,8.753,1.952l0.021-21.365H70.059c0.61-1.084,1.506-2.433,2.539-3.968c1.995-2.968,3.48-6.404,3.433-10.292
			c-0.108-8.771-7.126-15.938-15.726-16.06c-0.075,0-0.153-0.002-0.228-0.002c-8.811,0-15.954,7.284-15.954,16.271
			c0,3.804,1.464,7.164,3.426,10.071c0.953,1.413,1.938,2.896,2.546,3.98H26.674c-3.7,0-6.699,3.058-6.699,6.831v68.132
			c0,3.773,2.999,6.831,6.699,6.831H95.136z"/>
		<path clip-path="url(#SVGID_6_)" fill="#25B2E4" d="M159.345,105.166c1.251,2.783,1.915,5.829,1.915,8.926
			c0,5.716-2.182,11.087-6.143,15.128c-3.963,4.041-9.231,6.265-14.835,6.265c-0.096,0-0.197,0-0.296-0.002
			c-5.477-0.077-10.637-2.309-14.532-6.289c-3.895-3.977-6.078-9.243-6.148-14.828c-0.038-3.196,0.624-6.338,1.915-9.201h-16.017
			h-2.511h-2.537l0.002,25.643c-0.887-0.519-2.53-1.645-4.041-2.708c-2.799-1.971-6.07-3.381-9.736-3.381
			c-0.068,0-0.136,0-0.204,0.002c-8.602,0.11-15.628,7.265-15.748,16.036c-0.042,3.006,0.718,5.826,2.072,8.257
			c2.743,4.923,7.931,8.243,13.88,8.243c3.665,0,6.861-1.525,9.736-3.379c1.772-1.143,3.154-2.192,4.041-2.71v0.12v30.597h0.021
			h2.511h2.513h68.463c3.701,0,6.699-3.058,6.699-6.831v-69.889H159.345z"/>
		<path clip-path="url(#SVGID_6_)" fill="#25B2E4" d="M173.687,18.249H100.18v31.383c0,0,2.694-2.379,3.555-3.001
			c2.764-2.344,6.317-3.754,10.193-3.754c8.886,0,16.074,7.408,15.952,16.501c-0.12,8.771-7.145,15.928-15.748,16.039
			c-0.068,0-0.136,0-0.204,0c-3.876,0-7.429-1.41-10.193-3.754c-0.861-0.622-3.555-3.001-3.555-3.001v31.383h5.024H130.3
			c-0.232,0.486-1.577,2.567-2.677,4.149c-1.995,2.877-3.339,6.305-3.292,10.111c0.108,8.771,7.124,15.938,15.727,16.06
			c0.075,0,0.15,0,0.225,0c4.125,0,7.887-1.596,10.719-4.217c3.215-2.975,5.235-7.274,5.235-12.052c0-3.729-1.377-7.054-3.299-9.907
			c-1.223-1.819-2.147-3.215-2.642-4.092c-0.009-0.019-0.019-0.033-0.028-0.052h29.66h0.46v-2.905V25.08
			C180.384,21.306,177.388,18.249,173.687,18.249"/>
	</g>
</g>
<g id="Ebene_4" display="none">
	<g display="inline">
		<defs>
			<rect id="SVGID_7_" x="10.193" y="20.628" width="178.716" height="158.404"/>
		</defs>
		<clipPath id="SVGID_8_">
			<use xlink:href="#SVGID_7_"  overflow="visible"/>
		</clipPath>
		<path clip-path="url(#SVGID_8_)" fill="#25B2E4" d="M65.132,121.647c-4.777-4.43-7.802-10.588-8.025-17.424
			c-0.658-0.046-1.307-0.095-1.982-0.095H37.221c-14.907,0-27.029,11.722-27.029,26.132v21.183l0.056,0.329l1.509,0.459
			c11.406,3.447,21.589,5.03,30.437,5.528v-6.395C42.196,137.337,51.885,125.455,65.132,121.647 M46.178,102.733
			c4.128,0,7.969-1.166,11.226-3.15c1.034-6.527,4.652-12.227,9.816-16.112c0.025-0.382,0.06-0.763,0.06-1.147
			c0-11.274-9.45-20.412-21.102-20.412c-11.661,0-21.109,9.137-21.109,20.412S34.516,102.733,46.178,102.733 M161.886,83.589
			h-17.771c-0.192,6.877-3.227,13.071-8.027,17.521c13.247,3.811,22.938,15.69,22.938,29.718v6.527
			c17.542-0.624,27.657-5.431,28.323-5.755l1.409-0.693h0.153v-21.186C188.913,95.313,176.788,83.589,161.886,83.589
			 M131.841,61.476c6.655,4.038,11.321,10.862,12.171,18.789c2.712,1.224,5.725,1.931,8.917,1.931
			c11.659,0,21.109-9.137,21.109-20.409c0-11.274-9.45-20.409-21.109-20.409C141.379,41.375,132.017,50.352,131.841,61.476
			 M127.09,104.128h-17.774c-0.192,6.875-3.229,13.068-8.029,17.519c13.247,3.811,22.938,15.69,22.938,29.718v6.527
			c17.547-0.624,27.66-5.433,28.325-5.755l1.412-0.693h0.148v-21.186C154.112,115.85,141.987,104.128,127.09,104.128
			 M92.165,125.198H74.257c-14.902,0-27.025,11.724-27.025,26.135v21.183l0.053,0.331l1.511,0.454
			c14.218,4.295,26.575,5.732,36.746,5.732c19.86,0,31.375-5.477,32.085-5.827l1.412-0.691h0.148v-21.183
			C119.188,136.922,107.07,125.198,92.165,125.198 M83.214,123.807c11.654,0,21.105-9.14,21.105-20.409
			c0-11.272-9.45-20.412-21.105-20.412c-11.657,0-21.112,9.14-21.112,20.412C62.102,114.667,71.557,123.807,83.214,123.807
			 M97.04,82.015c6.655,4.035,11.323,10.862,12.176,18.787c2.71,1.226,5.723,1.931,8.917,1.931c11.657,0,21.105-9.135,21.105-20.409
			s-9.448-20.412-21.105-20.412C106.581,61.912,97.216,70.887,97.04,82.015 M93.162,80.026c0.232-4.824,1.947-9.288,4.71-12.98
			c-1.938-0.392-3.943-0.598-5.999-0.598H72.435c-2.049,0-4.052,0.204-5.98,0.593c2.941,3.943,4.698,8.757,4.726,13.972
			c3.574-1.901,7.675-2.983,12.032-2.983C86.746,78.03,90.112,78.742,93.162,80.026 M59.244,42.78
			c0-12.234,10.254-22.152,22.91-22.152c12.651,0,22.908,9.918,22.908,22.152c0,12.236-10.257,22.155-22.908,22.155
			C69.498,64.934,59.244,55.016,59.244,42.78"/>
	</g>
</g>
<g id="Ebene_5" display="none">
	<g display="inline">
		<defs>
			<rect id="SVGID_9_" x="32.7" y="14.316" width="132.913" height="170.941"/>
		</defs>
		<clipPath id="SVGID_10_">
			<use xlink:href="#SVGID_9_"  overflow="visible"/>
		</clipPath>
		<path clip-path="url(#SVGID_10_)" fill="#FFFFFF" d="M108.635,87.069c1.928,0,3.493,1.565,3.493,3.493s-1.565,3.493-3.493,3.493
			c-1.928,0-3.493-1.565-3.493-3.493S106.707,87.069,108.635,87.069"/>
		<path clip-path="url(#SVGID_10_)" fill="#FFFFFF" d="M128.594,61.426c2.556,0,4.628,2.072,4.628,4.628
			c0,2.556-2.072,4.628-4.628,4.628c-2.556,0-4.628-2.072-4.628-4.628C123.966,63.498,126.038,61.426,128.594,61.426"/>
		<path clip-path="url(#SVGID_10_)" fill="#FFFFFF" d="M88.515,53.861c3.427,0,6.205,2.778,6.205,6.205
			c0,3.427-2.778,6.205-6.205,6.205s-6.205-2.778-6.205-6.205C82.31,56.639,85.088,53.861,88.515,53.861"/>
		<path clip-path="url(#SVGID_10_)" fill="#25B2E4" d="M143.817,65.848l-2.131,0.571c-0.024,0.89-0.139,1.782-0.349,2.662
			l1.912,1.102c0.684,0.397,0.92,1.272,0.524,1.959l-2.308,4.003c-0.397,0.687-1.275,0.923-1.959,0.526l-1.912-1.102
			c-0.656,0.623-1.371,1.171-2.129,1.636l0.571,2.131c0.205,0.765-0.248,1.551-1.013,1.756l-4.463,1.197
			c-0.767,0.205-1.553-0.248-1.758-1.013l-0.571-2.131c-0.89-0.024-1.782-0.139-2.662-0.349l-1.102,1.912
			c-0.394,0.684-1.272,0.92-1.959,0.526l-4.003-2.311c-0.687-0.397-0.92-1.275-0.526-1.959l1.102-1.909
			c-0.621-0.659-1.168-1.374-1.633-2.131l-2.131,0.574c-0.765,0.205-1.553-0.25-1.756-1.015l-1.199-4.463
			c-0.205-0.765,0.248-1.553,1.013-1.758l2.131-0.571c0.024-0.89,0.139-1.782,0.349-2.662l-1.909-1.102
			c-0.687-0.394-0.923-1.272-0.526-1.959l2.308-4.003c0.397-0.687,1.275-0.92,1.961-0.526l1.909,1.102
			c0.658-0.621,1.371-1.168,2.129-1.633l-0.571-2.131c-0.205-0.765,0.25-1.551,1.013-1.758l4.466-1.197
			c0.765-0.205,1.551,0.248,1.756,1.015l0.571,2.129c0.89,0.024,1.782,0.139,2.662,0.349l1.102-1.909
			c0.397-0.687,1.272-0.923,1.959-0.526l4.003,2.308c0.687,0.397,0.923,1.275,0.526,1.959l-1.102,1.912
			c0.621,0.656,1.168,1.371,1.636,2.129l2.129-0.571c0.765-0.205,1.553,0.248,1.758,1.013l1.197,4.466
			C145.035,64.857,144.581,65.642,143.817,65.848 M120.123,90.406l-1.607,0.432c-0.017,0.67-0.106,1.343-0.262,2.009l1.44,0.831
			c0.519,0.3,0.696,0.961,0.397,1.48l-1.742,3.021c-0.3,0.517-0.963,0.696-1.48,0.397l-1.44-0.833
			c-0.498,0.47-1.036,0.883-1.607,1.234l0.43,1.607c0.158,0.578-0.186,1.173-0.762,1.326l-3.37,0.904
			c-0.576,0.156-1.171-0.189-1.326-0.765l-0.43-1.607c-0.673-0.019-1.345-0.106-2.009-0.264l-0.833,1.442
			c-0.297,0.517-0.961,0.696-1.478,0.397l-3.021-1.744c-0.519-0.297-0.696-0.961-0.399-1.477l0.833-1.442
			c-0.47-0.496-0.883-1.036-1.234-1.607l-1.607,0.432c-0.578,0.156-1.171-0.189-1.326-0.765l-0.904-3.37
			c-0.156-0.576,0.189-1.171,0.765-1.326l1.61-0.432c0.017-0.67,0.104-1.343,0.262-2.006l-1.442-0.833
			c-0.517-0.297-0.694-0.961-0.397-1.478l1.744-3.021c0.297-0.519,0.961-0.696,1.477-0.399l1.442,0.833
			c0.496-0.47,1.034-0.883,1.605-1.234l-0.43-1.607c-0.156-0.578,0.189-1.171,0.765-1.326l3.368-0.904
			c0.578-0.153,1.173,0.189,1.326,0.765l0.432,1.61c0.67,0.017,1.343,0.104,2.009,0.262l0.831-1.442
			c0.3-0.517,0.963-0.694,1.48-0.397l3.021,1.744c0.517,0.297,0.694,0.961,0.397,1.478l-0.831,1.442
			c0.467,0.496,0.88,1.034,1.232,1.607l1.61-0.432c0.576-0.156,1.171,0.189,1.324,0.765l0.904,3.37
			C121.043,89.658,120.701,90.25,120.123,90.406 M94.812,79.48l-1.577-2.502c-1.168,0.326-2.358,0.529-3.547,0.607l-0.654,2.884
			c-0.236,1.036-1.267,1.685-2.301,1.449l-6.045-1.371c-1.036-0.236-1.685-1.265-1.449-2.301l0.654-2.884
			c-1.038-0.583-2.023-1.279-2.936-2.079l-2.502,1.577c-0.899,0.566-2.086,0.297-2.653-0.602l-3.304-5.242
			c-0.564-0.899-0.295-2.086,0.604-2.653l2.499-1.577c-0.326-1.168-0.529-2.358-0.604-3.547l-2.887-0.654
			c-1.034-0.236-1.683-1.267-1.449-2.301l1.374-6.045c0.234-1.036,1.265-1.685,2.301-1.449l2.884,0.654
			c0.583-1.038,1.279-2.023,2.077-2.936l-1.574-2.502c-0.566-0.899-0.297-2.086,0.602-2.653l5.242-3.302
			c0.899-0.566,2.086-0.297,2.653,0.602l1.577,2.499c1.168-0.323,2.355-0.526,3.547-0.604l0.654-2.887
			c0.236-1.034,1.265-1.683,2.301-1.449l6.042,1.374c1.036,0.234,1.685,1.265,1.452,2.301l-0.656,2.884
			c1.041,0.583,2.025,1.279,2.938,2.077l2.502-1.574c0.899-0.566,2.086-0.297,2.653,0.602l3.302,5.242
			c0.566,0.899,0.297,2.086-0.602,2.653l-2.502,1.577c0.326,1.168,0.529,2.358,0.607,3.547l2.884,0.654
			c1.036,0.236,1.685,1.265,1.449,2.301l-1.371,6.042c-0.236,1.036-1.265,1.685-2.301,1.452l-2.884-0.656
			c-0.583,1.041-1.279,2.025-2.079,2.938l1.577,2.502c0.566,0.899,0.297,2.086-0.602,2.653l-5.242,3.302
			C96.563,80.649,95.376,80.38,94.812,79.48 M153.326,39.661c-7.524-9.413-27.065-25.344-52.588-25.344
			c-17.064,0-33.303,7.135-48.262,21.204c-0.026,0.024-0.052,0.05-0.076,0.073C37.812,50.603,39.717,64.467,42.132,82.027
			c0.149,1.081,0.3,2.176,0.448,3.288c0.401,2.983-2.212,7.586-4.737,12.039c-3.798,6.689-7.72,13.607-2.927,16.876
			c8.195,5.584,9.618,16.576,10.996,27.211c0.328,2.525,0.666,5.136,1.088,7.675c0.729,4.381,4.425,6.509,11.298,6.509
			c3.056,0,6.321-0.378,9.479-0.743c2.707-0.312,5.263-0.607,7.31-0.607c1.145,0,2.039,0.09,2.733,0.279
			c8.258,2.237,15.471,18.936,18.079,28.934c0.212,0.812,0.836,1.452,1.643,1.68c0.215,0.059,0.432,0.09,0.647,0.09
			c0.602,0,1.19-0.229,1.636-0.656l42.323-40.393c0.656-0.625,0.897-1.57,0.621-2.433c-3.736-11.69,4.029-23.102,10.883-33.175
			c2.99-4.395,5.816-8.546,7.749-12.634C170.31,77.106,163.89,52.881,153.326,39.661"/>
	</g>
</g>
<g id="Ebene_6">
	<g>
		<defs>
			<rect id="SVGID_11_" x="2.067" y="25.317" width="195.364" height="148.414"/>
		</defs>
		<clipPath id="SVGID_12_">
			<use xlink:href="#SVGID_11_"  overflow="visible"/>
		</clipPath>
		<path clip-path="url(#SVGID_12_)" fill="#25B2E4" d="M99.717,76.646c12.282,0,22.231-10.829,22.231-24.161
			c0-13.376-9.967-24.189-22.231-24.189c-12.236,0-22.18,10.813-22.18,24.189C77.536,65.822,87.476,76.646,99.717,76.646"/>
		<path clip-path="url(#SVGID_12_)" fill="#25B2E4" d="M35.536,59.804c8.765,0,15.858-7.705,15.858-17.229
			c-0.007-9.542-7.09-17.258-15.858-17.258c-8.726,0-15.833,7.716-15.833,17.258C19.704,52.099,26.81,59.804,35.536,59.804"/>
		<path clip-path="url(#SVGID_12_)" fill="#25B2E4" d="M163.929,25.316c8.742,0,15.828,7.719,15.828,17.24
			s-7.086,17.24-15.828,17.24c-8.742,0-15.828-7.719-15.828-17.24S155.187,25.316,163.929,25.316"/>
	</g>
	<polygon fill="#25B2E4" points="166.082,66.636 168.859,98.932 163.955,104.886 159.131,99.039 161.899,66.636 156.906,60.752 
		153.513,64.435 137.026,68.418 133.233,87.625 114.476,83.11 109.721,77.958 102.74,86.222 106.625,131.463 99.731,139.808 
		92.995,131.616 96.884,86.222 89.869,77.958 85.144,83.11 66.347,87.639 62.538,68.418 46.063,64.435 42.675,60.752 37.691,66.636 
		40.465,98.932 35.553,104.886 30.74,99.039 33.505,66.636 28.506,60.752 25.131,64.435 8.633,68.418 2.151,101.216 2.068,101.216 
		14.119,129.093 54.04,129.093 52.934,134.666 52.813,134.676 69.711,173.731 129.781,173.731 146.678,134.676 145.575,129.093 
		185.379,129.093 197.432,101.216 190.929,68.418 174.448,64.435 171.084,60.752 	"/>
</g>
</svg>
