<?xml version="1.0" encoding="utf-8"?>
<!-- Generator: Adobe Illustrator 17.0.0, SVG Export Plug-In . SVG Version: 6.00 Build 0)  -->
<!DOCTYPE svg PUBLIC "-//W3C//DTD SVG 1.1//EN" "http://www.w3.org/Graphics/SVG/1.1/DTD/svg11.dtd">
<svg version="1.1" id="Ebene_1" xmlns="http://www.w3.org/2000/svg" xmlns:xlink="http://www.w3.org/1999/xlink" x="0px" y="0px"
	 width="200px" height="200px" viewBox="0 0 200 200" enable-background="new 0 0 200 200" xml:space="preserve">
<g>
	<defs>
		<rect id="SVGID_1_" x="18.597" y="16.159" width="162.852" height="167.899"/>
	</defs>
	<clipPath id="SVGID_2_">
		<use xlink:href="#SVGID_1_"  overflow="visible"/>
	</clipPath>
	<path clip-path="url(#SVGID_2_)" fill="#25B2E4" d="M126.796,159.759l1.961-35.24c0.11-2.031,1.854-3.574,3.888-3.44l0.511,0.041
		l12.242,13.837c21.043-21.447,22.051-56.141,1.624-79.229c-14.345-16.217-36.254-23.243-57.178-18.323
		c-5.271,1.235-10.597-2.049-11.902-7.346c-1.296-5.3,1.926-10.597,7.203-11.835c28.005-6.576,57.329,2.819,76.538,24.53
		c27.668,31.271,25.977,78.448-3.138,107.066l10.856,12.268l-0.026,0.511c-0.119,2.031-1.863,3.574-3.891,3.44l-35.208-2.345
		C128.231,163.556,126.674,161.793,126.796,159.759"/>
	<path clip-path="url(#SVGID_2_)" fill="#25B2E4" d="M34.57,34.183l35.208,2.345c2.031,0.134,3.589,1.895,3.475,3.928l-1.961,35.231
		c-0.11,2.04-1.854,3.58-3.894,3.443l-0.5-0.044L54.651,65.265c-21.034,21.435-22.06,56.129-1.627,79.223
		c14.345,16.217,36.254,23.234,57.181,18.32c5.274-1.241,10.609,2.051,11.905,7.348c1.29,5.303-1.938,10.6-7.215,11.838
		c-27.996,6.576-57.329-2.821-76.538-24.533c-27.665-31.268-25.974-78.442,3.147-107.057L30.65,38.138l0.026-0.511
		C30.795,35.586,32.536,34.046,34.57,34.183"/>
</g>
</svg>
