<?xml version="1.0" encoding="utf-8"?>
<!-- Generator: Adobe Illustrator 17.0.0, SVG Export Plug-In . SVG Version: 6.00 Build 0)  -->
<!DOCTYPE svg PUBLIC "-//W3C//DTD SVG 1.1//EN" "http://www.w3.org/Graphics/SVG/1.1/DTD/svg11.dtd">
<svg version="1.1" xmlns="http://www.w3.org/2000/svg" xmlns:xlink="http://www.w3.org/1999/xlink" x="0px" y="0px" width="200px"
	 height="200px" viewBox="0 0 200 200" enable-background="new 0 0 200 200" xml:space="preserve">
<g id="Ebene_1" display="none">
	<g display="inline">
		<defs>
			<rect id="SVGID_1_" x="18.597" y="16.159" width="162.852" height="167.899"/>
		</defs>
		<clipPath id="SVGID_2_">
			<use xlink:href="#SVGID_1_"  overflow="visible"/>
		</clipPath>
		<path clip-path="url(#SVGID_2_)" fill="#25B2E4" d="M126.796,159.759l1.961-35.24c0.11-2.031,1.854-3.574,3.888-3.44l0.511,0.041
			l12.242,13.837c21.043-21.447,22.051-56.141,1.624-79.229c-14.345-16.217-36.254-23.243-57.178-18.323
			c-5.271,1.235-10.597-2.049-11.902-7.346c-1.296-5.3,1.926-10.597,7.203-11.835c28.005-6.576,57.329,2.819,76.538,24.53
			c27.668,31.271,25.977,78.448-3.138,107.066l10.856,12.268l-0.026,0.511c-0.119,2.031-1.863,3.574-3.891,3.44l-35.208-2.345
			C128.231,163.556,126.674,161.793,126.796,159.759"/>
		<path clip-path="url(#SVGID_2_)" fill="#25B2E4" d="M34.57,34.183l35.208,2.345c2.031,0.134,3.589,1.895,3.475,3.928
			l-1.961,35.231c-0.11,2.04-1.854,3.58-3.894,3.443l-0.5-0.044L54.651,65.265c-21.034,21.435-22.06,56.129-1.627,79.223
			c14.345,16.217,36.254,23.234,57.181,18.32c5.274-1.241,10.609,2.051,11.905,7.348c1.29,5.303-1.938,10.6-7.215,11.838
			c-27.996,6.576-57.329-2.821-76.538-24.533c-27.665-31.268-25.974-78.442,3.147-107.057L30.65,38.138l0.026-0.511
			C30.795,35.586,32.536,34.046,34.57,34.183"/>
	</g>
</g>
<g id="Ebene_2">
	<g>
		<defs>
			<rect id="SVGID_3_" x="0.533" y="21.45" width="199.467" height="157.205"/>
		</defs>
		<clipPath id="SVGID_4_">
			<use xlink:href="#SVGID_3_"  overflow="visible"/>
		</clipPath>
		<path clip-path="url(#SVGID_4_)" fill="#25B2E4" d="M6.588,145.474v24.731H0.533v8.45h190.803v-8.45h-6.055v-24.731H6.588z
			 M126.696,29.743h5.616v-1.458h-2.301v-6.347c-0.003-0.267-0.226-0.485-0.511-0.485c-0.277,0-0.503,0.216-0.503,0.485v6.342
			h-2.301V29.743z M130.953,30.19c1.255,1.14,2.835,2.263,4.793,3.221v-0.785c0-1.341-0.762-2.436-1.702-2.436h-1.707H130.953z
			 M135.746,36.128v-1.626c-2.677-1.242-4.706-2.794-6.225-4.313h-2.862h-0.02C128.494,32.298,131.392,34.647,135.746,36.128
			 M135.746,39.151v-1.989c-5.184-1.676-8.445-4.544-10.403-6.972h-0.381c-0.523,0-0.985,0.345-1.293,0.871
			C125.505,33.698,129.147,37.416,135.746,39.151 M135.746,42.006v-1.849c-6.548-1.648-10.378-5.176-12.463-7.935
			c-0.018,0.132-0.025,0.267-0.025,0.404v1.702C125.304,37.02,129.121,40.499,135.746,42.006 M123.252,38.031
			c2.304,2.606,6.202,5.58,12.494,6.804v-1.824c-6.261-1.366-10.165-4.432-12.494-7.114V38.031z M123.252,41.592
			c2.494,2.476,6.444,5.06,12.494,6.048v-1.803c-6.022-1.13-9.979-3.81-12.494-6.36V41.592z M135.235,50.923
			c0.315-0.406,0.511-0.909,0.511-1.46v-0.838c-5.837-0.919-9.837-3.269-12.494-5.674v2.007h0.005
			C125.68,47.365,129.469,49.877,135.235,50.923 M161.554,87.655c0.003,11.178-9.375,20.243-20.947,20.243
			c-11.569,0-20.949-9.065-20.949-20.243c0-11.186,9.38-20.248,20.949-20.248S161.554,76.47,161.554,87.655 M200,103.304
			c0.003-1.989-0.945-4.008-2.121-4.501c-1.171-0.498-3.975-0.394-6.266,0.236c-2.294,0.63-5.827,0.81-7.889,0.411l-3.744-0.739
			V45.45h-5.555v19.763h-7.569v-7.564c0-2.151-1.811-3.901-4.038-3.901h-30.509v-1.285h-5.618v1.285h-0.472
			c-2.228,0-5.39,1.171-7.287,2.311c-7.262,4.351-19.725,7.686-33.976,7.686c-13.611,0-23.53-3.053-30.167-7.112
			c1.966,0.069,3.927,0.117,5.895,0.117c29.321,0,58.098-7.236,62.568-8.41v0.041c1.435,1.27,3.264,2.522,5.588,3.525h4.384
			c0.348,0,0.678-0.061,0.98-0.188c-5.006-1.057-8.532-3.2-10.947-5.39c-0.386,0.107-37.634,10.505-72.001,8.483
			c-1.532-0.61-3.188-1.057-4.536-1.057H26.278c-2.233,0-4.038,1.747-4.038,3.901V68.88h-2.774c-1.115,0-2.019,0.874-2.019,1.946
			v9.032c0,1.074,0.904,1.951,2.019,1.951h2.774v28.297c0,2.156,1.808,3.901,4.038,3.901h20.441c2.235,0,4.038-1.745,4.038-3.901
			v-3.444c0-2.149,1.331-5.095,3.045-6.464c7.142-5.758,17.655-12.255,29.389-12.288c15.631-0.058,25.305,4.64,31.269,9.959
			c1.638,1.463,2.606,4.562,2.38,6.708l-3.739,35.625h53.755V91.31h7.569v18.795h5.555v-2.2c0,0,1.676-0.328,3.744-0.731
			c2.062-0.404,5.595-0.221,7.884,0.404c2.288,0.627,5.093,0.739,6.263,0.246C199.048,107.332,200,105.305,200,103.304
			 M125.774,51.901h0.818c-1.265-0.686-2.365-1.435-3.32-2.212C123.402,50.928,124.463,51.901,125.774,51.901"/>
	</g>
</g>
</svg>
