<?xml version="1.0" encoding="utf-8"?>
<!-- Generator: Adobe Illustrator 17.0.0, SVG Export Plug-In . SVG Version: 6.00 Build 0)  -->
<!DOCTYPE svg PUBLIC "-//W3C//DTD SVG 1.1//EN" "http://www.w3.org/Graphics/SVG/1.1/DTD/svg11.dtd">
<svg version="1.1"
	 id="svg2" xmlns:dc="http://purl.org/dc/elements/1.1/" xmlns:sodipodi="http://sodipodi.sourceforge.net/DTD/sodipodi-0.dtd" xmlns:cc="http://creativecommons.org/ns#" xmlns:inkscape="http://www.inkscape.org/namespaces/inkscape" xmlns:svg="http://www.w3.org/2000/svg" xmlns:rdf="http://www.w3.org/1999/02/22-rdf-syntax-ns#" sodipodi:docname="Twitter_bird_logo_2012.svg" inkscape:version="0.48.4 r9939"
	 xmlns="http://www.w3.org/2000/svg" xmlns:xlink="http://www.w3.org/1999/xlink" x="0px" y="0px" width="40px" height="40px"
	 viewBox="0 0 40 40" enable-background="new 0 0 40 40" xml:space="preserve">
<sodipodi:namedview  id="base" inkscape:zoom="3.7200571" fit-margin-top="0" inkscape:cy="50.181142" bordercolor="#666666" fit-margin-left="0" borderopacity="1.0" showgrid="false" inkscape:cx="101.29413" pagecolor="#ffffff" inkscape:window-x="-8" inkscape:window-width="1280" inkscape:window-y="-8" inkscape:document-units="px" inkscape:window-height="962" inkscape:pageopacity="0.0" inkscape:current-layer="layer1" fit-margin-right="0" fit-margin-bottom="0" inkscape:window-maximized="1" inkscape:pageshadow="2">
	</sodipodi:namedview>
<g id="layer1" transform="translate(-282.32053,-396.30734)" inkscape:label="Layer 1" inkscape:groupmode="layer">
	<path id="path5" inkscape:connector-curvature="0" fill="#FFFFFF" d="M322.321,403.155c-1.473,0.653-3.053,1.095-4.713,1.293
		c1.693-1.017,2.996-2.625,3.607-4.541c-1.586,0.94-3.342,1.625-5.211,1.992c-1.496-1.596-3.629-2.592-5.99-2.592
		c-4.531,0-8.207,3.674-8.207,8.206c0,0.644,0.073,1.271,0.213,1.87c-6.82-0.342-12.867-3.609-16.915-8.574
		c-0.707,1.213-1.111,2.622-1.111,4.125c0,2.848,1.449,5.359,3.65,6.831c-1.345-0.042-2.61-0.412-3.717-1.026
		c-0.001,0.035-0.001,0.069-0.001,0.104c0,3.976,2.829,7.293,6.583,8.047c-0.688,0.188-1.414,0.287-2.162,0.287
		c-0.529,0-1.043-0.051-1.544-0.146c1.044,3.26,4.075,5.633,7.667,5.699c-2.809,2.2-6.347,3.512-10.192,3.512
		c-0.662,0-1.315-0.039-1.958-0.113c3.632,2.328,7.945,3.688,12.58,3.688c15.095,0,23.35-12.506,23.35-23.35
		c0-0.355-0.008-0.71-0.023-1.062C319.829,406.247,321.221,404.801,322.321,403.155L322.321,403.155z"/>
</g>
</svg>
